<?xml version="1.0" standalone="no"?>
<!DOCTYPE svg PUBLIC "-//W3C//DTD SVG 1.1//EN" "http://www.w3.org/Graphics/SVG/1.1/DTD/svg11.dtd">
<svg xmlns="http://www.w3.org/2000/svg">
<defs >
<font id="Rubik" horiz-adv-x="593" ><font-face
    font-family="Rubik"
    units-per-em="1000"
    panose-1="2 0 6 4 0 0 0 2 0 4"
    ascent="935"
    descent="-250"
    alphabetic="0" />
<glyph unicode=" " glyph-name="space" horiz-adv-x="212" />
<glyph unicode="!" glyph-name="exclam" horiz-adv-x="302" d="M241 231T233 223T214 215H88Q77 215 69 223T61 242V673Q61 684 69 692T88 700H214Q225 700 233 692T241 673V242Q241 231 233 223ZM241 16T233 8T214 0H88Q77 0 69 8T61 27V128Q61 139 69 147T88
155H214Q225 155 233 147T241 128V27Q241 16 233 8Z" />
<glyph unicode="&quot;" glyph-name="quotedbl" horiz-adv-x="488" d="M196 453T188 446T169 438H91Q80 438 72 445T63 466L41 674Q39 690 46 700T68 710H192Q207 710 214 700T219 674L197 466Q196 453 188 446ZM424 453T416 446T397 438H319Q308 438 300 445T291
466L269 674Q267 690 274 700T296 710H420Q435 710 442 700T447 674L425 466Q424 453 416 446Z" />
<glyph unicode="#" glyph-name="numbersign" horiz-adv-x="689" d="M616 549Q627 549 635 541T643 522V426Q643 415 635 407T616 399H542L526 295H590Q601 295 609 287T617 268V172Q617 161 609 153T590 145H504L491 60Q489 51 483 45T466 39H361Q352 39 346 45T339
61V63L351 145H277L264 60Q262 51 256 45T239 39H134Q125 39 119 45T112 61V63L124 145H73Q62 145 54 153T46 172V268Q46 279 54 287T73 295H147L162 399H99Q88 399 80 407T72 426V522Q72 533 80 541T99 549H185L198 634Q200 643 206 649T222 655H328Q337 655 343
649T350 633V630L337 549H412L425 634Q427 643 433 649T449 655H555Q564 655 570 649T577 633V630L564 549H616ZM374 295L389 399H315L299 295H374Z" />
<glyph unicode="$" glyph-name="dollar" horiz-adv-x="675" d="M481 684T526 654T597 586T625 513Q625 504 619 498T604 491H473Q459 491 451 494T433 507Q431 509 420 520T386 541T331 550Q288 550 261 539T233 499Q233 479 250 468T302 447T426 420Q539 397
592 348T645 208Q645 126 585 71T424 -2V-73Q424 -84 416 -92T397 -100H266Q255 -100 247 -92T239 -73V1Q177 15 130 45T56 116T28 197Q28 206 34 212T49 219H180Q202 219 218 205Q221 202 234 188T273 162T336 150Q460 150 460 203Q460 220 443 231T393 251T291
274L246 283Q144 305 96 356T48 494Q48 565 99 621T239 699V773Q239 784 247 792T266 800H397Q408 800 416 792T424 773V698Q481 684 526 654Z" />
<glyph unicode="%" glyph-name="percent" horiz-adv-x="847" d="M345 424T306 385T191 345Q116 345 78 384T34 487Q33 500 33 524Q33 549 34 563Q39 627 77 666T191 705Q266 705 304 666T348 563Q350 535 350 524Q350 513 348 487Q345 424 306 385ZM606 691T613
695T634 700H716Q727 700 733 695T740 680Q740 674 736 669L242 19Q234 9 227 5T206 0H124Q113 0 107 5T100 20Q100 26 104 31L598 681Q606 691 613 695ZM212 440T221 452T232 492Q234 516 234 525Q234 536 232 558Q230 586 221 598T191 610Q170 610 161 598T150
558Q149 547 149 525Q149 504 150 492Q152 464 161 452T191 440Q212 440 221 452ZM809 74T770 35T655 -5Q580 -5 542 34T498 137Q497 150 497 174Q497 199 498 213Q503 277 541 316T655 355Q730 355 768 316T812 213Q814 185 814 174Q814 163 812 137Q809 74 770
35ZM676 90T685 102T696 142Q698 166 698 175Q698 186 696 208Q694 236 685 248T655 260Q634 260 625 248T614 208Q613 197 613 175Q613 154 614 142Q616 114 625 102T655 90Q676 90 685 102Z" />
<glyph unicode="&amp;" glyph-name="ampersand" horiz-adv-x="765" d="M693 366Q704 366 712 358T720 340Q720 300 699 245T637 139L744 31Q750 25 750 17Q750 10 745 5T732 0H551Q536 0 526 10L504 32Q417 -10 308 -10Q202 -10 126 37T49 191Q49 248 79 291T168
373Q131 416 117 450T102 528Q102 580 132 621T215 686T331 710Q393 710 446 686T530 620T561 528Q561 422 440 338L510 267Q530 304 536 337Q539 351 549 358T574 366H693ZM381 494T381 528Q381 552 366 564T331 576Q310 576 296 564T281 528Q281 512 291 496T321
458Q381 494 381 528ZM286 253Q228 220 228 184Q228 155 248 140T308 124Q351 124 393 145L286 253Z" />
<glyph unicode="&apos;" glyph-name="quotesingle" horiz-adv-x="260" d="M196 453T188 446T169 438H91Q80 438 72 445T63 466L41 674Q39 690 46 700T68 710H192Q207 710 214 700T219 674L197 466Q196 453 188 446Z" />
<glyph unicode="(" glyph-name="parenleft" horiz-adv-x="408" d="M365 776T373 768T381 749V648Q381 637 373 630T354 621Q278 614 249 534T219 309Q219 165 248 84T354 -4Q365 -5 373 -12T381 -31V-132Q381 -143 373 -151T354 -159Q200 -159 120 -43T39 309Q39
545 119 660T354 776Q365 776 373 768Z" />
<glyph unicode=")" glyph-name="parenright" horiz-adv-x="408" d="M43 -159T35 -151T27 -132V-31Q27 -20 35 -13T54 -4Q130 3 159 84T189 309Q189 453 160 533T54 621Q43 622 35 629T27 648V749Q27 760 35 768T54 776Q208 776 288 661T369 309Q369 73 289 -43T54
-159Q43 -159 35 -151Z" />
<glyph unicode="*" glyph-name="asterisk" horiz-adv-x="450" d="M344 666L351 669Q353 670 358 670Q365 670 371 666T379 655L410 560Q411 558 411 554Q411 547 407 541T396 532Q395 532 394 532T388 531L304 526L370 474L375 468Q379 463 379 455Q379 443 370
437L290 378Q285 374 278 374Q266 374 259 383L255 390L225 468L195 390L191 383Q184 374 172 374Q165 374 160 378L80 437Q71 443 71 455Q71 463 75 468L80 474L146 526L62 531Q58 531 57 531T54 532Q46 535 42 543T40 560L71 655Q74 663 82 667T99 669L106 666L176
620L154 700L153 708Q153 716 159 723T175 730H275Q284 730 290 723T297 708L296 700L274 620L344 666Z" />
<glyph unicode="+" glyph-name="plus" horiz-adv-x="613" d="M397 58Q397 47 389 39T370 31H244Q233 31 225 39T217 58V223H62Q51 223 43 231T35 250V351Q35 362 43 370T62 378H217V543Q217 554 225 562T244 570H370Q381 570 389 562T397 543V378H551Q562 378
570 370T578 351V250Q578 239 570 231T551 223H397V58Z" />
<glyph unicode="," glyph-name="comma" horiz-adv-x="287" d="M63 162T73 173T103 185H226Q235 185 241 179T248 163Q248 159 247 156L169 -43Q157 -75 126 -75H51Q42 -75 36 -69T29 -53V-51L60 146Q63 162 73 173Z" />
<glyph unicode="-" glyph-name="hyphen" horiz-adv-x="479" d="M71 223T63 231T55 250V351Q55 362 63 370T82 378H397Q408 378 416 370T424 351V250Q424 239 416 231T397 223H82Q71 223 63 231Z" />
<glyph unicode="." glyph-name="period" horiz-adv-x="287" d="M236 16T228 8T209 0H78Q67 0 59 8T51 27V158Q51 169 59 177T78 185H209Q220 185 228 177T236 158V27Q236 16 228 8Z" />
<glyph unicode="/" glyph-name="slash" horiz-adv-x="574" d="M374 786T405 786H529Q538 786 544 780T551 764Q551 760 549 755L212 -54Q200 -84 168 -84H46Q37 -84 31 -78T24 -62Q24 -58 26 -53L361 756Q374 786 405 786Z" />
<glyph unicode="0" glyph-name="zero" horiz-adv-x="688" d="M638 411T638 349Q638 288 636 261Q629 142 558 66T344 -10Q202 -10 131 66T52 261Q50 315 50 349Q50 383 52 439Q59 558 130 634T344 710Q486 710 557 634T636 439Q638 411 638 349ZM448 489T424 519T344
550Q288 550 264 520T237 434Q235 380 235 351Q235 324 237 266Q239 211 263 181T344 150Q400 150 424 180T451 266Q453 295 453 351Q453 407 451 434Q448 489 424 519Z" />
<glyph unicode="1" glyph-name="one" horiz-adv-x="503" d="M16 481T16 491Q16 505 27 513L242 678Q244 680 252 686T270 696T288 700H410Q421 700 429 692T437 673V27Q437 16 429 8T410 0H279Q268 0 260 8T252 27V464L133 374Q125 368 116 368Q103 368 95 379L21
475Q16 481 16 491Z" />
<glyph unicode="2" glyph-name="two" horiz-adv-x="666" d="M344 160H595Q606 160 614 152T622 133V27Q622 16 614 8T595 0H67Q56 0 48 8T40 27V113Q40 151 69 172L368 386Q400 410 410 430T421 475Q421 500 404 525T337 550Q303 550 284 537T259 512T244 476Q239
463 229 458T204 453H81Q72 453 66 459T59 475Q61 534 92 587T185 675T336 710Q421 710 482 678T574 592T606 475Q606 414 579 365T484 266L344 160Z" />
<glyph unicode="3" glyph-name="three" horiz-adv-x="676" d="M581 700T589 692T597 673V567Q597 552 577 532L456 410Q538 390 585 341T632 217Q632 106 555 48T336 -10Q245 -10 177 18T73 91T35 188Q35 197 41 203T57 210H183Q199 210 209 205T232 187Q252 169
273 160T336 150Q386 150 416 167T447 217Q447 250 417 267T336 284H253Q242 284 234 292T226 311V397Q226 407 231 415T247 433L353 540H92Q81 540 73 548T65 567V673Q65 684 73 692T92 700H570Q581 700 589 692Z" />
<glyph unicode="4" glyph-name="four" horiz-adv-x="703" d="M389 0T381 8T373 27V129H58Q47 129 39 137T31 156V262Q31 288 44 305L343 682Q352 693 359 696T380 700H531Q542 700 550 692T558 673V289H644Q655 289 663 281T671 262V156Q671 145 663 137T644 129H558V27Q558
16 550 8T531 0H400Q389 0 381 8ZM378 473L232 289H378V473Z" />
<glyph unicode="5" glyph-name="five" horiz-adv-x="654" d="M370 150T400 173T431 237Q431 271 404 292T332 314Q317 314 305 310T274 298Q256 289 248 289H92Q80 289 72 297T65 316L95 673Q96 684 103 692T122 700H550Q561 700 569 692T577 673V567Q577 556
569 548T550 540H259L252 451Q294 474 345 474Q423 474 484 446T581 365T616 237Q616 159 578 104T474 19T325 -10Q237 -10 172 19T72 97T35 202Q35 211 41 217T57 224H184Q207 224 220 208Q241 181 262 166T325 150Q370 150 400 173Z" />
<glyph unicode="6" glyph-name="six" horiz-adv-x="661" d="M253 -10T185 20T76 108T35 241Q35 279 46 310T70 362T110 422L301 680Q302 682 306 687T317 696T332 700H491Q500 700 505 694T511 678Q511 673 506 665L376 489Q448 481 506 449T598 364T632 241Q632
165 592 108T483 21T334 -10Q253 -10 185 20ZM379 150T413 175T447 241Q447 282 413 307T334 332Q289 332 255 307T220 241Q220 200 254 175T334 150Q379 150 413 175Z" />
<glyph unicode="7" glyph-name="seven" horiz-adv-x="589" d="M354 540H56Q45 540 37 548T29 567V673Q29 684 37 692T56 700H534Q545 700 553 692T561 673V580Q561 564 545 529L328 24Q318 0 299 0H159Q149 0 142 7T135 24Q135 29 138 36L354 540Z" />
<glyph unicode="8" glyph-name="eight" horiz-adv-x="686" d="M419 710T483 682T586 604T624 490Q624 413 570 356Q603 328 621 291T639 210Q639 146 600 96T494 18T343 -10Q260 -10 193 18T86 96T47 210Q47 297 115 356Q62 414 62 490Q62 554 100 604T202 682T343
710Q419 710 483 682ZM387 424T413 443T439 492Q439 521 413 540T343 560Q299 560 273 541T247 492Q247 463 273 444T343 424Q387 424 413 443ZM396 140T425 159T454 208Q454 238 425 257T343 276Q290 276 261 257T232 208Q232 178 261 159T343 140Q396 140 425
159Z" />
<glyph unicode="9" glyph-name="nine" horiz-adv-x="647" d="M398 710T465 680T574 593T615 461Q615 425 605 395T581 343T542 283L352 20Q351 18 347 13T336 4T321 0H162Q153 0 148 6T142 22Q142 28 147 35L275 215Q208 224 152 256T63 341T29 461Q29 536 70
592T178 679T322 710Q398 710 465 680ZM279 550T247 525T214 461Q214 422 246 397T322 372Q365 372 397 397T430 461Q430 500 398 525T322 550Q279 550 247 525Z" />
<glyph unicode=":" glyph-name="colon" horiz-adv-x="295" d="M240 366T232 358T213 350H82Q71 350 63 358T55 377V508Q55 519 63 527T82 535H213Q224 535 232 527T240 508V377Q240 366 232 358ZM240 16T232 8T213 0H82Q71 0 63 8T55 27V158Q55 169 63 177T82
185H213Q224 185 232 177T240 158V27Q240 16 232 8Z" />
<glyph unicode=";" glyph-name="semicolon" horiz-adv-x="307" d="M254 366T246 358T227 350H96Q85 350 77 358T69 377V508Q69 519 77 527T96 535H227Q238 535 246 527T254 508V377Q254 366 246 358ZM69 162T79 173T109 185H232Q241 185 247 179T254 163Q254 159
253 156L175 -42Q163 -74 132 -74H57Q48 -74 42 -68T35 -52V-50L66 146Q69 162 79 173Z" />
<glyph unicode="&lt;" glyph-name="less" horiz-adv-x="523" d="M27 385T33 394T56 413L431 667Q436 670 442 670Q451 670 457 664T463 649V512Q463 497 455 488T431 468L255 350L431 232Q446 221 454 212T463 188V51Q463 42 457 36T442 30Q436 30 431 33L56 287Q40
297 34 306T27 329V371Q27 385 33 394Z" />
<glyph unicode="=" glyph-name="equal" horiz-adv-x="571" d="M77 346T69 354T61 373V474Q61 485 69 493T88 501H483Q494 501 502 493T510 474V373Q510 362 502 354T483 346H88Q77 346 69 354ZM77 100T69 108T61 127V228Q61 239 69 247T88 255H483Q494 255 502
247T510 228V127Q510 116 502 108T483 100H88Q77 100 69 108Z" />
<glyph unicode="&gt;" glyph-name="greater" horiz-adv-x="523" d="M496 315T490 306T467 287L92 33Q87 30 81 30Q72 30 66 36T60 51V188Q60 203 68 212T92 232L268 350L92 468Q77 479 69 488T60 512V649Q60 658 66 664T81 670Q87 670 92 667L467 413Q483 403
489 394T496 371V329Q496 315 490 306Z" />
<glyph unicode="?" glyph-name="question" horiz-adv-x="604" d="M575 465T560 435T525 384T469 334Q433 305 415 286T390 242Q383 215 363 215H241Q230 215 222 223T214 242Q214 277 229 305T266 353T322 402Q359 431 377 450T395 493Q395 522 373 538T305 555Q271
555 252 547T223 527T205 499Q199 484 192 477T171 469H49Q40 469 34 475T27 491Q28 540 62 591T159 676T305 710Q379 710 441 684T539 610T575 504Q575 465 560 435ZM392 16T384 8T365 0H239Q228 0 220 8T212 27V128Q212 139 220 147T239 155H365Q376 155 384
147T392 128V27Q392 16 384 8Z" />
<glyph unicode="@" glyph-name="at" horiz-adv-x="876" d="M616 79T584 92T535 125Q521 107 508 96T471 77T408 69Q334 69 290 125T245 273Q245 366 287 422T403 478Q441 478 461 467T497 434V443Q497 454 505 462T524 470H586Q597 470 605 462T613 443V240Q613
216 626 203T662 190Q685 190 697 204T710 249Q712 285 712 301Q712 326 709 351Q700 429 673 475T587 545T428 568Q191 568 166 351Q163 326 163 272Q163 219 166 190Q178 91 243 33T428 -25Q488 -25 525 -19T582 -3T625 23Q637 32 643 35T660 38H748Q760 38 768
30T775 10Q775 2 768 -5Q719 -59 636 -97T428 -136Q312 -136 230 -93T103 24T50 185Q48 223 48 272Q48 322 50 356Q57 444 99 517T225 634T428 679Q632 679 721 592T824 356Q826 326 826 302Q826 274 824 234Q821 186 798 151T738 97T662 79Q616 79 584 92ZM459
180T478 203T497 273Q497 320 478 343T428 367Q399 367 380 343T360 273Q360 227 379 204T428 180Q459 180 478 203Z" />
<glyph unicode="A" glyph-name="A" horiz-adv-x="718" d="M703 37Q707 27 707 22Q707 13 701 7T685 0H559Q542 0 533 7T520 25L492 108H226L198 25Q195 15 186 8T159 0H33Q24 0 18 6T11 22Q11 27 15 37L233 667Q238 681 249 690T278 700H440Q458 700 469 691T485
667L703 37ZM440 263L359 503L278 263H440Z" />
<glyph unicode="B" glyph-name="B" horiz-adv-x="712" d="M86 0T78 8T70 27V673Q70 684 78 692T97 700H419Q504 700 557 670T633 594T657 492Q657 442 640 412T601 365Q639 339 655 304T671 217Q671 124 615 62T440 0H97Q86 0 78 8ZM255 545V431H410Q440 431 455
446T471 488Q471 515 456 530T410 545H255ZM420 155Q450 155 468 172T486 216Q486 243 468 260T420 277H255V155H420Z" />
<glyph unicode="C" glyph-name="C" horiz-adv-x="702" d="M235 214T264 182T357 150Q417 150 444 173T482 229Q488 246 494 252T516 258H647Q656 258 662 252T669 236Q668 169 627 113T514 23T357 -10Q264 -10 195 26T88 124T46 261Q44 309 44 340Q44 377 46 439Q49
514 87 575T194 673T357 710Q443 710 514 677T626 588T669 464Q669 455 663 449T647 442H516Q500 442 494 448T482 471Q471 504 444 527T357 550Q294 550 265 518T231 434Q229 400 229 350Q229 302 231 266Q235 214 264 182Z" />
<glyph unicode="D" glyph-name="D" horiz-adv-x="723" d="M680 365T680 349Q680 333 678 279Q675 197 636 134T527 36T367 0H97Q86 0 78 8T70 27V673Q70 684 78 692T97 700H362Q453 700 523 665T634 566T678 421Q680 365 680 349ZM255 540V160H362Q488 160 493
275Q495 333 495 351Q495 371 493 425Q490 482 456 511T357 540H255Z" />
<glyph unicode="E" glyph-name="E" horiz-adv-x="643" d="M255 272H541Q552 272 560 280T568 299V405Q568 416 560 424T541 432H255V540H563Q574 540 582 548T590 567V673Q590 684 582 692T563 700H97Q86 700 78 692T70 673V27Q70 16 78 8T97 0H571Q582 0 590
8T598 27V133Q598 144 590 152T571 160H255V272Z" />
<glyph unicode="F" glyph-name="F" horiz-adv-x="617" d="M565 700T573 692T581 673V567Q581 556 573 548T554 540H255V403H534Q545 403 553 395T561 376V270Q561 259 553 251T534 243H255V27Q255 16 247 8T228 0H97Q86 0 78 8T70 27V673Q70 684 78 692T97 700H554Q565
700 573 692Z" />
<glyph unicode="G" glyph-name="G" horiz-adv-x="711" d="M228 410T228 357Q228 295 231 266Q235 215 265 183T357 150Q414 150 448 176T483 260H399Q388 260 380 268T372 287V393Q372 404 380 412T399 420H641Q652 420 660 412T668 393V265Q668 182 627 120T516
24T357 -10Q264 -10 195 26T88 124T46 261Q44 309 44 340Q44 377 46 439Q49 514 87 575T194 673T357 710Q446 710 514 677T621 594T663 497Q664 488 657 482T641 475H508Q495 475 488 481T468 502Q450 524 426 537T357 550Q244 550 231 434Q228 410 228 357Z" />
<glyph unicode="H" glyph-name="H" horiz-adv-x="732" d="M646 700T654 692T662 673V27Q662 16 654 8T635 0H504Q493 0 485 8T477 27V272H255V27Q255 16 247 8T228 0H97Q86 0 78 7T70 27V673Q70 684 78 692T97 700H228Q239 700 247 692T255 673V432H477V673Q477
684 485 692T504 700H635Q646 700 654 692Z" />
<glyph unicode="I" glyph-name="I" horiz-adv-x="325" d="M86 0T78 8T70 27V673Q70 684 78 692T97 700H228Q239 700 247 692T255 673V27Q255 16 247 8T228 0H97Q86 0 78 8Z" />
<glyph unicode="J" glyph-name="J" horiz-adv-x="685" d="M621 170T581 111T473 21T323 -10Q238 -10 171 19T65 102T25 226Q25 235 31 241T47 248H175Q193 248 199 243T212 219Q224 184 250 167T323 150Q379 150 408 178T437 261V540H95Q84 540 76 548T68 567V673Q68
684 76 692T95 700H594Q605 700 613 692T621 673V255Q621 170 581 111Z" />
<glyph unicode="K" glyph-name="K" horiz-adv-x="673" d="M666 29T666 22Q666 13 660 7T644 0H485Q472 0 463 5T444 23L255 261V27Q255 16 247 8T228 0H97Q86 0 78 8T70 27V673Q70 684 78 692T97 700H228Q239 700 247 692T255 673V462L431 678Q439 688 447 694T471
700H627Q636 700 642 694T649 678Q649 672 646 667L399 365L663 33Q666 29 666 22Z" />
<glyph unicode="L" glyph-name="L" horiz-adv-x="603" d="M571 160T579 152T587 133V27Q587 16 579 8T560 0H97Q86 0 78 8T70 27V673Q70 684 78 692T97 700H228Q239 700 247 692T255 673V160H560Q571 160 579 152Z" />
<glyph unicode="M" glyph-name="M" horiz-adv-x="836" d="M255 358V27Q255 16 247 8T228 0H97Q86 0 78 8T70 27V673Q70 684 78 692T97 700H213Q241 700 256 673L418 396L580 673Q595 700 623 700H739Q750 700 758 692T766 673V27Q766 16 758 8T739 0H608Q597 0
589 8T581 27V358L487 193Q480 182 472 175T450 168H386Q373 168 365 175T349 193L255 358Z" />
<glyph unicode="N" glyph-name="N" horiz-adv-x="726" d="M510 0T499 7T484 23L255 365V27Q255 16 247 8T228 0H97Q86 0 78 8T70 27V673Q70 684 78 692T97 700H201Q216 700 227 693T242 677L471 335V673Q471 684 479 692T498 700H629Q640 700 648 692T656 673V27Q656
16 648 8T629 0H525Q510 0 499 7Z" />
<glyph unicode="O" glyph-name="O" horiz-adv-x="718" d="M454 710T523 674T629 577T671 439Q673 411 673 349Q673 288 671 261Q667 185 630 124T523 26T359 -10Q264 -10 195 26T89 123T47 261Q45 315 45 349Q45 383 47 439Q51 515 88 576T195 674T359 710Q454
710 523 674ZM481 487T450 518T359 550Q300 550 269 519T232 434Q229 401 229 351Q229 302 232 266Q237 213 268 182T359 150Q418 150 449 181T486 266Q489 302 489 351Q489 401 486 434Q481 487 450 518Z" />
<glyph unicode="P" glyph-name="P" horiz-adv-x="686" d="M513 700T586 641T660 466Q660 351 587 291T383 231H255V27Q255 16 247 8T228 0H97Q86 0 78 8T70 27V673Q70 684 78 692T97 700H383Q513 700 586 641ZM378 387Q422 387 448 406T475 466Q475 506 449 525T378
545H255V387H378Z" />
<glyph unicode="Q" glyph-name="Q" horiz-adv-x="718" d="M454 710T523 674T629 577T671 439Q673 411 673 349Q673 288 671 261Q665 152 597 80L676 -34Q679 -40 679 -43V-46Q679 -54 673 -59T659 -65H518Q502 -65 493 -59T476 -42L448 0Q401 -10 359 -10Q264
-10 195 26T89 123T47 261Q45 315 45 349Q45 383 47 439Q51 515 88 576T195 674T359 710Q454 710 523 674ZM481 487T450 518T359 550Q300 550 269 519T232 434Q229 401 229 351Q229 302 232 266Q237 213 268 182T359 150Q418 150 449 181T486 266Q489 302 489 351Q489
401 486 434Q481 487 450 518Z" />
<glyph unicode="R" glyph-name="R" horiz-adv-x="695" d="M502 700T576 643T650 471Q650 326 531 271L655 33Q658 27 658 22Q658 13 652 7T636 0H500Q482 0 473 7T458 27L347 241H255V27Q255 16 247 8T228 0H97Q86 0 78 8T70 27V673Q70 684 78 692T97 700H368Q502
700 576 643ZM368 397Q465 397 465 471Q465 545 368 545H255V397H368Z" />
<glyph unicode="S" glyph-name="S" horiz-adv-x="674" d="M624 504T618 498T603 491H472Q458 491 450 494T432 507Q430 509 419 520T385 541T330 550Q287 550 260 539T232 499Q232 479 249 468T301 447T425 420Q538 397 591 348T644 208Q644 142 605 93T495 17T335
-10Q249 -10 179 20T69 98T27 197Q27 206 33 212T48 219H179Q201 219 217 205Q220 202 233 188T272 162T335 150Q459 150 459 203Q459 220 442 231T392 251T290 274L245 283Q143 305 95 356T47 494Q47 552 82 601T181 680T330 710Q411 710 478 680T583 603T624
513Q624 504 618 498Z" />
<glyph unicode="T" glyph-name="T" horiz-adv-x="631" d="M595 700T603 692T611 673V567Q611 556 603 548T584 540H408V27Q408 16 400 8T381 0H250Q239 0 231 8T223 27V540H47Q36 540 28 548T20 567V673Q20 684 28 692T47 700H584Q595 700 603 692Z" />
<glyph unicode="U" glyph-name="U" horiz-adv-x="734" d="M655 700T663 692T671 673V274Q671 184 633 120T527 23T367 -10Q275 -10 207 23T101 120T63 274V673Q63 684 71 692T90 700H221Q232 700 240 692T248 673V278Q248 217 278 184T367 150Q425 150 455 183T486
278V673Q486 684 494 692T513 700H644Q655 700 663 692Z" />
<glyph unicode="V" glyph-name="V" horiz-adv-x="696" d="M243 0T229 40L25 665Q22 674 22 678Q22 687 28 693T44 700H170Q187 700 196 693T209 675L348 235L487 675Q490 685 499 692T526 700H652Q661 700 667 694T674 678Q674 674 671 665L467 40Q453 0 414 0H282Q243
0 229 40Z" />
<glyph unicode="W" glyph-name="W" horiz-adv-x="832" d="M620 673Q623 687 631 693T651 700H782Q791 700 797 694T804 678L803 670L674 38Q672 24 658 12T624 0H541Q522 0 509 11T491 38L416 264L341 38Q336 23 323 12T291 0H208Q189 0 175 12T158 38L29 670L28
678Q28 687 34 693T50 700H181Q192 700 200 694T212 673L276 335L335 516Q345 545 369 545H463Q487 545 497 516L556 335L620 673Z" />
<glyph unicode="X" glyph-name="X" horiz-adv-x="711" d="M226 23Q218 11 210 6T185 0H33Q24 0 18 6T11 22Q11 28 14 33L245 356L24 667Q21 673 21 678Q21 687 27 693T43 700H194Q211 700 219 693T236 675L357 506L474 675Q482 686 490 693T516 700H669Q678 700
684 694T691 678Q691 673 688 667L466 352L695 33Q698 28 698 22Q698 13 692 7T676 0H524Q507 0 499 5T483 23L354 203L226 23Z" />
<glyph unicode="Y" glyph-name="Y" horiz-adv-x="687" d="M436 16T428 8T409 0H278Q267 0 259 8T251 27V240L20 665Q16 672 16 678Q16 687 22 693T38 700H175Q192 700 202 692T217 675L343 429L470 675Q474 683 484 691T512 700H649Q658 700 664 694T671 678Q671
672 667 665L436 240V27Q436 16 428 8Z" />
<glyph unicode="Z" glyph-name="Z" horiz-adv-x="668" d="M613 160T621 152T629 133V27Q629 16 621 8T602 0H66Q55 0 47 8T39 27V128Q39 140 43 147T54 163L374 540H76Q65 540 57 548T49 567V673Q49 684 57 692T76 700H592Q603 700 611 692T619 673V572Q619 553
606 539L286 160H602Q613 160 621 152Z" />
<glyph unicode="[" glyph-name="bracketleft" horiz-adv-x="390" d="M76 -159T68 -151T60 -132V749Q60 760 68 768T87 776H335Q346 776 354 768T362 749V648Q362 637 354 629T335 621H240V-4H335Q346 -4 354 -12T362 -31V-132Q362 -143 354 -151T335 -159H87Q76
-159 68 -151Z" />
<glyph unicode="\" glyph-name="backslash" horiz-adv-x="574" d="M550 -58T550 -62Q550 -71 544 -77T528 -84H406Q374 -84 362 -54L25 755Q23 760 23 764Q23 773 29 779T45 786H169Q200 786 213 756L548 -53Q550 -58 550 -62Z" />
<glyph unicode="]" glyph-name="bracketright" horiz-adv-x="390" d="M44 -159T36 -151T28 -132V-31Q28 -20 36 -12T55 -4H150V621H55Q44 621 36 629T28 648V749Q28 760 36 768T55 776H303Q314 776 322 768T330 749V-132Q330 -143 322 -151T303 -159H55Q44 -159 36 -151Z" />
<glyph unicode="^" glyph-name="asciicircum" horiz-adv-x="468" d="M289 755T297 751T315 736L417 624Q422 619 422 611Q422 595 406 595H339Q330 595 323 598T308 606L234 649L160 606Q152 601 145 598T129 595H62Q46 595 46 611Q46 619 51 624L153 736Q163
747 171 751T190 755H278Q289 755 297 751Z" />
<glyph unicode="_" glyph-name="underscore" horiz-adv-x="737" d="M60 -77T52 -69T44 -50V51Q44 62 52 70T71 78H666Q677 78 685 70T693 51V-50Q693 -61 685 -69T666 -77H71Q60 -77 52 -69Z" />
<glyph unicode="`" glyph-name="grave" horiz-adv-x="396" d="M341 619T341 611Q341 595 325 595H237Q223 595 215 599T195 612L60 723Q55 728 55 735Q55 744 60 749T74 755H207Q219 755 226 752T244 736L336 624Q341 619 341 611Z" />
<glyph unicode="a" glyph-name="a" horiz-adv-x="589" d="M356 340Q356 395 298 395Q265 395 244 377Q236 369 228 367T208 365H81Q71 365 65 371T59 387Q62 418 93 451T179 507T298 530Q417 530 476 476T536 330V27Q536 16 528 8T509 0H383Q372 0 364 8T356 27V55Q330
23 294 7T203 -10Q119 -10 72 34T24 148Q24 215 76 258T239 320L356 340ZM264 207Q236 202 220 190T204 159Q204 125 252 125Q296 125 326 153T356 221L264 207Z" />
<glyph unicode="b" glyph-name="b" horiz-adv-x="634" d="M597 290T597 260Q597 229 596 219Q592 106 530 48T372 -10Q331 -10 305 -2T264 19T233 50V27Q233 16 225 8T206 0H85Q74 0 66 8T58 27V683Q58 694 66 702T85 710H211Q222 710 230 702T238 683V470Q256
494 288 512T372 530Q468 530 530 472T596 300Q597 290 597 260ZM286 375T264 352T238 295Q236 275 236 260Q236 245 238 225Q243 191 264 168T327 145Q371 145 392 169T417 232Q419 252 419 260Q419 268 417 288Q414 327 393 351T327 375Q286 375 264 352Z" />
<glyph unicode="c" glyph-name="c" horiz-adv-x="602" d="M220 189T244 167T308 145Q339 145 357 154T387 181Q393 191 399 196T416 201H547Q558 201 566 194T574 176Q574 147 549 104T465 25T308 -10Q233 -10 173 18T76 99T37 220L36 260L37 300Q39 369 75 421T172
501T308 530Q404 530 463 496T547 419T574 346Q575 335 567 327T547 319H416Q406 319 400 324T387 339Q375 357 357 366T308 375Q269 375 245 353T217 295Q216 285 216 260Q216 235 217 225Q220 189 244 167Z" />
<glyph unicode="d" glyph-name="d" horiz-adv-x="634" d="M396 683Q396 694 404 702T423 710H549Q560 710 568 702T576 683V27Q576 16 568 8T549 0H428Q417 0 409 8T401 27V50Q385 31 371 19T330 -1T262 -10Q167 -10 105 48T38 219L37 260L38 300Q42 413 104 471T262
530Q314 530 346 512T396 470V683ZM220 193T241 169T307 145Q348 145 369 168T396 225Q398 235 398 260Q398 285 396 295Q392 328 370 351T307 375Q263 375 242 351T217 288Q216 278 216 260Q216 242 217 232Q220 193 241 169Z" />
<glyph unicode="e" glyph-name="e" horiz-adv-x="607" d="M214 161T241 143T304 125Q332 125 350 131T381 148Q392 157 397 159T414 162H544Q554 162 560 156T566 140Q566 120 536 84T447 19T304 -10Q175 -10 105 61T34 260Q34 339 65 400T158 495T304 530Q397
530 457 491T546 389T574 258V230Q574 219 566 211T547 203H214Q214 161 241 143ZM394 314Q390 348 367 371T304 395Q265 395 242 372T214 314H394Z" />
<glyph unicode="f" glyph-name="f" horiz-adv-x="460" d="M420 520Q431 520 439 512T447 493V392Q447 381 439 373T420 365H297V27Q297 16 289 8T270 0H144Q133 0 125 8T117 27V365H48Q37 365 29 373T21 392V493Q21 504 29 512T48 520H117V547Q117 637 178 688T335
740H430Q441 740 449 732T457 713V612Q457 601 449 593T430 585H340Q297 585 297 542V520H420Z" />
<glyph unicode="g" glyph-name="g" horiz-adv-x="634" d="M401 70Q385 51 371 39T330 19T262 10Q167 10 105 67T38 234L37 270L38 305Q42 415 104 472T262 530Q363 530 406 470V493Q406 504 414 512T433 520H549Q560 520 568 512T576 493V6Q576 -103 501 -161T303
-220Q208 -220 151 -191T72 -121T47 -44Q46 -33 54 -25T74 -17H204Q225 -17 235 -37Q243 -52 258 -61T305 -70Q346 -70 373 -52T401 0V70ZM220 209T242 187T307 165Q345 165 368 186T396 239Q398 249 398 271Q398 292 396 302Q392 333 369 354T307 375Q266 375
243 354T217 295Q216 285 216 271Q216 256 217 246Q220 209 242 187Z" />
<glyph unicode="h" glyph-name="h" horiz-adv-x="644" d="M591 16T583 8T564 0H438Q427 0 419 8T411 27V280Q411 324 390 349T324 375Q281 375 260 350T238 280V27Q238 16 230 8T211 0H85Q74 0 66 8T58 27V683Q58 694 66 702T85 710H211Q222 710 230 702T238 683V470Q257
494 294 512T374 530Q475 530 533 473T591 302V27Q591 16 583 8Z" />
<glyph unicode="i" glyph-name="i" horiz-adv-x="296" d="M238 591T230 583T211 575H85Q74 575 66 583T58 602V703Q58 714 66 722T85 730H211Q222 730 230 722T238 703V602Q238 591 230 583ZM238 16T230 8T211 0H85Q74 0 66 8T58 27V493Q58 504 66 512T85 520H211Q222
520 230 512T238 493V27Q238 16 230 8Z" />
<glyph unicode="j" glyph-name="j" horiz-adv-x="307" d="M249 591T241 583T222 575H96Q85 575 77 583T69 602V703Q69 714 77 722T96 730H222Q233 730 241 722T249 703V602Q249 591 241 583ZM69 504T77 512T96 520H222Q233 520 241 512T249 493V8Q249 -83 190
-136T36 -190H-14Q-25 -190 -33 -182T-41 -163V-67Q-41 -55 -33 -45T-14 -35H26Q48 -35 58 -22T69 13V493Q69 504 77 512Z" />
<glyph unicode="k" glyph-name="k" horiz-adv-x="611" d="M370 503Q387 520 409 520H556Q566 520 573 513T580 496Q580 491 578 487T569 476L391 278L601 43Q611 32 611 24Q611 14 604 7T587 0H438Q412 0 397 17L238 196V27Q238 16 230 8T211 0H85Q74 0 66 8T58
27V683Q58 694 66 702T85 710H211Q222 710 230 702T238 683V359L370 503Z" />
<glyph unicode="l" glyph-name="l" horiz-adv-x="296" d="M238 16T230 8T211 0H85Q74 0 66 8T58 27V683Q58 694 66 702T85 710H211Q222 710 230 702T238 683V27Q238 16 230 8Z" />
<glyph unicode="m" glyph-name="m" horiz-adv-x="931" d="M878 16T870 8T851 0H730Q719 0 711 8T703 27V283Q703 331 685 353T630 375Q594 375 576 353T558 283V27Q558 16 550 8T531 0H410Q399 0 391 8T383 27V283Q383 331 365 353T310 375Q238 375 238 286V27Q238
16 230 8T211 0H85Q74 0 66 8T58 27V493Q58 504 66 512T85 520H206Q217 520 225 512T233 493V470Q280 530 360 530Q412 530 453 511T520 452Q549 490 590 510T680 530Q771 530 824 473T878 302V27Q878 16 870 8Z" />
<glyph unicode="n" glyph-name="n" horiz-adv-x="644" d="M591 16T583 8T564 0H438Q427 0 419 8T411 27V280Q411 324 390 349T324 375Q281 375 260 350T238 280V27Q238 16 230 8T211 0H85Q74 0 66 8T58 27V493Q58 504 66 512T85 520H206Q217 520 225 512T233 493V470Q280
530 374 530Q475 530 533 473T591 302V27Q591 16 583 8Z" />
<glyph unicode="o" glyph-name="o" horiz-adv-x="616" d="M577 157T543 105T448 21T308 -10Q229 -10 168 21T73 104T36 221L35 260L36 298Q38 362 72 415T167 499T308 530Q387 530 448 499T544 415T580 298Q581 288 581 260Q581 231 580 221Q577 157 543 105ZM348
145T372 166T400 226Q402 246 402 260Q402 274 400 294Q397 332 373 353T308 375Q268 375 244 354T216 294Q215 284 215 260Q215 236 216 226Q219 188 243 167T308 145Q348 145 372 166Z" />
<glyph unicode="p" glyph-name="p" horiz-adv-x="634" d="M238 -163Q238 -174 230 -182T211 -190H85Q74 -190 66 -182T58 -163V493Q58 504 66 512T85 520H206Q217 520 225 512T233 493V470Q249 489 263 501T304 521T372 530Q467 530 529 472T596 301Q597 291 597
261Q597 230 596 220Q592 107 530 49T372 -10Q320 -10 288 8T238 50V-163ZM414 327T393 351T327 375Q286 375 265 352T238 295Q236 275 236 260Q236 245 238 225Q242 192 264 169T327 145Q371 145 392 169T417 232Q419 252 419 260Q419 268 417 288Q414 327 393
351Z" />
<glyph unicode="q" glyph-name="q" horiz-adv-x="634" d="M37 261L38 301Q42 414 104 472T262 530Q303 530 329 522T370 501T401 470V493Q401 504 409 512T428 520H549Q560 520 568 512T576 493V-163Q576 -174 568 -182T549 -190H423Q412 -190 404 -182T396 -163V50Q378
26 346 8T262 -10Q166 -10 104 48T38 220L37 261ZM348 145T370 168T396 225Q398 235 398 260Q398 285 396 295Q391 329 370 352T307 375Q263 375 242 351T217 288Q216 278 216 260Q216 242 217 232Q220 193 241 169T307 145Q348 145 370 168Z" />
<glyph unicode="r" glyph-name="r" horiz-adv-x="459" d="M432 520T440 512T448 493V392Q448 381 440 373T421 365H330Q285 365 262 342T238 273V27Q238 16 230 8T211 0H85Q74 0 66 8T58 27V493Q58 504 66 512T85 520H201Q212 520 220 512T228 493V470Q280 520
361 520H421Q432 520 440 512Z" />
<glyph unicode="s" glyph-name="s" horiz-adv-x="562" d="M122 217T81 259T40 369Q40 414 69 450T152 508T274 530Q341 530 395 510T482 457T517 390Q518 379 510 371T490 363H371Q360 363 345 374Q332 384 317 389T274 395Q250 395 235 388T220 367Q220 355 225
349T245 340T296 332L358 322Q445 308 488 263T532 154Q532 109 502 72T414 12T278 -10Q203 -10 148 11T63 66T30 133Q29 144 37 152T57 160H181Q188 160 192 158T203 149Q215 138 230 132T278 125Q309 125 330 133T352 156Q352 172 337 177T270 191L198 203Q122
217 81 259Z" />
<glyph unicode="t" glyph-name="t" horiz-adv-x="474" d="M297 155T340 155H420Q431 155 439 147T447 128V27Q447 16 439 8T420 0H325Q230 0 174 53T117 197V365H43Q32 365 24 373T16 392V493Q16 504 24 512T43 520H117V683Q117 694 125 702T144 710H270Q281 710
289 702T297 683V520H410Q421 520 429 512T437 493V392Q437 381 429 373T410 365H297V203Q297 155 340 155Z" />
<glyph unicode="u" glyph-name="u" horiz-adv-x="634" d="M53 504T61 512T80 520H206Q217 520 225 512T233 493V240Q233 195 253 170T315 145Q396 145 396 240V493Q396 504 404 512T423 520H549Q560 520 568 512T576 493V27Q576 16 568 8T549 0H433Q422 0 414
8T406 27V50Q385 24 353 7T265 -10Q165 -10 109 47T53 218V493Q53 504 61 512Z" />
<glyph unicode="v" glyph-name="v" horiz-adv-x="624" d="M18 489Q17 492 17 496Q17 506 24 513T41 520H169Q191 520 202 496L312 235L422 496Q433 520 455 520H583Q593 520 600 513T607 496Q607 492 606 489L404 25Q398 13 391 7T371 0H253Q240 0 233 6T220 25L18 489Z" />
<glyph unicode="w" glyph-name="w" horiz-adv-x="866" d="M505 520T514 496L588 269L662 496Q671 520 696 520H820Q830 520 837 513T844 496L843 488L684 25Q676 0 651 0H537Q514 0 504 25L433 235L362 25Q352 0 329 0H215Q190 0 182 25L23 488L22 496Q22 506
29 513T46 520H170Q195 520 204 496L278 269L352 496Q361 520 386 520H480Q505 520 514 496Z" />
<glyph unicode="x" glyph-name="x" horiz-adv-x="616" d="M595 37Q599 31 599 23Q599 14 592 7T575 0H422Q411 0 404 5T390 19L307 124L225 19Q218 11 211 6T193 0H40Q30 0 23 7T16 23Q16 31 20 37L197 264L25 483Q21 489 21 497Q21 506 28 513T45 520H200Q211
520 218 515T232 501L309 402L386 501Q393 509 400 514T418 520H573Q583 520 590 513T597 497Q597 489 593 483L420 260L595 37Z" />
<glyph unicode="y" glyph-name="y" horiz-adv-x="626" d="M320 -190T300 -190H169Q159 -190 152 -183T145 -166Q145 -162 146 -159L222 20L20 489Q19 492 19 496Q19 506 26 513T43 520H174Q194 520 203 496L314 236L424 496Q433 520 453 520H585Q595 520 602 513T609
496Q609 492 608 489L329 -166Q320 -190 300 -190Z" />
<glyph unicode="z" glyph-name="z" horiz-adv-x="564" d="M514 155T522 147T530 128V27Q530 16 522 8T503 0H67Q56 0 48 8T40 27V124Q40 135 44 142T56 159L254 365H77Q66 365 58 373T50 392V493Q50 504 58 512T77 520H483Q494 520 502 512T510 493V396Q510 383
496 367L293 155H503Q514 155 522 147Z" />
<glyph unicode="{" glyph-name="braceleft" horiz-adv-x="451" d="M311 -160T244 -124T140 -24T102 119Q102 156 89 187T49 230L32 237Q3 250 3 274V342Q3 366 32 379L49 386Q76 397 89 428T102 497Q102 576 139 640T244 740T397 776Q408 776 416 768T424 749V648Q424
637 416 629T397 621Q338 615 310 586T282 486Q282 366 195 308Q282 250 282 130Q282 59 310 30T397 -5Q408 -5 416 -13T424 -32V-133Q424 -144 416 -152T397 -160Q311 -160 244 -124Z" />
<glyph unicode="|" glyph-name="bar" horiz-adv-x="302" d="M241 -192T233 -200T214 -208H88Q77 -208 69 -200T61 -181V869Q61 880 69 888T88 896H214Q225 896 233 888T241 869V-181Q241 -192 233 -200Z" />
<glyph unicode="}" glyph-name="braceright" horiz-adv-x="451" d="M27 -21T35 -13T54 -5Q113 1 141 30T169 130Q169 250 256 308Q169 366 169 486Q169 557 141 586T54 621Q43 621 35 629T27 648V749Q27 760 35 768T54 776Q140 776 207 740T311 640T349 497Q349
460 362 429T402 386L419 379Q448 366 448 342V274Q448 250 419 237L402 230Q375 219 362 188T349 119Q349 40 312 -24T207 -124T54 -160Q43 -160 35 -152T27 -133V-32Q27 -21 35 -13Z" />
<glyph unicode="~" glyph-name="asciitilde" horiz-adv-x="562" d="M414 357T432 365T460 383Q470 391 480 392Q493 392 497 384T502 355V282Q502 248 472 225T392 202Q359 202 336 207T278 223Q249 233 226 238T171 244Q150 244 132 236T104 218Q94 210 84 209Q71
209 67 217T62 246V319Q62 353 92 376T172 399Q205 399 228 394T286 378Q315 368 338 363T393 357Q414 357 432 365Z" />
<glyph unicode="&#xa1;" glyph-name="exclamdown" horiz-adv-x="294" d="M237 392Q237 381 229 373T210 365H84Q73 365 65 373T57 392V493Q57 504 65 512T84 520H210Q221 520 229 512T237 493V392ZM237 -153Q237 -164 229 -172T210 -180H84Q73 -180 65 -172T57
-153V278Q57 289 65 297T84 305H210Q221 305 229 297T237 278V-153Z" />
<glyph unicode="&#xa2;" glyph-name="cent" horiz-adv-x="617" d="M227 189T251 167T315 145Q346 145 364 154T394 181Q400 191 406 196T423 201H554Q565 201 573 193T581 174Q579 149 562 114T505 47T402 -1V-73Q402 -84 394 -92T375 -100H249Q238 -100 230 -92T222
-73V2Q144 24 96 81T44 220L43 260L44 300Q47 381 95 438T222 517V583Q222 594 230 602T249 610H375Q386 610 394 602T402 583V521Q465 506 504 473T561 405T581 346Q582 335 574 327T554 319H423Q413 319 407 324T394 339Q382 357 364 366T315 375Q276 375 252
353T224 295Q223 285 223 260Q223 235 224 225Q227 189 251 167Z" />
<glyph unicode="&#xa3;" glyph-name="sterling" horiz-adv-x="754" d="M538 710T613 646T690 470Q690 461 684 455T668 448H537Q521 448 515 453T503 477Q489 514 468 532T401 550Q355 550 329 516T303 434V408H464Q475 408 483 400T491 381V285Q491 274 483 266T464
258H323Q327 228 328 213Q365 203 416 175Q440 162 455 156T485 149Q524 149 547 191Q558 213 573 213H699Q708 213 714 207T721 191Q719 145 694 98T620 20T505 -11Q457 -11 426 0T355 33Q329 48 311 55T271 63Q231 63 209 22Q198 0 183 0H57Q48 0 41 6T35 22Q37
72 65 120T144 197Q143 226 138 258H77Q66 258 58 266T50 285V381Q50 392 58 400T77 408H118V434Q118 557 187 633T401 710Q538 710 613 646Z" />
<glyph unicode="&#xa4;" glyph-name="currency" horiz-adv-x="626" d="M56 458Q49 465 49 477Q49 489 56 496L117 557Q127 565 136 565Q147 565 155 557L200 511Q255 540 313 540Q372 540 425 511L471 557Q479 565 490 565Q501 565 509 557L570 496Q578 488 578
477Q578 466 570 458L524 412Q553 359 553 300Q553 242 524 187L570 142Q578 134 578 123Q578 114 570 104L509 43Q502 36 490 36Q478 36 471 43L425 88Q374 60 313 60Q253 60 200 88L155 43Q148 36 136 36Q125 36 117 43L56 104Q49 112 49 123Q49 135 56 142L101
187Q73 240 73 300Q73 361 101 412L56 458ZM354 200T383 229T413 300Q413 341 384 370T313 400Q272 400 243 371T213 300Q213 259 242 230T313 200Q354 200 383 229Z" />
<glyph unicode="&#xa5;" glyph-name="yen" horiz-adv-x="706" d="M30 665Q26 672 26 678Q26 687 32 693T48 700H185Q202 700 212 692T227 675L353 447L479 675Q483 683 493 691T521 700H658Q667 700 673 694T680 678Q680 672 676 665L465 293H585Q596 293 604
285T612 266V170Q612 159 604 151T585 143H444V27Q444 16 436 8T417 0H289Q278 0 270 8T262 27V143H120Q109 143 101 151T93 170V266Q93 277 101 285T120 293H240L30 665Z" />
<glyph unicode="&#xa6;" glyph-name="brokenbar" horiz-adv-x="306" d="M243 491T235 483T216 475H90Q79 475 71 483T63 502V802Q63 813 71 821T90 829H216Q227 829 235 821T243 802V502Q243 491 235 483ZM243 16T235 8T216 0H90Q79 0 71 8T63 27V327Q63 338 71
346T90 354H216Q227 354 235 346T243 327V27Q243 16 235 8Z" />
<glyph unicode="&#xa7;" glyph-name="section" horiz-adv-x="618" d="M533 83T533 41Q533 -8 506 -49T427 -115T302 -140Q222 -140 168 -116T87 -56T61 10Q61 20 68 27T83 35H207Q215 35 221 32T234 21Q247 9 261 2T302 -5Q323 -5 338 7T353 37Q353 53 340 65T295
89T201 120Q117 146 74 196T31 305Q31 353 49 387T107 449Q85 484 85 529Q85 578 112 619T191 685T316 710Q396 710 450 686T531 626T557 560Q557 550 550 543T535 535H411Q403 535 397 538T384 549Q371 561 357 568T316 575Q295 575 280 563T265 533Q265 517 278
505T323 481T417 450Q501 424 544 374T587 265Q587 217 568 183T510 121Q533 83 533 41ZM370 220T379 217Q411 236 411 259Q411 282 387 298T295 334Q263 343 239 353Q207 333 207 311Q207 288 231 272T323 236Q370 220 379 217Z" />
<glyph unicode="&#xa8;" glyph-name="dieresis" horiz-adv-x="490" d="M210 611T202 603T183 595H82Q71 595 63 603T55 622V723Q55 734 63 742T82 750H183Q194 750 202 742T210 723V622Q210 611 202 603ZM435 611T427 603T408 595H307Q296 595 288 603T280 622V723Q280
734 288 742T307 750H408Q419 750 427 742T435 723V622Q435 611 427 603Z" />
<glyph unicode="&#xa9;" glyph-name="copyright" horiz-adv-x="806" d="M501 710T583 662T714 531T763 350Q763 252 715 170T584 39T403 -10Q305 -10 223 38T92 169T43 350Q43 448 91 530T222 661T403 710Q501 710 583 662ZM476 80T537 116T633 214T668 350Q668
424 633 485T537 583T403 620Q330 620 269 584T173 486T138 350Q138 276 173 215T269 117T403 80Q476 80 537 116ZM351 351L352 317Q354 287 365 272T403 257Q436 257 450 286Q455 296 460 301T476 307H556Q566 307 572 301T578 285Q578 260 556 230T494 179T403
158Q325 158 278 201T228 317L227 351L228 385Q231 457 278 500T403 544Q454 544 494 523T556 472T578 417Q578 407 572 401T556 395H476Q466 395 461 400T450 416Q436 445 403 445Q377 445 366 430T352 385L351 351Z" />
<glyph unicode="&#xaa;" glyph-name="ordfeminine" horiz-adv-x="356" d="M209 463Q200 448 182 439T138 429Q93 429 63 451T33 509Q33 580 161 602L204 609Q204 635 177 635Q167 635 155 627Q150 624 144 622T131 619H78Q56 619 56 634Q56 646 69 662T109 692T178
705Q244 705 275 677T307 597V456Q307 446 301 440T285 434H231Q221 434 215 440T209 456V463ZM204 549L177 543Q153 538 145 531T136 514Q136 499 158 499Q180 499 192 513T204 543V549Z" />
<glyph unicode="&#xab;" glyph-name="guillemotleft" horiz-adv-x="626" d="M33 378T47 390L254 591Q260 596 268 596Q277 596 283 590T290 574V461Q290 444 286 435T272 416L182 329L272 242Q282 232 286 223T290 197V84Q290 75 284 69T268 62Q260 62 254 67L47
268Q33 280 33 296V362Q33 378 47 390ZM313 378T327 390L534 591Q540 596 548 596Q557 596 563 590T570 574V461Q570 444 566 435T552 416L462 329L552 242Q562 232 566 223T570 197V84Q570 75 564 69T548 62Q540 62 534 67L327 268Q313 280 313 296V362Q313 378
327 390Z" />
<glyph unicode="&#xac;" glyph-name="logicalnot" horiz-adv-x="577" d="M513 89T505 81T486 73H360Q349 73 341 81T333 100V195H81Q70 195 62 203T54 222V323Q54 334 62 342T81 350H486Q497 350 505 342T513 323V100Q513 89 505 81Z" />
<glyph unicode="&#xae;" glyph-name="registered" horiz-adv-x="806" d="M501 710T583 662T714 531T763 350Q763 252 715 170T584 39T403 -10Q305 -10 223 38T92 169T43 350Q43 448 91 530T222 661T403 710Q501 710 583 662ZM476 80T537 116T633 214T668 350Q668
424 633 485T537 583T403 620Q330 620 269 584T173 486T138 350Q138 276 173 215T269 117T403 80Q476 80 537 116ZM263 168T257 174T251 190V512Q251 522 257 528T273 534H442Q503 534 534 500T565 412Q565 379 553 351T518 305L571 204Q575 198 575 190Q575 181
570 175T553 168H475Q456 168 446 187L400 282H370V190Q370 180 364 174T348 168H273Q263 168 257 174ZM407 376Q427 376 436 385T446 410Q446 426 436 435T407 445H370V376H407Z" />
<glyph unicode="&#xaf;" glyph-name="overscore" horiz-adv-x="453" d="M71 595T63 603T55 622V708Q55 719 63 727T82 735H371Q382 735 390 727T398 708V622Q398 611 390 603T371 595H82Q71 595 63 603Z" />
<glyph unicode="&#xb0;" glyph-name="degree" horiz-adv-x="422" d="M260 710T301 687T367 624T392 534Q392 485 368 445T302 381T211 358Q162 358 121 381T55 444T30 534Q30 583 54 623T120 687T211 710Q260 710 301 687ZM245 458T266 479T287 534Q287 568 266
589T211 610Q177 610 156 589T135 534Q135 500 156 479T211 458Q245 458 266 479Z" />
<glyph unicode="&#xb1;" glyph-name="plusminus" horiz-adv-x="575" d="M377 218Q377 207 369 199T350 191H227Q216 191 208 199T200 218V356H73Q62 356 54 364T46 383V484Q46 495 54 503T73 511H200V643Q200 654 208 662T227 670H350Q361 670 369 662T377 643V511H502Q513
511 521 503T529 484V383Q529 372 521 364T502 356H377V218ZM82 0T74 8T66 27V128Q66 139 74 147T93 155H482Q493 155 501 147T509 128V27Q509 16 501 8T482 0H93Q82 0 74 8Z" />
<glyph unicode="&#xb2;" glyph-name="uni00B2" horiz-adv-x="358" d="M27 423T32 429T52 447Q86 473 108 488Q167 532 184 548T202 583Q202 596 195 603T177 610Q163 610 153 592Q143 574 126 574H55Q46 574 41 579T37 593Q40 640 78 672T177 705Q241 705 279
673T318 588Q318 558 309 538T278 498T212 445H303Q313 445 319 439T325 423V372Q325 362 319 356T303 350H49Q39 350 33 355T27 370V415Q27 423 32 429Z" />
<glyph unicode="&#xb3;" glyph-name="uni00B3" horiz-adv-x="360" d="M312 625T309 620T298 607L254 564Q294 549 312 529T330 465Q330 413 288 379T180 345Q134 345 99 359T44 396T22 439V441Q22 448 28 453T39 458H124Q132 458 138 456T149 450Q157 445 163
443T180 440Q196 440 205 445T214 465Q214 478 205 484T180 490H125Q115 490 109 496T103 512V535Q103 546 114 557L167 605H65Q55 605 49 611T43 627V678Q43 688 49 694T65 700H290Q300 700 306 694T312 678V634Q312 625 309 620Z" />
<glyph unicode="&#xb4;" glyph-name="acute" horiz-adv-x="396" d="M163 748T170 751T189 755H322Q331 755 336 750T341 735Q341 728 336 723L201 612Q190 603 182 599T159 595H71Q55 595 55 611Q55 619 60 624L152 736Q163 748 170 751Z" />
<glyph unicode="&#xb5;" glyph-name="uni00B5" horiz-adv-x="656" d="M62 504T70 512T89 520H215Q226 520 234 512T242 493V231Q243 189 260 167T319 145Q364 145 389 171T415 240V493Q415 504 423 512T442 520H568Q579 520 587 512T595 493V27Q595 16 587 8T568
0H447Q436 0 428 8T420 27V50Q373 -10 279 -10Q266 -10 242 -8V-173Q242 -184 234 -192T215 -200H89Q78 -200 70 -192T62 -173V218V493Q62 504 70 512Z" />
<glyph unicode="&#xb6;" glyph-name="paragraph" horiz-adv-x="620" d="M525 700Q536 700 544 692T552 673V-73Q552 -84 544 -92T525 -100H452Q441 -100 433 -92T425 -73V583H346V-73Q346 -84 338 -92T319 -100H246Q235 -100 227 -92T219 -73V316Q167 316 123
342T53 412T27 508Q27 560 53 604T123 674T219 700H525Z" />
<glyph unicode="&#xb7;" glyph-name="middot" horiz-adv-x="336" d="M203 430T233 413T280 365T298 300Q298 265 281 235T233 188T168 170Q133 170 103 187T56 235T38 300Q38 335 55 365T103 412T168 430Q203 430 233 413Z" />
<glyph unicode="&#xb8;" glyph-name="cedilla" horiz-adv-x="292" d="M124 -54Q140 -44 161 -44Q198 -44 217 -69T237 -132Q237 -169 210 -194T138 -220Q111 -220 84 -207T56 -179Q56 -173 61 -169L79 -153Q87 -145 94 -145Q98 -145 110 -152T138 -159Q171 -159
171 -132Q171 -105 138 -105Q132 -105 119 -108T99 -112Q90 -112 84 -106L66 -85Q63 -81 61 -78T58 -70Q58 -64 64 -52L102 27H163L124 -54Z" />
<glyph unicode="&#xb9;" glyph-name="uni00B9" horiz-adv-x="284" d="M242 362T236 356T220 350H148Q138 350 132 356T126 372V549L84 517Q79 513 71 513Q61 513 53 522L16 567Q11 574 11 581Q11 591 20 598L147 693Q157 700 170 700H220Q230 700 236 694T242
678V372Q242 362 236 356Z" />
<glyph unicode="&#xba;" glyph-name="ordmasculine" horiz-adv-x="352" d="M317 589T317 567Q317 545 316 540Q313 488 273 459T176 429Q119 429 79 458T36 540L35 567L36 594Q39 645 81 675T176 705Q229 705 271 675T316 594Q317 589 317 567ZM146 567L147 545Q148
522 155 514T176 505Q190 505 197 513T205 545Q206 550 206 567Q206 602 199 615T176 629Q163 629 156 620T147 589L146 567Z" />
<glyph unicode="&#xbb;" glyph-name="guillemotright" horiz-adv-x="626" d="M313 280T299 268L92 67Q86 62 78 62Q69 62 63 68T56 84V197Q56 214 60 223T74 242L164 329L74 416Q64 426 60 435T56 461V574Q56 583 62 589T78 596Q86 596 92 591L299 390Q313 378
313 362V296Q313 280 299 268ZM593 280T579 268L372 67Q366 62 358 62Q349 62 343 68T336 84V197Q336 214 340 223T354 242L444 329L354 416Q344 426 340 435T336 461V574Q336 583 342 589T358 596Q366 596 372 591L579 390Q593 378 593 362V296Q593 280 579 268Z"
/>
<glyph unicode="&#xbc;" glyph-name="onequarter" horiz-adv-x="803" d="M593 691T600 695T621 700H683Q694 700 700 695T707 680Q707 674 703 669L209 19Q201 9 194 5T173 0H111Q100 0 94 5T87 20Q87 26 91 31L585 681Q593 691 600 695ZM257 362T251 356T235
350H163Q153 350 147 356T141 372V549L99 517Q94 513 86 513Q76 513 68 522L31 567Q26 574 26 581Q26 591 35 598L162 693Q172 700 185 700H235Q245 700 251 694T257 678V372Q257 362 251 356ZM691 350Q701 350 707 344T713 328V152H748Q758 152 764 146T770 130V79Q770
69 764 63T748 57H713V22Q713 12 707 6T691 0H619Q609 0 603 6T597 22V57H439Q429 57 423 63T417 79V129Q417 143 429 159L563 332Q576 350 593 350H691ZM599 152V232L537 152H599Z" />
<glyph unicode="&#xbd;" glyph-name="onehalf" horiz-adv-x="814" d="M593 691T600 695T621 700H683Q694 700 700 695T707 680Q707 674 703 669L209 19Q201 9 194 5T173 0H111Q100 0 94 5T87 20Q87 26 91 31L585 681Q593 691 600 695ZM257 362T251 356T235 350H163Q153
350 147 356T141 372V549L99 517Q94 513 86 513Q76 513 68 522L31 567Q26 574 26 581Q26 591 35 598L162 693Q172 700 185 700H235Q245 700 251 694T257 678V372Q257 362 251 356ZM476 73T481 79T501 97Q535 123 557 138Q616 182 633 198T651 233Q651 246 644 253T626
260Q612 260 602 242Q592 224 575 224H504Q495 224 490 229T486 243Q489 290 527 322T626 355Q690 355 728 323T767 238Q767 208 758 188T727 148T661 95H752Q762 95 768 89T774 73V22Q774 12 768 6T752 0H498Q488 0 482 5T476 20V65Q476 73 481 79Z" />
<glyph unicode="&#xbe;" glyph-name="threequarters" horiz-adv-x="825" d="M618 691T625 695T646 700H708Q719 700 725 695T732 680Q732 674 728 669L234 19Q226 9 219 5T198 0H136Q125 0 119 5T112 20Q112 26 116 31L610 681Q618 691 625 695ZM320 625T317 620T306
607L262 564Q302 549 320 529T338 465Q338 413 296 379T188 345Q142 345 107 359T52 396T30 439V441Q30 448 36 453T47 458H132Q140 458 146 456T157 450Q165 445 171 443T188 440Q204 440 213 445T222 465Q222 478 213 484T188 490H133Q123 490 117 496T111 512V535Q111
546 122 557L175 605H73Q63 605 57 611T51 627V678Q51 688 57 694T73 700H298Q308 700 314 694T320 678V634Q320 625 317 620ZM716 350Q726 350 732 344T738 328V152H773Q783 152 789 146T795 130V79Q795 69 789 63T773 57H738V22Q738 12 732 6T716 0H644Q634 0
628 6T622 22V57H464Q454 57 448 63T442 79V129Q442 143 454 159L588 332Q601 350 618 350H716ZM624 152V232L562 152H624Z" />
<glyph unicode="&#xbf;" glyph-name="questiondown" horiz-adv-x="599" d="M210 504T218 512T237 520H363Q374 520 382 512T390 493V392Q390 381 382 373T363 365H237Q226 365 218 373T210 392V493Q210 504 218 512ZM27 55T42 85T77 136T133 186Q169 215 187 234T212
278Q219 305 239 305H361Q372 305 380 297T388 278Q388 243 373 215T336 167T280 118Q243 89 225 70T207 27Q207 -2 229 -18T297 -35Q331 -35 350 -27T379 -7T397 21Q403 36 410 43T431 51H553Q562 51 568 45T575 29Q574 -20 540 -71T443 -156T297 -190Q223 -190
161 -164T63 -90T27 16Q27 55 42 85Z" />
<glyph unicode="&#xc0;" glyph-name="Agrave" horiz-adv-x="718" d="M703 37Q707 27 707 22Q707 13 701 7T685 0H559Q542 0 533 7T520 25L492 108H226L198 25Q195 15 186 8T159 0H33Q24 0 18 6T11 22Q11 27 15 37L233 667Q238 681 249 690T278 700H440Q458 700
469 691T485 667L703 37ZM440 263L359 503L278 263H440ZM440 774T440 766Q440 750 424 750H326Q312 750 304 754T284 767L149 878Q144 883 144 890Q144 899 149 904T163 910H306Q318 910 325 907T343 891L435 779Q440 774 440 766Z" />
<glyph unicode="&#xc1;" glyph-name="Aacute" horiz-adv-x="718" d="M703 37Q707 27 707 22Q707 13 701 7T685 0H559Q542 0 533 7T520 25L492 108H226L198 25Q195 15 186 8T159 0H33Q24 0 18 6T11 22Q11 27 15 37L233 667Q238 681 249 690T278 700H440Q458 700
469 691T485 667L703 37ZM440 263L359 503L278 263H440ZM388 903T395 906T414 910H557Q566 910 571 905T576 890Q576 883 571 878L436 767Q425 758 417 754T394 750H296Q280 750 280 766Q280 774 285 779L377 891Q388 903 395 906Z" />
<glyph unicode="&#xc2;" glyph-name="Acircumflex" horiz-adv-x="718" d="M703 37Q707 27 707 22Q707 13 701 7T685 0H559Q542 0 533 7T520 25L492 108H226L198 25Q195 15 186 8T159 0H33Q24 0 18 6T11 22Q11 27 15 37L233 667Q238 681 249 690T278 700H440Q458
700 469 691T485 667L703 37ZM440 263L359 503L278 263H440ZM419 910T427 906T445 891L547 779Q552 774 552 766Q552 750 536 750H464Q455 750 448 753T433 761L359 804L285 761Q277 756 270 753T254 750H182Q166 750 166 766Q166 774 171 779L273 891Q283 902
291 906T310 910H408Q419 910 427 906Z" />
<glyph unicode="&#xc3;" glyph-name="Atilde" horiz-adv-x="718" d="M703 37Q707 27 707 22Q707 13 701 7T685 0H559Q542 0 533 7T520 25L492 108H226L198 25Q195 15 186 8T159 0H33Q24 0 18 6T11 22Q11 27 15 37L233 667Q238 681 249 690T278 700H440Q458 700
469 691T485 667L703 37ZM440 263L359 503L278 263H440ZM292 790T286 785T274 767Q269 759 265 755T255 750H179Q170 750 165 755T160 769Q160 801 172 832T210 884T272 905Q304 905 324 898T367 877Q381 868 391 864T414 860Q426 860 432 865T444 883Q449 891
453 895T463 900H539Q548 900 553 895T558 881Q558 850 544 819T504 766T446 745Q414 745 394 752T351 773Q337 782 327 786T304 790Q292 790 286 785Z" />
<glyph unicode="&#xc4;" glyph-name="Adieresis" horiz-adv-x="718" d="M703 37Q707 27 707 22Q707 13 701 7T685 0H559Q542 0 533 7T520 25L492 108H226L198 25Q195 15 186 8T159 0H33Q24 0 18 6T11 22Q11 27 15 37L233 667Q238 681 249 690T278 700H440Q458
700 469 691T485 667L703 37ZM440 263L359 503L278 263H440ZM309 766T301 758T282 750H181Q170 750 162 758T154 777V878Q154 889 162 897T181 905H282Q293 905 301 897T309 878V777Q309 766 301 758ZM564 766T556 758T537 750H436Q425 750 417 758T409 777V878Q409
889 417 897T436 905H537Q548 905 556 897T564 878V777Q564 766 556 758Z" />
<glyph unicode="&#xc5;" glyph-name="Aring" horiz-adv-x="718" d="M703 37Q707 27 707 22Q707 13 701 7T685 0H559Q542 0 533 7T520 25L492 108H226L198 25Q195 15 186 8T159 0H33Q24 0 18 6T11 22Q11 27 15 37L233 667Q238 681 249 690T278 700H440Q458 700
469 691T485 667L703 37ZM440 263L359 503L278 263H440ZM399 920T426 895T454 830Q454 791 427 766T359 740Q319 740 292 765T264 830Q264 869 291 894T359 920Q399 920 426 895ZM372 800T380 808T389 830Q389 843 381 851T359 860Q346 860 338 852T329 830Q329
817 337 809T359 800Q372 800 380 808Z" />
<glyph unicode="&#xc6;" glyph-name="AE" horiz-adv-x="1014" d="M945 700T953 692T961 673V567Q961 556 953 548T934 540H626V432H912Q923 432 931 424T939 405V299Q939 288 931 280T912 272H626V160H942Q953 160 961 152T969 133V27Q969 16 961 8T942 0H468Q457
0 449 8T441 27V108H232L195 25Q180 0 156 0H28Q17 0 9 8T1 27Q1 32 5 39L286 667Q295 683 304 691T331 700H934Q945 700 953 692ZM441 263V540H424L301 263H441Z" />
<glyph unicode="&#xc7;" glyph-name="Ccedilla" horiz-adv-x="702" d="M235 214T264 182T357 150Q417 150 444 173T482 229Q488 246 494 252T516 258H647Q656 258 662 252T669 236Q668 169 627 113T516 23T359 -10L338 -54Q354 -44 375 -44Q412 -44 431 -69T451
-132Q451 -169 424 -194T352 -220Q325 -220 298 -207T270 -179Q270 -173 275 -169L293 -153Q301 -145 308 -145Q312 -145 324 -152T352 -159Q385 -159 385 -132Q385 -105 352 -105Q346 -105 333 -108T313 -112Q304 -112 298 -106L280 -85Q277 -81 275 -78T272 -70Q272
-64 278 -52L300 -6Q224 5 168 43T80 137T46 261Q44 309 44 340Q44 377 46 439Q49 514 87 575T194 673T357 710Q443 710 514 677T626 588T669 464Q669 455 663 449T647 442H516Q500 442 494 448T482 471Q471 504 444 527T357 550Q294 550 265 518T231 434Q229 400
229 350Q229 302 231 266Q235 214 264 182Z" />
<glyph unicode="&#xc8;" glyph-name="Egrave" horiz-adv-x="643" d="M255 272H541Q552 272 560 280T568 299V405Q568 416 560 424T541 432H255V540H563Q574 540 582 548T590 567V673Q590 684 582 692T563 700H97Q86 700 78 692T70 673V27Q70 16 78 8T97 0H571Q582
0 590 8T598 27V133Q598 144 590 152T571 160H255V272ZM410 774T410 766Q410 750 394 750H296Q282 750 274 754T254 767L119 878Q114 883 114 890Q114 899 119 904T133 910H276Q288 910 295 907T313 891L405 779Q410 774 410 766Z" />
<glyph unicode="&#xc9;" glyph-name="Eacute" horiz-adv-x="643" d="M255 272H541Q552 272 560 280T568 299V405Q568 416 560 424T541 432H255V540H563Q574 540 582 548T590 567V673Q590 684 582 692T563 700H97Q86 700 78 692T70 673V27Q70 16 78 8T97 0H571Q582
0 590 8T598 27V133Q598 144 590 152T571 160H255V272ZM365 903T372 906T391 910H534Q543 910 548 905T553 890Q553 883 548 878L413 767Q402 758 394 754T371 750H273Q257 750 257 766Q257 774 262 779L354 891Q365 903 372 906Z" />
<glyph unicode="&#xca;" glyph-name="Ecircumflex" horiz-adv-x="643" d="M255 272H541Q552 272 560 280T568 299V405Q568 416 560 424T541 432H255V540H563Q574 540 582 548T590 567V673Q590 684 582 692T563 700H97Q86 700 78 692T70 673V27Q70 16 78 8T97 0H571Q582
0 590 8T598 27V133Q598 144 590 152T571 160H255V272ZM394 910T402 906T420 891L522 779Q527 774 527 766Q527 750 511 750H439Q430 750 423 753T408 761L334 804L260 761Q252 756 245 753T229 750H157Q141 750 141 766Q141 774 146 779L248 891Q258 902 266 906T285
910H383Q394 910 402 906Z" />
<glyph unicode="&#xcb;" glyph-name="Edieresis" horiz-adv-x="643" d="M255 272H541Q552 272 560 280T568 299V405Q568 416 560 424T541 432H255V540H563Q574 540 582 548T590 567V673Q590 684 582 692T563 700H97Q86 700 78 692T70 673V27Q70 16 78 8T97 0H571Q582
0 590 8T598 27V133Q598 144 590 152T571 160H255V272ZM284 766T276 758T257 750H156Q145 750 137 758T129 777V878Q129 889 137 897T156 905H257Q268 905 276 897T284 878V777Q284 766 276 758ZM539 766T531 758T512 750H411Q400 750 392 758T384 777V878Q384
889 392 897T411 905H512Q523 905 531 897T539 878V777Q539 766 531 758Z" />
<glyph unicode="&#xcc;" glyph-name="Igrave" horiz-adv-x="325" d="M86 0T78 8T70 27V673Q70 684 78 692T97 700H228Q239 700 247 692T255 673V27Q255 16 247 8T228 0H97Q86 0 78 8ZM495 774T495 766Q495 750 479 750H381Q367 750 359 754T339 767L204 878Q199
883 199 890Q199 899 204 904T218 910H361Q373 910 380 907T398 891L490 779Q495 774 495 766Z" />
<glyph unicode="&#xcd;" glyph-name="Iacute" horiz-adv-x="325" d="M86 0T78 8T70 27V673Q70 684 78 692T97 700H228Q239 700 247 692T255 673V27Q255 16 247 8T228 0H97Q86 0 78 8ZM193 903T200 906T219 910H362Q371 910 376 905T381 890Q381 883 376 878L241
767Q230 758 222 754T199 750H101Q85 750 85 766Q85 774 90 779L182 891Q193 903 200 906Z" />
<glyph unicode="&#xce;" glyph-name="Icircumflex" horiz-adv-x="325" d="M86 0T78 8T70 27V673Q70 684 78 692T97 700H228Q239 700 247 692T255 673V27Q255 16 247 8T228 0H97Q86 0 78 8ZM478 910T486 906T504 891L606 779Q611 774 611 766Q611 750 595 750H523Q514
750 507 753T492 761L418 804L344 761Q336 756 329 753T313 750H241Q225 750 225 766Q225 774 230 779L332 891Q342 902 350 906T369 910H467Q478 910 486 906Z" />
<glyph unicode="&#xcf;" glyph-name="Idieresis" horiz-adv-x="325" d="M86 0T78 8T70 27V673Q70 684 78 692T97 700H228Q239 700 247 692T255 673V27Q255 16 247 8T228 0H97Q86 0 78 8ZM368 766T360 758T341 750H240Q229 750 221 758T213 777V878Q213 889 221
897T240 905H341Q352 905 360 897T368 878V777Q368 766 360 758ZM623 766T615 758T596 750H495Q484 750 476 758T468 777V878Q468 889 476 897T495 905H596Q607 905 615 897T623 878V777Q623 766 615 758Z" />
<glyph unicode="&#xd0;" glyph-name="Eth" horiz-adv-x="755" d="M712 365T712 349Q712 333 710 279Q707 197 668 134T559 36T399 0H129Q118 0 110 8T102 27V284H49Q38 284 30 292T22 311V397Q22 408 30 416T49 424H102V673Q102 684 110 692T129 700H394Q485 700
555 665T666 566T710 421Q712 365 712 349ZM287 540V424H362Q373 424 381 416T389 397V311Q389 300 381 292T362 284H287V160H394Q520 160 525 275Q527 333 527 351Q527 371 525 425Q522 482 488 511T389 540H287Z" />
<glyph unicode="&#xd1;" glyph-name="Ntilde" horiz-adv-x="726" d="M510 0T499 7T484 23L255 365V27Q255 16 247 8T228 0H97Q86 0 78 8T70 27V673Q70 684 78 692T97 700H201Q216 700 227 693T242 677L471 335V673Q471 684 479 692T498 700H629Q640 700 648 692T656
673V27Q656 16 648 8T629 0H525Q510 0 499 7ZM296 790T290 785T278 767Q273 759 269 755T259 750H183Q174 750 169 755T164 769Q164 801 176 832T214 884T276 905Q308 905 328 898T371 877Q385 868 395 864T418 860Q430 860 436 865T448 883Q453 891 457 895T467
900H543Q552 900 557 895T562 881Q562 850 548 819T508 766T450 745Q418 745 398 752T355 773Q341 782 331 786T308 790Q296 790 290 785Z" />
<glyph unicode="&#xd2;" glyph-name="Ograve" horiz-adv-x="718" d="M454 710T523 674T629 577T671 439Q673 411 673 349Q673 288 671 261Q667 185 630 124T523 26T359 -10Q264 -10 195 26T89 123T47 261Q45 315 45 349Q45 383 47 439Q51 515 88 576T195 674T359
710Q454 710 523 674ZM481 487T450 518T359 550Q300 550 269 519T232 434Q229 401 229 351Q229 302 232 266Q237 213 268 182T359 150Q418 150 449 181T486 266Q489 302 489 351Q489 401 486 434Q481 487 450 518ZM428 774T428 766Q428 750 412 750H314Q300 750
292 754T272 767L137 878Q132 883 132 890Q132 899 137 904T151 910H294Q306 910 313 907T331 891L423 779Q428 774 428 766Z" />
<glyph unicode="&#xd3;" glyph-name="Oacute" horiz-adv-x="718" d="M454 710T523 674T629 577T671 439Q673 411 673 349Q673 288 671 261Q667 185 630 124T523 26T359 -10Q264 -10 195 26T89 123T47 261Q45 315 45 349Q45 383 47 439Q51 515 88 576T195 674T359
710Q454 710 523 674ZM481 487T450 518T359 550Q300 550 269 519T232 434Q229 401 229 351Q229 302 232 266Q237 213 268 182T359 150Q418 150 449 181T486 266Q489 302 489 351Q489 401 486 434Q481 487 450 518ZM384 903T391 906T410 910H553Q562 910 567 905T572
890Q572 883 567 878L432 767Q421 758 413 754T390 750H292Q276 750 276 766Q276 774 281 779L373 891Q384 903 391 906Z" />
<glyph unicode="&#xd4;" glyph-name="Ocircumflex" horiz-adv-x="718" d="M454 710T523 674T629 577T671 439Q673 411 673 349Q673 288 671 261Q667 185 630 124T523 26T359 -10Q264 -10 195 26T89 123T47 261Q45 315 45 349Q45 383 47 439Q51 515 88 576T195
674T359 710Q454 710 523 674ZM481 487T450 518T359 550Q300 550 269 519T232 434Q229 401 229 351Q229 302 232 266Q237 213 268 182T359 150Q418 150 449 181T486 266Q489 302 489 351Q489 401 486 434Q481 487 450 518ZM419 910T427 906T445 891L547 779Q552
774 552 766Q552 750 536 750H464Q455 750 448 753T433 761L359 804L285 761Q277 756 270 753T254 750H182Q166 750 166 766Q166 774 171 779L273 891Q283 902 291 906T310 910H408Q419 910 427 906Z" />
<glyph unicode="&#xd5;" glyph-name="Otilde" horiz-adv-x="718" d="M454 710T523 674T629 577T671 439Q673 411 673 349Q673 288 671 261Q667 185 630 124T523 26T359 -10Q264 -10 195 26T89 123T47 261Q45 315 45 349Q45 383 47 439Q51 515 88 576T195 674T359
710Q454 710 523 674ZM481 487T450 518T359 550Q300 550 269 519T232 434Q229 401 229 351Q229 302 232 266Q237 213 268 182T359 150Q418 150 449 181T486 266Q489 302 489 351Q489 401 486 434Q481 487 450 518ZM292 790T286 785T274 767Q269 759 265 755T255
750H179Q170 750 165 755T160 769Q160 801 172 832T210 884T272 905Q304 905 324 898T367 877Q381 868 391 864T414 860Q426 860 432 865T444 883Q449 891 453 895T463 900H539Q548 900 553 895T558 881Q558 850 544 819T504 766T446 745Q414 745 394 752T351 773Q337
782 327 786T304 790Q292 790 286 785Z" />
<glyph unicode="&#xd6;" glyph-name="Odieresis" horiz-adv-x="718" d="M454 710T523 674T629 577T671 439Q673 411 673 349Q673 288 671 261Q667 185 630 124T523 26T359 -10Q264 -10 195 26T89 123T47 261Q45 315 45 349Q45 383 47 439Q51 515 88 576T195 674T359
710Q454 710 523 674ZM481 487T450 518T359 550Q300 550 269 519T232 434Q229 401 229 351Q229 302 232 266Q237 213 268 182T359 150Q418 150 449 181T486 266Q489 302 489 351Q489 401 486 434Q481 487 450 518ZM309 766T301 758T282 750H181Q170 750 162 758T154
777V878Q154 889 162 897T181 905H282Q293 905 301 897T309 878V777Q309 766 301 758ZM564 766T556 758T537 750H436Q425 750 417 758T409 777V878Q409 889 417 897T436 905H537Q548 905 556 897T564 878V777Q564 766 556 758Z" />
<glyph unicode="&#xd7;" glyph-name="multiply" horiz-adv-x="622" d="M55 462Q47 472 47 481Q47 492 55 500L144 589Q151 597 163 597Q175 597 182 589L311 459L440 588Q448 596 459 596Q471 596 478 588L567 499Q575 492 575 480Q575 469 567 461L438 332L567
204Q575 197 575 185Q575 173 567 166L478 77Q470 69 459 69Q450 69 440 77L311 205L182 76Q174 68 163 68Q152 68 144 76L55 165Q47 175 47 184Q47 195 55 203L184 332L55 462Z" />
<glyph unicode="&#xd8;" glyph-name="Oslash" horiz-adv-x="756" d="M493 710T569 658T675 519L710 533Q718 536 721 536Q730 536 736 530T742 515V457Q742 444 737 437T720 424L691 413Q692 394 692 354Q692 317 690 261Q686 185 649 124T542 26T378 -10Q263
-10 187 41T81 178L46 165Q39 162 35 162Q26 162 20 168T14 183V241Q14 255 19 262T36 274L64 285Q63 302 63 339Q63 391 66 439Q70 515 107 576T214 674T378 710Q493 710 569 658ZM502 453Q493 498 463 524T378 550Q319 550 288 519T251 434Q248 401 248 355L502
453ZM254 245Q263 201 294 176T378 150Q437 150 468 181T505 266Q508 298 508 342L254 245Z" />
<glyph unicode="&#xd9;" glyph-name="Ugrave" horiz-adv-x="734" d="M655 700T663 692T671 673V274Q671 184 633 120T527 23T367 -10Q275 -10 207 23T101 120T63 274V673Q63 684 71 692T90 700H221Q232 700 240 692T248 673V278Q248 217 278 184T367 150Q425 150
455 183T486 278V673Q486 684 494 692T513 700H644Q655 700 663 692ZM449 774T449 766Q449 750 433 750H335Q321 750 313 754T293 767L158 878Q153 883 153 890Q153 899 158 904T172 910H315Q327 910 334 907T352 891L444 779Q449 774 449 766Z" />
<glyph unicode="&#xda;" glyph-name="Uacute" horiz-adv-x="734" d="M655 700T663 692T671 673V274Q671 184 633 120T527 23T367 -10Q275 -10 207 23T101 120T63 274V673Q63 684 71 692T90 700H221Q232 700 240 692T248 673V278Q248 217 278 184T367 150Q425 150
455 183T486 278V673Q486 684 494 692T513 700H644Q655 700 663 692ZM392 903T399 906T418 910H561Q570 910 575 905T580 890Q580 883 575 878L440 767Q429 758 421 754T398 750H300Q284 750 284 766Q284 774 289 779L381 891Q392 903 399 906Z" />
<glyph unicode="&#xdb;" glyph-name="Ucircumflex" horiz-adv-x="734" d="M655 700T663 692T671 673V274Q671 184 633 120T527 23T367 -10Q275 -10 207 23T101 120T63 274V673Q63 684 71 692T90 700H221Q232 700 240 692T248 673V278Q248 217 278 184T367 150Q425
150 455 183T486 278V673Q486 684 494 692T513 700H644Q655 700 663 692ZM427 910T435 906T453 891L555 779Q560 774 560 766Q560 750 544 750H472Q463 750 456 753T441 761L367 804L293 761Q285 756 278 753T262 750H190Q174 750 174 766Q174 774 179 779L281
891Q291 902 299 906T318 910H416Q427 910 435 906Z" />
<glyph unicode="&#xdc;" glyph-name="Udieresis" horiz-adv-x="734" d="M655 700T663 692T671 673V274Q671 184 633 120T527 23T367 -10Q275 -10 207 23T101 120T63 274V673Q63 684 71 692T90 700H221Q232 700 240 692T248 673V278Q248 217 278 184T367 150Q425
150 455 183T486 278V673Q486 684 494 692T513 700H644Q655 700 663 692ZM317 766T309 758T290 750H189Q178 750 170 758T162 777V878Q162 889 170 897T189 905H290Q301 905 309 897T317 878V777Q317 766 309 758ZM572 766T564 758T545 750H444Q433 750 425 758T417
777V878Q417 889 425 897T444 905H545Q556 905 564 897T572 878V777Q572 766 564 758Z" />
<glyph unicode="&#xdd;" glyph-name="Yacute" horiz-adv-x="687" d="M436 16T428 8T409 0H278Q267 0 259 8T251 27V240L20 665Q16 672 16 678Q16 687 22 693T38 700H175Q192 700 202 692T217 675L343 429L470 675Q474 683 484 691T512 700H649Q658 700 664 694T671
678Q671 672 667 665L436 240V27Q436 16 428 8ZM371 903T378 906T397 910H540Q549 910 554 905T559 890Q559 883 554 878L419 767Q408 758 400 754T377 750H279Q263 750 263 766Q263 774 268 779L360 891Q371 903 378 906Z" />
<glyph unicode="&#xde;" glyph-name="Thorn" horiz-adv-x="688" d="M383 585Q513 585 586 526T660 351Q660 236 587 176T383 116H255V27Q255 16 247 8T228 0H97Q86 0 78 8T70 27V673Q70 684 78 692T97 700H228Q239 700 247 692T255 673V585H383ZM378 272Q422 272
448 291T475 351Q475 391 449 410T378 430H255V272H378Z" />
<glyph unicode="&#xdf;" glyph-name="germandbls" horiz-adv-x="660" d="M293 139T301 147T320 155H361Q401 155 425 171T450 219Q450 251 426 267T361 283H315Q305 283 299 289T293 305V416Q293 426 299 432T315 438H346Q383 438 406 452T430 496Q430 525 404
540T331 555Q282 555 258 532T233 451V27Q233 16 225 8T206 0H85Q74 0 66 8T58 27V451Q58 573 128 641T331 710Q418 710 479 681T572 604T603 496Q603 446 587 419T544 370Q575 349 600 311T625 219Q625 116 555 58T366 0H320Q309 0 301 8T293 27V128Q293 139 301
147Z" />
<glyph unicode="&#xe0;" glyph-name="agrave" horiz-adv-x="589" d="M356 340Q356 395 298 395Q265 395 244 377Q236 369 228 367T208 365H81Q71 365 65 371T59 387Q62 418 93 451T179 507T298 530Q417 530 476 476T536 330V27Q536 16 528 8T509 0H383Q372 0 364
8T356 27V55Q330 23 294 7T203 -10Q119 -10 72 34T24 148Q24 215 76 258T239 320L356 340ZM264 207Q236 202 220 190T204 159Q204 125 252 125Q296 125 326 153T356 221L264 207ZM369 619T369 611Q369 595 353 595H265Q251 595 243 599T223 612L88 723Q83 728 83
735Q83 744 88 749T102 755H235Q247 755 254 752T272 736L364 624Q369 619 369 611Z" />
<glyph unicode="&#xe1;" glyph-name="aacute" horiz-adv-x="589" d="M356 340Q356 395 298 395Q265 395 244 377Q236 369 228 367T208 365H81Q71 365 65 371T59 387Q62 418 93 451T179 507T298 530Q417 530 476 476T536 330V27Q536 16 528 8T509 0H383Q372 0 364
8T356 27V55Q330 23 294 7T203 -10Q119 -10 72 34T24 148Q24 215 76 258T239 320L356 340ZM264 207Q236 202 220 190T204 159Q204 125 252 125Q296 125 326 153T356 221L264 207ZM334 748T341 751T360 755H493Q502 755 507 750T512 735Q512 728 507 723L372 612Q361
603 353 599T330 595H242Q226 595 226 611Q226 619 231 624L323 736Q334 748 341 751Z" />
<glyph unicode="&#xe2;" glyph-name="acircumflex" horiz-adv-x="589" d="M356 340Q356 395 298 395Q265 395 244 377Q236 369 228 367T208 365H81Q71 365 65 371T59 387Q62 418 93 451T179 507T298 530Q417 530 476 476T536 330V27Q536 16 528 8T509 0H383Q372
0 364 8T356 27V55Q330 23 294 7T203 -10Q119 -10 72 34T24 148Q24 215 76 258T239 320L356 340ZM264 207Q236 202 220 190T204 159Q204 125 252 125Q296 125 326 153T356 221L264 207ZM345 755T353 751T371 736L473 624Q478 619 478 611Q478 595 462 595H395Q386
595 379 598T364 606L290 649L216 606Q208 601 201 598T185 595H118Q102 595 102 611Q102 619 107 624L209 736Q219 747 227 751T246 755H334Q345 755 353 751Z" />
<glyph unicode="&#xe3;" glyph-name="atilde" horiz-adv-x="589" d="M356 340Q356 395 298 395Q265 395 244 377Q236 369 228 367T208 365H81Q71 365 65 371T59 387Q62 418 93 451T179 507T298 530Q417 530 476 476T536 330V27Q536 16 528 8T509 0H383Q372 0 364
8T356 27V55Q330 23 294 7T203 -10Q119 -10 72 34T24 148Q24 215 76 258T239 320L356 340ZM264 207Q236 202 220 190T204 159Q204 125 252 125Q296 125 326 153T356 221L264 207ZM228 635T222 630T210 612Q205 604 201 600T191 595H115Q106 595 101 600T96 614Q96
646 108 677T146 729T208 750Q238 750 257 743T295 722Q308 713 318 709T340 705Q352 705 358 710T370 728Q375 736 379 740T389 745H465Q474 745 479 740T484 726Q484 695 470 664T430 611T372 590Q342 590 323 597T285 618Q272 627 262 631T240 635Q228 635 222
630Z" />
<glyph unicode="&#xe4;" glyph-name="adieresis" horiz-adv-x="589" d="M356 340Q356 395 298 395Q265 395 244 377Q236 369 228 367T208 365H81Q71 365 65 371T59 387Q62 418 93 451T179 507T298 530Q417 530 476 476T536 330V27Q536 16 528 8T509 0H383Q372
0 364 8T356 27V55Q330 23 294 7T203 -10Q119 -10 72 34T24 148Q24 215 76 258T239 320L356 340ZM264 207Q236 202 220 190T204 159Q204 125 252 125Q296 125 326 153T356 221L264 207ZM255 611T247 603T228 595H127Q116 595 108 603T100 622V723Q100 734 108 742T127
750H228Q239 750 247 742T255 723V622Q255 611 247 603ZM480 611T472 603T453 595H352Q341 595 333 603T325 622V723Q325 734 333 742T352 750H453Q464 750 472 742T480 723V622Q480 611 472 603Z" />
<glyph unicode="&#xe5;" glyph-name="aring" horiz-adv-x="589" d="M356 340Q356 395 298 395Q265 395 244 377Q236 369 228 367T208 365H81Q71 365 65 371T59 387Q62 418 93 451T179 507T298 530Q417 530 476 476T536 330V27Q536 16 528 8T509 0H383Q372 0 364
8T356 27V55Q330 23 294 7T203 -10Q119 -10 72 34T24 148Q24 215 76 258T239 320L356 340ZM264 207Q236 202 220 190T204 159Q204 125 252 125Q296 125 326 153T356 221L264 207ZM330 770T357 745T385 680Q385 641 358 616T290 590Q250 590 223 615T195 680Q195
719 222 744T290 770Q330 770 357 745ZM303 650T311 658T320 680Q320 693 312 701T290 710Q277 710 269 702T260 680Q260 667 268 659T290 650Q303 650 311 658Z" />
<glyph unicode="&#xe6;" glyph-name="ae" horiz-adv-x="929" d="M536 161T563 143T626 125Q654 125 672 131T703 148Q714 157 719 159T736 162H866Q876 162 882 156T888 140Q888 120 858 84T769 19T626 -10Q495 -10 423 65Q384 26 339 8T223 -10Q126 -10 75 33T24
148Q24 215 76 258T239 320L356 340Q356 395 298 395Q265 395 244 377Q236 369 228 367T208 365H81Q71 365 65 371T59 387Q62 418 93 451T179 507T298 530Q401 530 464 485Q529 530 626 530Q719 530 779 491T868 389T896 258V230Q896 219 888 211T869 203H536Q536
161 563 143ZM716 314Q712 348 689 371T626 395Q587 395 564 372T536 314H716ZM264 207Q236 202 220 190T204 159Q204 125 252 125Q296 125 326 153T356 221L264 207Z" />
<glyph unicode="&#xe7;" glyph-name="ccedilla" horiz-adv-x="602" d="M220 189T244 167T308 145Q339 145 357 154T387 181Q393 191 399 196T416 201H547Q558 201 566 194T574 176Q574 147 549 104T465 25T308 -10H305L284 -54Q300 -44 321 -44Q358 -44 377 -69T397
-132Q397 -169 370 -194T298 -220Q271 -220 244 -207T216 -179Q216 -173 221 -169L239 -153Q247 -145 254 -145Q258 -145 270 -152T298 -159Q331 -159 331 -132Q331 -105 298 -105Q292 -105 279 -108T259 -112Q250 -112 244 -106L226 -85Q223 -81 221 -78T218 -70Q218
-64 224 -52L247 -4Q156 11 98 71T37 220L36 260L37 300Q39 369 75 421T172 501T308 530Q404 530 463 496T547 419T574 346Q575 335 567 327T547 319H416Q406 319 400 324T387 339Q375 357 357 366T308 375Q269 375 245 353T217 295Q216 285 216 260Q216 235 217
225Q220 189 244 167Z" />
<glyph unicode="&#xe8;" glyph-name="egrave" horiz-adv-x="607" d="M214 161T241 143T304 125Q332 125 350 131T381 148Q392 157 397 159T414 162H544Q554 162 560 156T566 140Q566 120 536 84T447 19T304 -10Q175 -10 105 61T34 260Q34 339 65 400T158 495T304
530Q397 530 457 491T546 389T574 258V230Q574 219 566 211T547 203H214Q214 161 241 143ZM394 314Q390 348 367 371T304 395Q265 395 242 372T214 314H394ZM374 619T374 611Q374 595 358 595H270Q256 595 248 599T228 612L93 723Q88 728 88 735Q88 744 93 749T107
755H240Q252 755 259 752T277 736L369 624Q374 619 374 611Z" />
<glyph unicode="&#xe9;" glyph-name="eacute" horiz-adv-x="607" d="M214 161T241 143T304 125Q332 125 350 131T381 148Q392 157 397 159T414 162H544Q554 162 560 156T566 140Q566 120 536 84T447 19T304 -10Q175 -10 105 61T34 260Q34 339 65 400T158 495T304
530Q397 530 457 491T546 389T574 258V230Q574 219 566 211T547 203H214Q214 161 241 143ZM394 314Q390 348 367 371T304 395Q265 395 242 372T214 314H394ZM336 748T343 751T362 755H495Q504 755 509 750T514 735Q514 728 509 723L374 612Q363 603 355 599T332
595H244Q228 595 228 611Q228 619 233 624L325 736Q336 748 343 751Z" />
<glyph unicode="&#xea;" glyph-name="ecircumflex" horiz-adv-x="607" d="M214 161T241 143T304 125Q332 125 350 131T381 148Q392 157 397 159T414 162H544Q554 162 560 156T566 140Q566 120 536 84T447 19T304 -10Q175 -10 105 61T34 260Q34 339 65 400T158
495T304 530Q397 530 457 491T546 389T574 258V230Q574 219 566 211T547 203H214Q214 161 241 143ZM394 314Q390 348 367 371T304 395Q265 395 242 372T214 314H394ZM359 755T367 751T385 736L487 624Q492 619 492 611Q492 595 476 595H409Q400 595 393 598T378
606L304 649L230 606Q222 601 215 598T199 595H132Q116 595 116 611Q116 619 121 624L223 736Q233 747 241 751T260 755H348Q359 755 367 751Z" />
<glyph unicode="&#xeb;" glyph-name="edieresis" horiz-adv-x="607" d="M214 161T241 143T304 125Q332 125 350 131T381 148Q392 157 397 159T414 162H544Q554 162 560 156T566 140Q566 120 536 84T447 19T304 -10Q175 -10 105 61T34 260Q34 339 65 400T158 495T304
530Q397 530 457 491T546 389T574 258V230Q574 219 566 211T547 203H214Q214 161 241 143ZM394 314Q390 348 367 371T304 395Q265 395 242 372T214 314H394ZM269 611T261 603T242 595H141Q130 595 122 603T114 622V723Q114 734 122 742T141 750H242Q253 750 261
742T269 723V622Q269 611 261 603ZM494 611T486 603T467 595H366Q355 595 347 603T339 622V723Q339 734 347 742T366 750H467Q478 750 486 742T494 723V622Q494 611 486 603Z" />
<glyph unicode="&#xec;" glyph-name="igrave" horiz-adv-x="296" d="M238 16T230 8T211 0H85Q74 0 66 8T58 27V493Q58 504 66 512T85 520H211Q222 520 230 512T238 493V27Q238 16 230 8ZM482 619T482 611Q482 595 466 595H378Q364 595 356 599T336 612L201 723Q196
728 196 735Q196 744 201 749T215 755H348Q360 755 367 752T385 736L477 624Q482 619 482 611Z" />
<glyph unicode="&#xed;" glyph-name="iacute" horiz-adv-x="296" d="M238 16T230 8T211 0H85Q74 0 66 8T58 27V493Q58 504 66 512T85 520H211Q222 520 230 512T238 493V27Q238 16 230 8ZM183 748T190 751T209 755H342Q351 755 356 750T361 735Q361 728 356 723L221
612Q210 603 202 599T179 595H91Q75 595 75 611Q75 619 80 624L172 736Q183 748 190 751Z" />
<glyph unicode="&#xee;" glyph-name="icircumflex" horiz-adv-x="296" d="M238 16T230 8T211 0H85Q74 0 66 8T58 27V493Q58 504 66 512T85 520H211Q222 520 230 512T238 493V27Q238 16 230 8ZM459 755T467 751T485 736L587 624Q592 619 592 611Q592 595 576 595H509Q500
595 493 598T478 606L404 649L330 606Q322 601 315 598T299 595H232Q216 595 216 611Q216 619 221 624L323 736Q333 747 341 751T360 755H448Q459 755 467 751Z" />
<glyph unicode="&#xef;" glyph-name="idieresis" horiz-adv-x="296" d="M238 16T230 8T211 0H85Q74 0 66 8T58 27V493Q58 504 66 512T85 520H211Q222 520 230 512T238 493V27Q238 16 230 8ZM369 611T361 603T342 595H241Q230 595 222 603T214 622V723Q214 734
222 742T241 750H342Q353 750 361 742T369 723V622Q369 611 361 603ZM594 611T586 603T567 595H466Q455 595 447 603T439 622V723Q439 734 447 742T466 750H567Q578 750 586 742T594 723V622Q594 611 586 603Z" />
<glyph unicode="&#xf0;" glyph-name="eth" horiz-adv-x="592" d="M217 -10T159 17T67 98T32 230Q32 308 66 362T158 443T288 470Q302 470 328 468Q314 499 290 531L197 494Q190 491 186 491Q177 491 171 497T165 512V560Q165 574 170 581T187 593L218 605Q200
621 155 658Q138 671 138 680Q138 689 143 694T158 700H314Q334 700 350 687Q372 668 373 667L449 697Q457 700 460 700Q469 700 475 694T481 679V631Q481 618 476 611T459 598L446 593Q501 527 527 444T554 230Q554 152 518 98T421 17T289 -10Q217 -10 159 17ZM364
145T364 230Q364 315 288 315Q212 315 212 230Q212 145 288 145Q364 145 364 230Z" />
<glyph unicode="&#xf1;" glyph-name="ntilde" horiz-adv-x="644" d="M591 16T583 8T564 0H438Q427 0 419 8T411 27V280Q411 324 390 349T324 375Q281 375 260 350T238 280V27Q238 16 230 8T211 0H85Q74 0 66 8T58 27V493Q58 504 66 512T85 520H206Q217 520 225
512T233 493V470Q280 530 374 530Q475 530 533 473T591 302V27Q591 16 583 8ZM262 635T256 630T244 612Q239 604 235 600T225 595H149Q140 595 135 600T130 614Q130 646 142 677T180 729T242 750Q272 750 291 743T329 722Q342 713 352 709T374 705Q386 705 392
710T404 728Q409 736 413 740T423 745H499Q508 745 513 740T518 726Q518 695 504 664T464 611T406 590Q376 590 357 597T319 618Q306 627 296 631T274 635Q262 635 256 630Z" />
<glyph unicode="&#xf2;" glyph-name="ograve" horiz-adv-x="616" d="M577 157T543 105T448 21T308 -10Q229 -10 168 21T73 104T36 221L35 260L36 298Q38 362 72 415T167 499T308 530Q387 530 448 499T544 415T580 298Q581 288 581 260Q581 231 580 221Q577 157
543 105ZM348 145T372 166T400 226Q402 246 402 260Q402 274 400 294Q397 332 373 353T308 375Q268 375 244 354T216 294Q215 284 215 260Q215 236 216 226Q219 188 243 167T308 145Q348 145 372 166ZM388 619T388 611Q388 595 372 595H284Q270 595 262 599T242
612L107 723Q102 728 102 735Q102 744 107 749T121 755H254Q266 755 273 752T291 736L383 624Q388 619 388 611Z" />
<glyph unicode="&#xf3;" glyph-name="oacute" horiz-adv-x="616" d="M577 157T543 105T448 21T308 -10Q229 -10 168 21T73 104T36 221L35 260L36 298Q38 362 72 415T167 499T308 530Q387 530 448 499T544 415T580 298Q581 288 581 260Q581 231 580 221Q577 157
543 105ZM348 145T372 166T400 226Q402 246 402 260Q402 274 400 294Q397 332 373 353T308 375Q268 375 244 354T216 294Q215 284 215 260Q215 236 216 226Q219 188 243 167T308 145Q348 145 372 166ZM342 748T349 751T368 755H501Q510 755 515 750T520 735Q520
728 515 723L380 612Q369 603 361 599T338 595H250Q234 595 234 611Q234 619 239 624L331 736Q342 748 349 751Z" />
<glyph unicode="&#xf4;" glyph-name="ocircumflex" horiz-adv-x="616" d="M577 157T543 105T448 21T308 -10Q229 -10 168 21T73 104T36 221L35 260L36 298Q38 362 72 415T167 499T308 530Q387 530 448 499T544 415T580 298Q581 288 581 260Q581 231 580 221Q577
157 543 105ZM348 145T372 166T400 226Q402 246 402 260Q402 274 400 294Q397 332 373 353T308 375Q268 375 244 354T216 294Q215 284 215 260Q215 236 216 226Q219 188 243 167T308 145Q348 145 372 166ZM363 755T371 751T389 736L491 624Q496 619 496 611Q496
595 480 595H413Q404 595 397 598T382 606L308 649L234 606Q226 601 219 598T203 595H136Q120 595 120 611Q120 619 125 624L227 736Q237 747 245 751T264 755H352Q363 755 371 751Z" />
<glyph unicode="&#xf5;" glyph-name="otilde" horiz-adv-x="616" d="M577 157T543 105T448 21T308 -10Q229 -10 168 21T73 104T36 221L35 260L36 298Q38 362 72 415T167 499T308 530Q387 530 448 499T544 415T580 298Q581 288 581 260Q581 231 580 221Q577 157
543 105ZM348 145T372 166T400 226Q402 246 402 260Q402 274 400 294Q397 332 373 353T308 375Q268 375 244 354T216 294Q215 284 215 260Q215 236 216 226Q219 188 243 167T308 145Q348 145 372 166ZM246 635T240 630T228 612Q223 604 219 600T209 595H133Q124
595 119 600T114 614Q114 646 126 677T164 729T226 750Q256 750 275 743T313 722Q326 713 336 709T358 705Q370 705 376 710T388 728Q393 736 397 740T407 745H483Q492 745 497 740T502 726Q502 695 488 664T448 611T390 590Q360 590 341 597T303 618Q290 627 280
631T258 635Q246 635 240 630Z" />
<glyph unicode="&#xf6;" glyph-name="odieresis" horiz-adv-x="616" d="M577 157T543 105T448 21T308 -10Q229 -10 168 21T73 104T36 221L35 260L36 298Q38 362 72 415T167 499T308 530Q387 530 448 499T544 415T580 298Q581 288 581 260Q581 231 580 221Q577
157 543 105ZM348 145T372 166T400 226Q402 246 402 260Q402 274 400 294Q397 332 373 353T308 375Q268 375 244 354T216 294Q215 284 215 260Q215 236 216 226Q219 188 243 167T308 145Q348 145 372 166ZM273 611T265 603T246 595H145Q134 595 126 603T118 622V723Q118
734 126 742T145 750H246Q257 750 265 742T273 723V622Q273 611 265 603ZM498 611T490 603T471 595H370Q359 595 351 603T343 622V723Q343 734 351 742T370 750H471Q482 750 490 742T498 723V622Q498 611 490 603Z" />
<glyph unicode="&#xf7;" glyph-name="divide" horiz-adv-x="527" d="M336 586T344 578T352 559V445Q352 434 344 426T325 418H201Q190 418 182 426T174 445V559Q174 570 182 578T201 586H325Q336 586 344 578ZM55 223T47 231T39 250V351Q39 362 47 370T66 378H461Q472
378 480 370T488 351V250Q488 239 480 231T461 223H66Q55 223 47 231ZM336 182T344 174T352 155V41Q352 30 344 22T325 14H201Q190 14 182 22T174 41V155Q174 166 182 174T201 182H325Q336 182 344 174Z" />
<glyph unicode="&#xf8;" glyph-name="oslash" horiz-adv-x="654" d="M55 221L54 260L55 298Q57 362 91 415T186 499T327 530Q408 530 470 498T566 409L613 427Q621 430 624 430Q633 430 639 424T645 409V351Q645 338 640 331T623 318L598 308Q599 305 599 298Q600
288 600 260Q600 231 599 221Q596 157 562 105T467 21T327 -10Q244 -10 182 23T87 112L41 94Q34 91 30 91Q21 91 15 97T9 112V170Q9 184 14 191T31 203L55 212V221ZM374 375T327 375Q286 375 261 351T234 281L399 345Q374 375 327 375ZM278 145T327 145Q369 145
394 169T420 240L253 176Q278 145 327 145Z" />
<glyph unicode="&#xf9;" glyph-name="ugrave" horiz-adv-x="634" d="M53 504T61 512T80 520H206Q217 520 225 512T233 493V240Q233 195 253 170T315 145Q396 145 396 240V493Q396 504 404 512T423 520H549Q560 520 568 512T576 493V27Q576 16 568 8T549 0H433Q422
0 414 8T406 27V50Q385 24 353 7T265 -10Q165 -10 109 47T53 218V493Q53 504 61 512ZM390 619T390 611Q390 595 374 595H286Q272 595 264 599T244 612L109 723Q104 728 104 735Q104 744 109 749T123 755H256Q268 755 275 752T293 736L385 624Q390 619 390 611Z"
/>
<glyph unicode="&#xfa;" glyph-name="uacute" horiz-adv-x="634" d="M53 504T61 512T80 520H206Q217 520 225 512T233 493V240Q233 195 253 170T315 145Q396 145 396 240V493Q396 504 404 512T423 520H549Q560 520 568 512T576 493V27Q576 16 568 8T549 0H433Q422
0 414 8T406 27V50Q385 24 353 7T265 -10Q165 -10 109 47T53 218V493Q53 504 61 512ZM353 748T360 751T379 755H512Q521 755 526 750T531 735Q531 728 526 723L391 612Q380 603 372 599T349 595H261Q245 595 245 611Q245 619 250 624L342 736Q353 748 360 751Z"
/>
<glyph unicode="&#xfb;" glyph-name="ucircumflex" horiz-adv-x="634" d="M53 504T61 512T80 520H206Q217 520 225 512T233 493V240Q233 195 253 170T315 145Q396 145 396 240V493Q396 504 404 512T423 520H549Q560 520 568 512T576 493V27Q576 16 568 8T549 0H433Q422
0 414 8T406 27V50Q385 24 353 7T265 -10Q165 -10 109 47T53 218V493Q53 504 61 512ZM369 755T377 751T395 736L497 624Q502 619 502 611Q502 595 486 595H419Q410 595 403 598T388 606L314 649L240 606Q232 601 225 598T209 595H142Q126 595 126 611Q126 619 131
624L233 736Q243 747 251 751T270 755H358Q369 755 377 751Z" />
<glyph unicode="&#xfc;" glyph-name="udieresis" horiz-adv-x="634" d="M53 504T61 512T80 520H206Q217 520 225 512T233 493V240Q233 195 253 170T315 145Q396 145 396 240V493Q396 504 404 512T423 520H549Q560 520 568 512T576 493V27Q576 16 568 8T549 0H433Q422
0 414 8T406 27V50Q385 24 353 7T265 -10Q165 -10 109 47T53 218V493Q53 504 61 512ZM279 611T271 603T252 595H151Q140 595 132 603T124 622V723Q124 734 132 742T151 750H252Q263 750 271 742T279 723V622Q279 611 271 603ZM504 611T496 603T477 595H376Q365
595 357 603T349 622V723Q349 734 357 742T376 750H477Q488 750 496 742T504 723V622Q504 611 496 603Z" />
<glyph unicode="&#xfd;" glyph-name="yacute" horiz-adv-x="626" d="M320 -190T300 -190H169Q159 -190 152 -183T145 -166Q145 -162 146 -159L222 20L20 489Q19 492 19 496Q19 506 26 513T43 520H174Q194 520 203 496L314 236L424 496Q433 520 453 520H585Q595
520 602 513T609 496Q609 492 608 489L329 -166Q320 -190 300 -190ZM341 748T348 751T367 755H500Q509 755 514 750T519 735Q519 728 514 723L379 612Q368 603 360 599T337 595H249Q233 595 233 611Q233 619 238 624L330 736Q341 748 348 751Z" />
<glyph unicode="&#xfe;" glyph-name="thorn" horiz-adv-x="635" d="M239 -163Q239 -174 231 -182T212 -190H86Q75 -190 67 -182T59 -163V683Q59 694 67 702T86 710H212Q223 710 231 702T239 683V470Q260 497 290 513T373 530Q468 530 530 472T597 301Q598 291
598 261Q598 230 597 220Q593 107 531 49T373 -10Q321 -10 289 8T239 50V-163ZM415 327T394 351T328 375Q287 375 266 352T239 295Q237 275 237 260Q237 245 239 225Q243 192 265 169T328 145Q372 145 393 169T418 232Q420 252 420 260Q420 268 418 288Q415 327
394 351Z" />
<glyph unicode="&#xff;" glyph-name="ydieresis" horiz-adv-x="626" d="M320 -190T300 -190H169Q159 -190 152 -183T145 -166Q145 -162 146 -159L222 20L20 489Q19 492 19 496Q19 506 26 513T43 520H174Q194 520 203 496L314 236L424 496Q433 520 453 520H585Q595
520 602 513T609 496Q609 492 608 489L329 -166Q320 -190 300 -190ZM279 611T271 603T252 595H151Q140 595 132 603T124 622V723Q124 734 132 742T151 750H252Q263 750 271 742T279 723V622Q279 611 271 603ZM504 611T496 603T477 595H376Q365 595 357 603T349
622V723Q349 734 357 742T376 750H477Q488 750 496 742T504 723V622Q504 611 496 603Z" />
<glyph unicode="&#x2013;" glyph-name="endash" horiz-adv-x="569" d="M71 223T63 231T55 250V351Q55 362 63 370T82 378H487Q498 378 506 370T514 351V250Q514 239 506 231T487 223H82Q71 223 63 231Z" />
<glyph unicode="&#x2014;" glyph-name="emdash" horiz-adv-x="759" d="M71 223T63 231T55 250V351Q55 362 63 370T82 378H677Q688 378 696 370T704 351V250Q704 239 696 231T677 223H82Q71 223 63 231Z" />
<glyph unicode="&#x2018;" glyph-name="quoteleft" horiz-adv-x="283" d="M215 473T205 462T175 450H52Q43 450 37 456T30 472Q30 476 31 479L109 678Q121 710 152 710H227Q236 710 242 704T249 688V686L218 489Q215 473 205 462Z" />
<glyph unicode="&#x2019;" glyph-name="quoteright" horiz-adv-x="277" d="M74 687T84 698T114 710H237Q246 710 252 704T259 688Q259 684 258 681L180 482Q168 450 137 450H62Q53 450 47 456T40 472V474L71 671Q74 687 84 698Z" />
<glyph unicode="&#x201a;" glyph-name="quotesinglbase" horiz-adv-x="287" d="M63 162T73 173T103 185H226Q235 185 241 179T248 163Q248 159 247 156L169 -43Q157 -75 126 -75H51Q42 -75 36 -69T29 -53V-51L60 146Q63 162 73 173Z" />
<glyph unicode="&#x201c;" glyph-name="quotedblleft" horiz-adv-x="518" d="M215 473T205 462T175 450H52Q43 450 37 456T30 472Q30 476 31 479L109 678Q121 710 152 710H227Q236 710 242 704T249 688V686L218 489Q215 473 205 462ZM450 473T440 462T410 450H287Q278
450 272 456T265 472Q265 476 266 479L344 678Q356 710 387 710H462Q471 710 477 704T484 688V686L453 489Q450 473 440 462Z" />
<glyph unicode="&#x201d;" glyph-name="quotedblright" horiz-adv-x="512" d="M74 687T84 698T114 710H237Q246 710 252 704T259 688Q259 684 258 681L180 482Q168 450 137 450H62Q53 450 47 456T40 472V474L71 671Q74 687 84 698ZM309 687T319 698T349 710H472Q481
710 487 704T494 688Q494 684 493 681L415 482Q403 450 372 450H297Q288 450 282 456T275 472V474L306 671Q309 687 319 698Z" />
<glyph unicode="&#x201e;" glyph-name="quotedblbase" horiz-adv-x="522" d="M63 162T73 173T103 185H226Q235 185 241 179T248 163Q248 159 247 156L169 -43Q157 -75 126 -75H51Q42 -75 36 -69T29 -53V-51L60 146Q63 162 73 173ZM298 162T308 173T338 185H461Q470
185 476 179T483 163Q483 159 482 156L404 -43Q392 -75 361 -75H286Q277 -75 271 -69T264 -53V-51L295 146Q298 162 308 173Z" />
<glyph unicode="&#x2022;" glyph-name="bullet" horiz-adv-x="394" d="M232 430T262 413T309 365T327 300Q327 265 310 235T262 188T197 170Q162 170 132 187T85 235T67 300Q67 335 84 365T132 412T197 430Q232 430 262 413Z" />
<glyph unicode="&#x2039;" glyph-name="guilsinglleft" horiz-adv-x="346" d="M33 378T47 390L254 591Q260 596 268 596Q277 596 283 590T290 574V461Q290 444 286 435T272 416L182 329L272 242Q282 232 286 223T290 197V84Q290 75 284 69T268 62Q260 62 254 67L47
268Q33 280 33 296V362Q33 378 47 390Z" />
<glyph unicode="&#x203a;" glyph-name="guilsinglright" horiz-adv-x="346" d="M313 280T299 268L92 67Q86 62 78 62Q69 62 63 68T56 84V197Q56 214 60 223T74 242L164 329L74 416Q64 426 60 435T56 461V574Q56 583 62 589T78 596Q86 596 92 591L299 390Q313 378
313 362V296Q313 280 299 268Z" />
</font>
</defs>
</svg>
