<?xml version="1.0" standalone="no"?>
<!DOCTYPE svg PUBLIC "-//W3C//DTD SVG 1.1//EN" "http://www.w3.org/Graphics/SVG/1.1/DTD/svg11.dtd">
<svg xmlns="http://www.w3.org/2000/svg">
<defs >
<font id="Rubik" horiz-adv-x="546" ><font-face
    font-family="Rubik"
    units-per-em="1000"
    panose-1="2 0 6 4 0 0 0 2 0 4"
    ascent="935"
    descent="-250"
    alphabetic="0" />
<glyph unicode=" " glyph-name="space" horiz-adv-x="244" />
<glyph unicode="!" glyph-name="exclam" horiz-adv-x="243" d="M167 187T159 179T140 171H103Q92 171 84 179T76 198V673Q76 684 84 692T103 700H140Q151 700 159 692T167 673V198Q167 187 159 179ZM177 16T169 8T150 0H93Q82 0 74 8T66 27V84Q66 95 74 103T93
111H150Q161 111 169 103T177 84V27Q177 16 169 8Z" />
<glyph unicode="&quot;" glyph-name="quotedbl" horiz-adv-x="374" d="M143 503T135 496T116 488H100Q89 488 81 495T72 516L54 674Q52 690 59 700T81 710H135Q150 710 157 700T162 674L144 516Q143 503 135 496ZM301 503T293 496T274 488H258Q247 488 239 495T230
516L212 674Q210 690 217 700T239 710H293Q308 710 315 700T320 674L302 516Q301 503 293 496Z" />
<glyph unicode="#" glyph-name="numbersign" horiz-adv-x="689" d="M616 517Q627 517 635 509T643 490V458Q643 447 635 439T616 431H516L491 263H590Q601 263 609 255T617 236V204Q617 193 609 185T590 177H478L461 60Q459 51 453 45T436 39H393Q384 39 378 45T371
61V63L388 177H251L234 60Q232 51 226 45T209 39H166Q157 39 151 45T144 61V63L161 177H73Q62 177 54 185T46 204V236Q46 247 54 255T73 263H174L199 431H99Q88 431 80 439T72 458V490Q72 501 80 509T99 517H212L230 634Q232 643 238 649T254 655H297Q306 655 312
649T319 633V630L302 517H439L457 634Q459 643 465 649T481 655H524Q533 655 539 649T546 633V630L529 517H616ZM401 263L426 431H289L264 263H401Z" />
<glyph unicode="$" glyph-name="dollar" horiz-adv-x="612" d="M408 697T454 667T526 599T553 529Q554 520 547 514T531 507H490Q478 507 472 511T459 529Q443 560 404 590T299 620Q239 620 198 593T156 516Q156 482 176 461T238 424T364 386Q478 356 525 313T573
194Q573 112 512 57T347 -8V-73Q347 -84 339 -92T320 -100H279Q268 -100 260 -92T252 -73V-6Q191 3 142 32T65 99T36 176Q36 185 42 191T58 198H99Q110 198 117 194T130 176Q146 140 188 110T304 80Q377 80 427 111T478 194Q478 227 452 249T379 287T244 326Q147
351 104 398T61 516Q61 562 82 602T147 671T252 707V773Q252 784 260 792T279 800H320Q331 800 339 792T347 773V706Q408 697 454 667Z" />
<glyph unicode="%" glyph-name="percent" horiz-adv-x="797" d="M339 530T339 523Q339 517 337 483Q334 420 297 383T191 345Q123 345 86 382T45 483Q44 500 44 523Q44 548 45 566Q48 629 85 667T191 705Q259 705 296 667T337 566Q339 530 339 523ZM603 691T610
695T631 700H669Q680 700 686 695T693 680Q693 674 689 669L195 19Q187 9 180 5T159 0H121Q110 0 104 5T97 20Q97 26 101 31L595 681Q603 691 610 695ZM158 633T141 613T122 563Q121 546 121 525Q121 505 122 486Q124 456 141 437T191 417Q224 417 241 436T260
486Q262 524 262 525Q262 529 260 563Q258 593 241 613T191 633Q158 633 141 613ZM754 180T754 173Q754 167 752 133Q749 70 712 33T606 -5Q538 -5 501 32T460 133Q459 150 459 173Q459 198 460 216Q463 279 500 317T606 355Q674 355 711 317T752 216Q754 180 754
173ZM573 283T556 263T537 213Q536 196 536 175Q536 155 537 136Q539 106 556 87T606 67Q639 67 656 86T675 136Q677 174 677 175Q677 179 675 213Q673 243 656 263T606 283Q573 283 556 263Z" />
<glyph unicode="&amp;" glyph-name="ampersand" horiz-adv-x="696" d="M619 366Q629 366 635 359T641 344Q638 296 620 240T567 133L671 31Q677 25 677 17Q677 10 672 5T659 0H585Q576 0 571 2T560 10L504 65Q416 -10 290 -10Q225 -10 172 12T89 77T58 179Q58
239 95 285T195 372Q141 430 123 466T104 546Q104 597 132 634T204 690T293 710Q337 710 379 690T449 632T476 546Q476 489 442 444T344 355L496 204Q529 260 547 344Q548 353 556 359T573 366H619ZM325 449T353 477T381 545Q381 573 356 596T293 620Q256 620 228
598T199 545Q199 517 215 493T277 421Q325 449 353 477ZM262 305Q212 273 183 243T153 179Q153 131 195 106T290 80Q374 80 436 132L262 305Z" />
<glyph unicode="&apos;" glyph-name="quotesingle" horiz-adv-x="216" d="M143 503T135 496T116 488H100Q89 488 81 495T72 516L54 674Q52 690 59 700T81 710H135Q150 710 157 700T162 674L144 516Q143 503 135 496Z" />
<glyph unicode="(" glyph-name="parenleft" horiz-adv-x="342" d="M57 478T76 577T145 726T290 776Q301 776 309 768T317 749V717Q317 706 309 698T290 690Q228 690 198 649T158 528T148 309Q148 169 157 90T197 -31T290 -73Q301 -73 309 -81T317 -100V-132Q317
-143 309 -151T290 -159Q196 -159 146 -110T76 40T57 309Q57 478 76 577Z" />
<glyph unicode=")" glyph-name="parenright" horiz-adv-x="342" d="M25 -100Q25 -89 33 -81T52 -73Q114 -73 144 -32T184 89T194 309Q194 449 185 528T145 648T52 690Q41 690 33 698T25 717V749Q25 760 33 768T52 776Q146 776 196 727T266 578T285 309Q285 140
266 40T197 -109T52 -159Q41 -159 33 -151T25 -132V-100Z" />
<glyph unicode="*" glyph-name="asterisk" horiz-adv-x="444" d="M338 653Q341 655 342 655T345 657Q347 658 350 658Q358 658 364 654T373 642L391 585Q392 583 392 579Q392 572 388 566T377 558Q376 558 369 556L269 546L344 480Q344 480 350 474Q354 468 354
461Q354 449 345 443L296 408Q292 404 285 404Q273 404 266 413L262 420L222 510L182 420L178 413Q171 404 159 404Q152 404 148 408L99 443Q90 449 90 461Q90 468 94 474Q100 480 100 480L174 546L75 556Q68 558 67 558Q59 560 55 568T53 585L71 642Q74 651 82
655T99 657Q100 656 101 656T106 653L192 602L171 700L170 708Q170 716 176 723T192 730H252Q261 730 267 723T274 708L273 700L251 602L338 653Z" />
<glyph unicode="+" glyph-name="plus" horiz-adv-x="614" d="M352 60Q352 49 344 41T325 33H288Q277 33 269 41T261 60V259H65Q54 259 46 267T38 286V317Q38 328 46 336T65 344H261V540Q261 551 269 559T288 567H325Q336 567 344 559T352 540V344H549Q560 344
568 336T576 317V286Q576 275 568 267T549 259H352V60Z" />
<glyph unicode="," glyph-name="comma" horiz-adv-x="250" d="M70 98T80 109T110 121H168Q177 121 183 115T190 99Q190 95 189 92L137 -43Q125 -75 94 -75H69Q60 -75 54 -69T47 -53V-51L67 82Q70 98 80 109Z" />
<glyph unicode="-" glyph-name="hyphen" horiz-adv-x="485" d="M84 257T76 265T68 284V316Q68 327 76 335T95 343H390Q401 343 409 335T417 316V284Q417 273 409 265T390 257H95Q84 257 76 265Z" />
<glyph unicode="." glyph-name="period" horiz-adv-x="247" d="M168 121T176 113T184 94V27Q184 16 176 8T157 0H90Q79 0 71 8T63 27V94Q63 105 71 113T90 121H157Q168 121 176 113Z" />
<glyph unicode="/" glyph-name="slash" horiz-adv-x="486" d="M375 786T406 786H439Q448 786 454 780T461 764Q461 760 459 755L121 -54Q109 -84 77 -84H47Q38 -84 32 -78T25 -62Q25 -58 27 -53L362 756Q375 786 406 786Z" />
<glyph unicode="0" glyph-name="zero" horiz-adv-x="634" d="M570 141T507 66T317 -10Q191 -10 128 65T62 265L61 350L62 434Q64 558 127 634T317 710Q443 710 506 634T572 434Q573 404 573 350Q573 295 572 265Q570 141 507 66ZM474 80T478 265Q479 295 479 350Q479
404 478 434Q474 620 317 620Q160 620 156 434L155 350L156 265Q160 80 317 80Q474 80 478 265Z" />
<glyph unicode="1" glyph-name="one" horiz-adv-x="421" d="M347 16T339 8T320 0H279Q268 0 260 8T252 27V578L90 455Q83 449 73 449Q60 449 52 459L28 490Q22 498 22 507Q22 520 33 528L247 692Q258 700 279 700H320Q331 700 339 692T347 673V27Q347 16 339 8Z" />
<glyph unicode="2" glyph-name="two" horiz-adv-x="582" d="M395 397T409 425T423 496Q423 552 391 586T294 620Q230 620 198 587T152 496Q149 485 142 479T126 473H80Q71 473 65 479T58 495Q60 546 88 596T170 678T294 710Q365 710 415 682T492 605T518 496Q518
433 497 389T423 298L200 90H506Q517 90 525 82T533 63V27Q533 16 525 8T506 0H75Q64 0 56 8T48 27V63Q48 74 52 81T70 101L363 368Q395 397 409 425Z" />
<glyph unicode="3" glyph-name="three" horiz-adv-x="595" d="M367 80T410 112T454 207Q454 268 413 295T300 323H217Q206 323 198 331T190 350V386Q190 394 194 400T206 416L386 610H98Q87 610 79 618T71 637V673Q71 684 79 692T98 700H492Q503 700 511 692T519
673V637Q519 623 501 603L324 412Q425 410 487 355T549 207Q549 141 516 92T426 16T300 -10Q215 -10 157 15T71 81T41 168Q41 177 47 183T63 190H109Q119 190 125 184T135 169Q148 128 182 104T300 80Q367 80 410 112Z" />
<glyph unicode="4" glyph-name="four" horiz-adv-x="610" d="M386 0T378 8T370 27V165H56Q45 165 37 173T29 192V228Q29 235 33 244T43 262L359 676Q377 700 398 700H438Q449 700 457 692T465 673V255H551Q562 255 570 247T578 228V192Q578 181 570 173T551 165H465V27Q465
16 457 8T438 0H397Q386 0 378 8ZM370 537L153 255H370V537Z" />
<glyph unicode="5" glyph-name="five" horiz-adv-x="594" d="M365 80T410 117T455 225Q455 295 410 332T296 370Q255 370 232 361T186 335Q174 326 166 322T146 317H95Q86 317 80 323T73 339L103 673Q103 684 111 692T130 700H483Q494 700 502 692T510 673V637Q510
626 502 618T483 610H192L176 437Q227 460 296 460Q367 460 424 432T516 350T550 225Q550 154 516 101T425 19T296 -10Q230 -10 172 14T79 83T43 182Q43 191 49 197T65 204H111Q120 204 127 198T137 182Q150 136 194 108T296 80Q365 80 410 117Z" />
<glyph unicode="6" glyph-name="six" horiz-adv-x="598" d="M283 472T304 472Q378 472 437 441T529 354T563 231Q563 164 530 109T437 22T304 -10Q230 -10 171 21T79 108T45 231Q45 283 63 321T118 412L300 680Q301 682 305 687T316 696T331 700H388Q397 700 402
694T408 678Q408 673 403 665L268 467Q283 472 304 472ZM353 80T390 101T448 156T468 231Q468 271 448 305T391 361T304 382Q255 382 218 361T160 306T140 231Q140 191 160 157T217 101T304 80Q353 80 390 101Z" />
<glyph unicode="7" glyph-name="seven" horiz-adv-x="515" d="M472 700T480 692T488 673V637Q488 623 477 597L255 24Q245 0 226 0H180Q170 0 163 7T156 24Q156 29 159 36L382 610H54Q43 610 35 618T27 637V673Q27 684 35 692T54 700H461Q472 700 480 692Z" />
<glyph unicode="8" glyph-name="eight" horiz-adv-x="610" d="M114 393T94 431T73 514Q73 567 103 612T187 683T305 710Q370 710 423 684T507 612T538 514Q538 470 517 432T459 366Q505 336 530 293T556 199Q556 142 524 94T435 18T305 -10Q233 -10 176 18T86
94T54 199Q54 250 79 293T151 366Q114 393 94 431ZM363 408T403 439T443 514Q443 558 403 589T305 620Q247 620 208 589T168 514Q168 470 207 439T305 408Q363 408 403 439ZM350 80T385 96T441 139T461 199Q461 232 441 259T386 302T305 318Q260 318 225 302T169
259T149 199Q149 166 169 139T224 96T305 80Q350 80 385 96Z" />
<glyph unicode="9" glyph-name="nine" horiz-adv-x="579" d="M302 238T287 238Q222 238 165 266T72 348T36 474Q36 540 70 594T162 679T287 710Q363 710 420 680T507 596T538 474Q538 430 516 386T458 288L276 20Q275 18 271 13T260 4T245 0H188Q179 0 174 6T168
22Q168 28 173 35L314 240Q302 238 287 238ZM218 620T175 579T131 474Q131 411 174 370T287 328Q356 328 399 369T443 474Q443 537 400 578T287 620Q218 620 175 579Z" />
<glyph unicode=":" glyph-name="colon" horiz-adv-x="257" d="M173 471T181 463T189 444V377Q189 366 181 358T162 350H95Q84 350 76 358T68 377V444Q68 455 76 463T95 471H162Q173 471 181 463ZM173 121T181 113T189 94V27Q189 16 181 8T162 0H95Q84 0 76 8T68
27V94Q68 105 76 113T95 121H162Q173 121 181 113Z" />
<glyph unicode=";" glyph-name="semicolon" horiz-adv-x="280" d="M191 471T199 463T207 444V377Q207 366 199 358T180 350H113Q102 350 94 358T86 377V444Q86 455 94 463T113 471H180Q191 471 199 463ZM87 98T97 109T127 121H185Q194 121 200 115T207 99Q207
95 206 92L154 -42Q142 -74 111 -74H86Q77 -74 71 -68T64 -52V-50L84 82Q87 98 97 109Z" />
<glyph unicode="&lt;" glyph-name="less" horiz-adv-x="489" d="M35 384T42 393T64 413L394 636Q399 639 405 639Q414 639 420 633T426 618V573Q426 550 394 529L130 350L394 171Q426 150 426 127V82Q426 73 420 67T405 61Q399 61 394 64L64 287Q49 297 42 306T35
329V371Q35 384 42 393Z" />
<glyph unicode="=" glyph-name="equal" horiz-adv-x="569" d="M86 382T78 390T70 409V441Q70 452 78 460T97 468H472Q483 468 491 460T499 441V409Q499 398 491 390T472 382H97Q86 382 78 390ZM86 132T78 140T70 159V191Q70 202 78 210T97 218H472Q483 218 491
210T499 191V159Q499 148 491 140T472 132H97Q86 132 78 140Z" />
<glyph unicode="&gt;" glyph-name="greater" horiz-adv-x="488" d="M453 316T446 307T424 287L94 64Q89 61 83 61Q74 61 68 67T62 82V127Q62 150 94 171L358 350L94 529Q62 550 62 573V618Q62 627 68 633T83 639Q89 639 94 636L424 413Q439 403 446 394T453 371V329Q453
316 446 307Z" />
<glyph unicode="?" glyph-name="question" horiz-adv-x="522" d="M326 710T377 686T458 618T488 521Q488 481 475 451T442 399T390 350Q347 313 326 284T305 212V198Q305 187 297 179T278 171H241Q230 171 222 179T214 198V219Q214 259 228 289T261 341T314 392Q356
428 376 455T397 521Q397 569 357 597T261 625Q207 625 171 598T121 515Q119 505 112 499T95 493H52Q43 493 36 499T30 515Q33 562 59 607T137 681T261 710Q326 710 377 686ZM315 16T307 8T288 0H231Q220 0 212 8T204 27V84Q204 95 212 103T231 111H288Q299 111
307 103T315 84V27Q315 16 307 8Z" />
<glyph unicode="@" glyph-name="at" horiz-adv-x="853" d="M604 79T574 92T527 125Q512 106 501 96T465 77T399 69Q321 69 279 126T237 273Q237 362 279 420T399 478Q462 478 499 434V443Q499 454 507 462T526 470H558Q569 470 577 462T585 443V230Q585 198 601
179T645 160Q677 160 691 181T707 229Q709 247 709 286Q709 317 706 351Q682 588 415 588Q346 588 287 561T189 481T143 351Q140 324 140 265Q140 216 143 190Q150 114 189 61T287 -18T415 -45Q491 -45 533 -33T616 8Q619 10 626 14T638 21T651 23H695Q707 23 715
15T722 -5Q722 -13 715 -20Q667 -69 596 -97T415 -126Q323 -126 244 -89T115 18T57 185Q55 219 55 262Q55 318 57 356Q63 451 113 522T243 631T415 669Q583 669 682 587T791 356Q793 314 793 292Q793 244 791 224Q787 152 747 116T645 79Q604 79 574 92ZM459 150T479
181T499 273Q499 333 479 365T410 397Q365 397 344 360T322 273Q322 224 343 187T410 150Q459 150 479 181Z" />
<glyph unicode="A" glyph-name="A" horiz-adv-x="680" d="M166 158L114 25Q105 0 75 0H38Q29 0 23 6T16 22Q16 27 20 36L265 667Q278 700 310 700H370Q402 700 415 667L659 36Q663 27 663 22Q663 13 657 7T641 0H604Q574 0 565 25L513 158H166ZM478 248L340 605L201
248H478Z" />
<glyph unicode="B" glyph-name="B" horiz-adv-x="667" d="M86 673Q86 684 94 692T113 700H381Q460 700 509 670T579 596T600 512Q600 456 573 422T520 371Q562 343 588 300T615 203Q615 151 590 105T514 29T395 0H113Q102 0 94 8T86 27V673ZM181 408H371Q437 408
471 434T505 509Q505 558 471 584T371 610H181V408ZM181 90H385Q449 90 484 122T520 203Q520 252 486 285T385 318H181V90Z" />
<glyph unicode="C" glyph-name="C" horiz-adv-x="667" d="M158 181T206 131T342 80Q430 80 472 118T528 216Q530 226 537 232T554 238H600Q609 238 615 232T622 216Q620 167 590 115T498 26T342 -10Q258 -10 195 25T98 121T60 261Q59 291 59 350Q59 409 60 439Q63
517 97 578T195 675T342 710Q435 710 497 674T590 586T622 484Q622 475 616 469T600 462H554Q545 462 538 468T528 484Q514 544 472 582T342 620Q255 620 207 570T155 434Q154 404 154 350Q154 296 155 266Q158 181 206 131Z" />
<glyph unicode="D" glyph-name="D" horiz-adv-x="688" d="M628 188T592 127T493 33T348 0H113Q102 0 94 8T86 27V673Q86 684 94 692T113 700H342Q425 700 489 668T591 574T629 429Q630 399 630 350Q630 301 629 271Q628 188 592 127ZM181 610V90H343Q443 90 487
142T534 276Q535 306 535 350Q535 394 534 424Q532 505 485 557T338 610H181Z" />
<glyph unicode="E" glyph-name="E" horiz-adv-x="592" d="M181 309H487Q498 309 506 317T514 336V372Q514 383 506 391T487 399H181V610H509Q520 610 528 618T536 637V673Q536 684 528 692T509 700H113Q102 700 94 692T86 673V27Q86 16 94 8T113 0H517Q528 0 536
8T544 27V63Q544 74 536 82T517 90H181V309Z" />
<glyph unicode="F" glyph-name="F" horiz-adv-x="577" d="M521 700T529 692T537 673V637Q537 626 529 618T510 610H181V379H490Q501 379 509 371T517 352V316Q517 305 509 297T490 289H181V27Q181 16 173 8T154 0H113Q102 0 94 8T86 27V673Q86 684 94 692T113
700H510Q521 700 529 692Z" />
<glyph unicode="G" glyph-name="G" horiz-adv-x="684" d="M431 710T493 679T587 602T622 517Q623 508 616 502T600 495H559Q536 495 530 506Q501 562 461 591T346 620Q262 620 210 573T155 436Q154 406 154 353Q154 300 155 270Q158 176 209 128T346 80Q433 80
485 125T537 269V297H393Q382 297 374 305T366 324V360Q366 371 374 379T393 387H605Q616 387 624 379T632 360V265Q632 185 598 123T500 25T346 -10Q208 -10 136 66T60 265Q59 295 59 353Q59 411 60 441Q63 518 94 578T189 674T346 710Q431 710 493 679Z" />
<glyph unicode="H" glyph-name="H" horiz-adv-x="714" d="M612 700T620 692T628 673V27Q628 16 620 8T601 0H560Q549 0 541 8T533 27V309H181V27Q181 16 173 8T154 0H113Q102 0 94 7T86 27V673Q86 684 94 692T113 700H154Q165 700 173 692T181 673V399H533V673Q533
684 541 692T560 700H601Q612 700 620 692Z" />
<glyph unicode="I" glyph-name="I" horiz-adv-x="267" d="M102 0T94 8T86 27V673Q86 684 94 692T113 700H154Q165 700 173 692T181 673V27Q181 16 173 8T154 0H113Q102 0 94 8Z" />
<glyph unicode="J" glyph-name="J" horiz-adv-x="629" d="M549 129T482 60T292 -10Q214 -10 156 20T67 99T34 206Q34 215 40 221T56 228H107Q124 228 129 206Q140 150 179 115T292 80Q377 80 415 125T454 256V610H109Q98 610 90 618T82 637V673Q82 684 90 692T109
700H522Q533 700 541 692T549 673V245Q549 129 482 60Z" />
<glyph unicode="K" glyph-name="K" horiz-adv-x="599" d="M574 40Q584 30 584 22Q584 13 578 7T562 0H500Q479 0 464 15L181 285V27Q181 16 173 8T154 0H113Q102 0 94 8T86 27V673Q86 684 94 692T113 700H154Q165 700 173 692T181 673V440L448 685Q463 700 484
700H542Q551 700 557 694T564 678Q564 670 554 660L233 365L574 40Z" />
<glyph unicode="L" glyph-name="L" horiz-adv-x="566" d="M531 90T539 82T547 63V27Q547 16 539 8T520 0H113Q102 0 94 8T86 27V673Q86 684 94 692T113 700H154Q165 700 173 692T181 673V90H520Q531 90 539 82Z" />
<glyph unicode="M" glyph-name="M" horiz-adv-x="794" d="M599 668Q615 700 643 700H681Q692 700 700 692T708 673V27Q708 16 700 8T681 0H640Q629 0 621 8T613 27V501L457 200Q449 184 440 176T416 168H378Q364 168 355 176T337 200L181 501V27Q181 16 173 8T154
0H113Q102 0 94 8T86 27V673Q86 684 94 692T113 700H151Q179 700 195 668L397 277L599 668Z" />
<glyph unicode="N" glyph-name="N" horiz-adv-x="694" d="M533 0T524 8T506 30L181 519V27Q181 16 173 8T154 0H113Q102 0 94 8T86 27V673Q86 684 94 692T113 700H148Q161 700 170 692T188 670L513 181V673Q513 684 521 692T540 700H581Q592 700 600 692T608 673V27Q608
16 600 8T581 0H546Q533 0 524 8Z" />
<glyph unicode="O" glyph-name="O" horiz-adv-x="672" d="M421 710T483 674T577 577T612 439Q614 379 614 350Q614 321 612 261Q609 185 577 124T483 26T336 -10Q251 -10 190 26T96 123T60 261Q59 291 59 350Q59 409 60 439Q62 515 94 576T189 674T336 710Q421
710 483 674ZM256 620T207 573T155 434Q154 404 154 350Q154 296 155 266Q158 174 207 127T336 80Q416 80 465 127T517 266Q519 326 519 350Q519 374 517 434Q514 526 465 573T336 620Q256 620 207 573Z" />
<glyph unicode="P" glyph-name="P" horiz-adv-x="640" d="M469 700T537 646T606 488Q606 418 574 369T487 296T365 272H181V27Q181 16 173 8T154 0H113Q102 0 94 8T86 27V673Q86 684 94 692T113 700H365Q469 700 537 646ZM360 362Q433 362 472 393T511 488Q511
610 360 610H181V362H360Z" />
<glyph unicode="Q" glyph-name="Q" horiz-adv-x="672" d="M421 710T483 674T577 577T612 439Q614 379 614 350Q614 321 612 261Q610 203 591 153T535 67L609 -34Q612 -40 612 -44Q612 -53 607 -59T592 -65H545Q529 -65 520 -59T503 -42L461 15Q406 -10 336 -10Q251
-10 190 26T96 123T60 261Q59 291 59 350Q59 409 60 439Q62 515 94 576T189 674T336 710Q421 710 483 674ZM256 620T207 573T155 434Q154 404 154 350Q154 296 155 266Q158 174 207 127T336 80Q416 80 465 127T517 266Q519 326 519 350Q519 374 517 434Q514 526
465 573T336 620Q256 620 207 573Z" />
<glyph unicode="R" glyph-name="R" horiz-adv-x="651" d="M460 700T528 649T596 493Q596 415 557 366T452 296L603 33Q606 27 606 22Q606 13 600 7T584 0H541Q513 0 498 27L353 282H181V27Q181 16 173 8T154 0H113Q102 0 94 8T86 27V673Q86 684 94 692T113 700H355Q460
700 528 649ZM350 372Q501 372 501 493Q501 555 463 582T350 610H181V372H350Z" />
<glyph unicode="S" glyph-name="S" horiz-adv-x="618" d="M556 520T549 514T533 507H492Q480 507 474 511T461 529Q445 560 406 590T301 620Q241 620 200 593T158 516Q158 482 178 461T240 424T366 386Q480 356 527 313T575 194Q575 134 542 88T447 16T306 -10Q232
-10 171 18T75 89T38 176Q38 185 44 191T60 198H101Q112 198 119 194T132 176Q148 140 190 110T306 80Q379 80 429 111T480 194Q480 227 454 249T381 287T246 326Q149 351 106 398T63 516Q63 568 90 612T171 683T301 710Q377 710 434 681T522 608T555 529Q556 520
549 514Z" />
<glyph unicode="T" glyph-name="T" horiz-adv-x="569" d="M530 700T538 692T546 673V637Q546 626 538 618T519 610H332V27Q332 16 324 8T305 0H264Q253 0 245 8T237 27V610H50Q39 610 31 618T23 637V673Q23 684 31 692T50 700H519Q530 700 538 692Z" />
<glyph unicode="U" glyph-name="U" horiz-adv-x="698" d="M602 700T610 692T618 673V273Q618 143 552 67T349 -10Q211 -10 146 66T80 273V673Q80 684 88 692T107 700H148Q159 700 167 692T175 673V268Q175 172 220 124T349 75Q432 75 478 123T524 268V673Q524
684 532 692T551 700H591Q602 700 610 692Z" />
<glyph unicode="V" glyph-name="V" horiz-adv-x="647" d="M525 700T555 700H592Q601 700 607 694T614 678Q614 673 612 668L396 40Q390 21 377 11T343 0H303Q264 0 251 40L34 668Q32 673 32 678Q32 687 38 693T54 700H91Q121 700 130 675L323 100L516 675Q525
700 555 700Z" />
<glyph unicode="W" glyph-name="W" horiz-adv-x="792" d="M557 120L659 673Q662 687 670 693T690 700H730Q739 700 745 694T752 678L751 670L628 52Q622 25 612 13T579 0H539Q517 0 506 13T488 52L396 386L304 52Q297 27 286 14T253 0H213Q190 0 180 12T164 52L41
670L40 678Q40 687 46 693T62 700H102Q113 700 121 694T133 673L235 120L345 516Q347 526 355 535T379 545H413Q429 545 437 536T447 516L557 120Z" />
<glyph unicode="X" glyph-name="X" horiz-adv-x="638" d="M129 23Q121 12 113 6T88 0H45Q36 0 30 6T23 22Q23 28 26 33L262 357L36 667Q33 673 33 678Q33 687 39 693T55 700H102Q119 700 127 693T144 675L322 431L496 674Q504 685 512 692T538 700H581Q590 700
596 694T603 678Q603 673 600 667L377 355L612 33Q615 28 615 22Q615 13 609 7T593 0H546Q529 0 521 6T505 23L317 281L129 23Z" />
<glyph unicode="Y" glyph-name="Y" horiz-adv-x="643" d="M369 16T361 8T342 0H301Q290 0 282 8T274 27V261L35 664Q30 673 30 678Q30 687 36 693T52 700H95Q113 700 121 694T137 675L321 357L506 675Q513 687 521 693T548 700H591Q600 700 606 694T613 678Q613
673 608 664L369 261V27Q369 16 361 8Z" />
<glyph unicode="Z" glyph-name="Z" horiz-adv-x="598" d="M543 90T551 82T559 63V27Q559 16 551 8T532 0H66Q55 0 47 8T39 27V63Q39 77 46 87T54 98L425 610H76Q65 610 57 618T49 637V673Q49 684 57 692T76 700H522Q533 700 541 692T549 673V637Q549 621 536 604L163
90H532Q543 90 551 82Z" />
<glyph unicode="[" glyph-name="bracketleft" horiz-adv-x="345" d="M88 -159T80 -151T72 -132V749Q72 760 80 768T99 776H292Q303 776 311 768T319 749V717Q319 706 311 698T292 690H163V-73H292Q303 -73 311 -81T319 -100V-132Q319 -143 311 -151T292 -159H99Q88
-159 80 -151Z" />
<glyph unicode="\" glyph-name="backslash" horiz-adv-x="486" d="M461 -58T461 -62Q461 -71 455 -77T439 -84H409Q377 -84 365 -54L27 755Q25 760 25 764Q25 773 31 779T47 786H80Q111 786 124 756L459 -53Q461 -58 461 -62Z" />
<glyph unicode="]" glyph-name="bracketright" horiz-adv-x="345" d="M42 -159T34 -151T26 -132V-100Q26 -89 34 -81T53 -73H182V690H53Q42 690 34 698T26 717V749Q26 760 34 768T53 776H246Q257 776 265 768T273 749V-132Q273 -143 265 -151T246 -159H53Q42 -159
34 -151Z" />
<glyph unicode="^" glyph-name="asciicircum" horiz-adv-x="410" d="M226 735T234 731T252 716L344 624Q349 619 349 611Q349 595 333 595H312Q303 595 297 597T281 606L205 657L129 606Q119 600 113 598T98 595H77Q61 595 61 611Q61 619 66 624L158 716Q168 727
176 731T195 735H215Q226 735 234 731Z" />
<glyph unicode="_" glyph-name="underscore" horiz-adv-x="747" d="M75 -43T67 -35T59 -16V16Q59 27 67 35T86 43H661Q672 43 680 35T688 16V-16Q688 -27 680 -35T661 -43H86Q75 -43 67 -35Z" />
<glyph unicode="`" glyph-name="grave" horiz-adv-x="331" d="M276 619T276 611Q276 595 260 595H223Q209 595 201 599T181 612L70 703Q65 708 65 715Q65 724 70 729T84 735H158Q170 735 177 732T195 716L271 624Q276 619 276 611Z" />
<glyph unicode="a" glyph-name="a" d="M384 329V342Q384 391 352 417T267 444Q227 444 205 431T162 390Q156 382 149 379T130 376H100Q89 376 81 384T73 403Q76 433 102 462T173 511T267 530Q360 530 417 478T475 332V27Q475 16 467 8T448 0H411Q400 0 392 8T384
27V68Q368 32 316 11T212 -10Q161 -10 121 8T60 59T38 131Q38 206 94 248T243 306L384 329ZM384 249L266 230Q201 220 165 198T129 141Q129 116 152 96T222 76Q294 76 339 117T384 224V249Z" />
<glyph unicode="b" glyph-name="b" horiz-adv-x="598" d="M549 283T549 261Q549 238 548 228Q545 156 515 102T434 19T321 -10Q217 -10 166 58V27Q166 16 158 8T139 0H102Q91 0 83 8T75 27V683Q75 694 83 702T102 710H139Q150 710 158 702T166 683V462Q188 491
226 510T321 530Q384 530 434 501T514 419T548 293Q549 283 549 261ZM376 76T414 117T457 232Q458 242 458 260Q458 345 420 394T311 444Q248 444 210 405T166 296Q165 286 165 257Q165 227 166 217Q171 152 210 114T311 76Q376 76 414 117Z" />
<glyph unicode="c" glyph-name="c" horiz-adv-x="555" d="M385 76T420 154Q427 169 434 175T453 181H483Q494 181 502 174T510 156Q510 122 483 83T405 17T285 -10Q214 -10 162 20T82 102T51 220Q50 232 50 266Q50 290 51 300Q60 402 120 466T285 530Q354 530
404 504T481 439T510 366Q511 355 503 347T483 339H453Q441 339 434 345T420 366Q385 444 285 444Q230 444 189 407T142 295Q141 284 141 259Q141 236 142 225Q149 150 189 113T285 76Q385 76 420 154Z" />
<glyph unicode="d" glyph-name="d" horiz-adv-x="598" d="M432 683Q432 694 440 702T459 710H496Q507 710 515 702T523 683V27Q523 16 515 8T496 0H459Q448 0 440 8T432 27V58Q381 -10 277 -10Q215 -10 165 19T84 102T50 228L49 261L50 293Q53 365 83 418T164
501T277 530Q333 530 371 511T432 462V683ZM429 366T390 405T287 444Q222 444 184 402T141 288L140 260L141 232Q145 160 183 118T287 76Q349 76 389 114T432 217Q433 227 433 257Q433 286 432 296Q429 366 390 405Z" />
<glyph unicode="e" glyph-name="e" horiz-adv-x="557" d="M387 530T449 462T511 277V250Q511 239 503 231T484 223H140V217Q142 151 180 114T280 76Q330 76 357 89T407 126Q415 134 421 137T439 140H469Q481 140 489 132T496 113Q492 86 467 58T394 10T280 -10Q216
-10 166 19T87 101T51 218Q49 248 49 264Q49 280 51 310Q57 372 86 422T165 501T280 530Q387 530 449 462ZM421 307V310Q421 371 383 407T280 444Q222 444 182 407T140 310V307H421Z" />
<glyph unicode="f" glyph-name="f" horiz-adv-x="390" d="M348 520Q359 520 367 512T375 493V461Q375 450 367 442T348 434H221V27Q221 16 213 8T194 0H157Q146 0 138 8T130 27V434H46Q35 434 27 442T19 461V493Q19 504 27 512T46 520H130V570Q130 656 170 698T295
740H358Q369 740 377 732T385 713V681Q385 670 377 662T358 654H305Q256 654 239 631T221 565V520H348Z" />
<glyph unicode="g" glyph-name="g" horiz-adv-x="598" d="M333 530T371 511T432 462V493Q432 504 440 512T459 520H496Q507 520 515 512T523 493V7Q523 -99 463 -159T287 -220Q212 -220 161 -197T86 -140T59 -71Q58 -60 66 -52T86 -44H116Q128 -44 135 -50T149
-71Q159 -94 187 -114T277 -134Q432 -134 432 -5V58Q381 -10 277 -10Q215 -10 165 19T84 101T50 227L49 260L50 293Q53 365 83 418T164 501T277 530Q333 530 371 511ZM222 444T184 402T141 288L140 260L141 232Q145 160 183 118T287 76Q351 76 390 115T432 224Q433
234 433 260Q433 286 432 296Q429 366 390 405T287 444Q222 444 184 402Z" />
<glyph unicode="h" glyph-name="h" horiz-adv-x="607" d="M537 16T529 8T510 0H473Q462 0 454 8T446 27V291Q446 366 409 405T306 444Q241 444 204 405T166 291V27Q166 16 158 8T139 0H102Q91 0 83 8T75 27V683Q75 694 83 702T102 710H139Q150 710 158 702T166
683V462Q188 491 226 510T321 530Q384 530 433 503T509 426T537 306V27Q537 16 529 8Z" />
<glyph unicode="i" glyph-name="i" horiz-adv-x="241" d="M176 615T168 607T149 599H92Q81 599 73 607T65 626V683Q65 694 73 702T92 710H149Q160 710 168 702T176 683V626Q176 615 168 607ZM166 16T158 8T139 0H102Q91 0 83 8T75 27V493Q75 504 83 512T102 520H139Q150
520 158 512T166 493V27Q166 16 158 8Z" />
<glyph unicode="j" glyph-name="j" horiz-adv-x="250" d="M185 615T177 607T158 599H101Q90 599 82 607T74 626V683Q74 694 82 702T101 710H158Q169 710 177 702T185 683V626Q185 615 177 607ZM84 504T92 512T111 520H148Q159 520 167 512T175 493V-15Q175 -101
135 -145T10 -190H-9Q-20 -190 -28 -182T-36 -163V-131Q-36 -120 -28 -112T-9 -104H0Q49 -104 66 -81T84 -15V493Q84 504 92 512Z" />
<glyph unicode="k" glyph-name="k" horiz-adv-x="511" d="M166 27Q166 16 158 8T139 0H102Q91 0 83 8T75 27V683Q75 694 83 702T102 710H139Q150 710 158 702T166 683V352L361 503Q372 511 380 515T400 520H450Q460 520 467 513T474 496Q474 485 463 476L222 288L488
43Q498 33 498 24Q498 14 491 7T474 0H427Q406 0 386 17L166 220V27Z" />
<glyph unicode="l" glyph-name="l" horiz-adv-x="241" d="M166 16T158 8T139 0H102Q91 0 83 8T75 27V683Q75 694 83 702T102 710H139Q150 710 158 702T166 683V27Q166 16 158 8Z" />
<glyph unicode="m" glyph-name="m" horiz-adv-x="890" d="M190 493T220 511T300 530Q417 530 464 443Q493 485 530 507T627 530Q725 530 772 471T820 304V27Q820 16 812 8T793 0H756Q745 0 737 8T729 27V294Q729 444 611 444Q557 444 525 408T493 301V27Q493 16
485 8T466 0H429Q418 0 410 8T402 27V294Q402 444 284 444Q230 444 198 408T166 301V27Q166 16 158 8T139 0H102Q91 0 83 8T75 27V493Q75 504 83 512T102 520H139Q150 520 158 512T166 493V462Q190 493 220 511Z" />
<glyph unicode="n" glyph-name="n" horiz-adv-x="607" d="M537 16T529 8T510 0H473Q462 0 454 8T446 27V291Q446 366 409 405T306 444Q241 444 204 405T166 291V27Q166 16 158 8T139 0H102Q91 0 83 8T75 27V493Q75 504 83 512T102 520H139Q150 520 158 512T166
493V462Q188 491 226 510T321 530Q384 530 433 503T509 426T537 306V27Q537 16 529 8Z" />
<glyph unicode="o" glyph-name="o" horiz-adv-x="577" d="M527 285T527 259Q527 235 525 213Q516 111 455 51T288 -10Q183 -10 122 50T51 213Q50 224 50 259Q50 296 51 307Q59 409 121 469T288 530Q393 530 455 470T525 307Q527 285 527 259ZM428 366T392 405T288
444Q221 444 185 405T142 302Q141 290 141 259Q141 229 142 218Q148 154 184 115T288 76Q355 76 391 115T434 218Q436 240 436 259Q436 278 434 302Q428 366 392 405Z" />
<glyph unicode="p" glyph-name="p" horiz-adv-x="598" d="M166 -163Q166 -174 158 -182T139 -190H102Q91 -190 83 -182T75 -163V493Q75 504 83 512T102 520H139Q150 520 158 512T166 493V462Q217 530 321 530Q383 530 433 501T514 418T548 292Q549 282 549 260Q549
237 548 227Q545 155 515 102T434 19T321 -10Q265 -10 227 9T166 58V-163ZM169 154T208 115T311 76Q376 76 414 118T457 232Q458 242 458 260Q458 278 457 288Q453 360 415 402T311 444Q249 444 209 406T166 303L165 264L166 224Q169 154 208 115Z" />
<glyph unicode="q" glyph-name="q" horiz-adv-x="598" d="M49 260L50 292Q53 364 83 418T164 501T277 530Q381 530 432 462V493Q432 504 440 512T459 520H496Q507 520 515 512T523 493V-163Q523 -174 515 -182T496 -190H459Q448 -190 440 -182T432 -163V58Q410
29 372 10T277 -10Q214 -10 164 19T84 101T50 227L49 260ZM222 444T184 402T141 288L140 260L141 232Q145 160 183 118T287 76Q351 76 390 115T432 224Q433 234 433 264Q433 293 432 303Q429 367 389 405T287 444Q222 444 184 402Z" />
<glyph unicode="r" glyph-name="r" horiz-adv-x="378" d="M350 520T358 512T366 493V461Q366 450 358 442T339 434H281Q225 434 196 405T166 319V27Q166 16 158 8T139 0H102Q91 0 83 8T75 27V493Q75 504 83 512T102 520H139Q150 520 158 512T166 493V462Q186 492
214 506T287 520H339Q350 520 358 512Z" />
<glyph unicode="s" glyph-name="s" horiz-adv-x="506" d="M54 262T54 380Q54 421 76 455T141 509T248 530Q310 530 355 512T423 467T447 415Q447 405 439 398T420 390H387Q368 390 357 404Q326 444 248 444Q202 444 174 427T145 380Q145 355 159 342T201 321T300
297Q388 278 425 239T462 144Q462 103 437 68T364 12T253 -10Q191 -10 144 9T70 57T44 110Q44 120 52 127T71 135H107Q116 135 123 133T136 122Q169 76 253 76Q300 76 335 95T371 144Q371 168 354 182T303 206T200 231Q54 262 54 380Z" />
<glyph unicode="t" glyph-name="t" horiz-adv-x="400" d="M211 132T228 109T295 86H348Q359 86 367 78T375 59V27Q375 16 367 8T348 0H285Q200 0 160 44T120 175V434H46Q35 434 27 442T19 461V493Q19 504 27 512T46 520H120V683Q120 694 128 702T147 710H184Q195
710 203 702T211 683V520H338Q349 520 357 512T365 493V461Q365 450 357 442T338 434H211V175Q211 132 228 109Z" />
<glyph unicode="u" glyph-name="u" horiz-adv-x="597" d="M70 504T78 512T97 520H134Q145 520 153 512T161 493V229Q161 153 195 115T296 76Q360 76 395 115T431 229V493Q431 504 439 512T458 520H495Q506 520 514 512T522 493V27Q522 16 514 8T495 0H458Q447
0 439 8T431 27V58Q379 -10 281 -10Q185 -10 128 50T70 214V493Q70 504 78 512Z" />
<glyph unicode="v" glyph-name="v" horiz-adv-x="560" d="M319 0T329 25L528 489Q529 492 529 496Q529 506 522 513T505 520H464Q444 520 435 496L280 133L125 496Q116 520 92 520H55Q45 520 38 513T31 496Q31 492 32 489L231 25Q241 0 262 0H299Q319 0 329 25Z" />
<glyph unicode="w" glyph-name="w" horiz-adv-x="804" d="M676 496Q685 520 710 520H743Q753 520 760 513T767 496L766 488L613 28Q604 0 583 0H552Q540 0 533 7T521 28L402 360L283 28Q278 15 271 8T252 0H221Q200 0 191 28L38 488L37 496Q37 506 44 513T61 520H94Q119
520 128 496L240 162L360 496Q369 520 391 520H413Q435 520 444 496L564 162L676 496Z" />
<glyph unicode="x" glyph-name="x" horiz-adv-x="548" d="M131 19Q124 11 117 6T99 0H53Q43 0 36 7T29 23Q29 31 33 37L216 266L43 483Q39 489 39 497Q39 506 46 513T63 520H111Q122 520 129 515T143 501L276 334L408 501Q415 509 422 514T440 520H486Q496 520
503 513T510 497Q510 489 506 483L332 264L513 37Q517 31 517 23Q517 14 510 7T493 0H445Q434 0 427 5T413 19L272 196L131 19Z" />
<glyph unicode="y" glyph-name="y" horiz-adv-x="557" d="M219 -190T199 -190H158Q148 -190 141 -183T134 -166Q134 -162 135 -159L231 50L33 489Q32 492 32 496Q32 506 39 513T56 520H97Q117 520 126 496L280 156L436 496Q445 520 465 520H506Q516 520 523 513T530
496Q530 492 529 489L228 -166Q219 -190 199 -190Z" />
<glyph unicode="z" glyph-name="z" horiz-adv-x="511" d="M458 86T466 78T474 59V27Q474 16 466 8T447 0H69Q58 0 50 8T42 27V66Q42 78 56 95L331 434H79Q68 434 60 442T52 461V493Q52 504 60 512T79 520H427Q438 520 446 512T454 493V454Q454 444 448 436T440
425L163 86H447Q458 86 466 78Z" />
<glyph unicode="{" glyph-name="braceleft" horiz-adv-x="380" d="M339 -74T347 -82T355 -101V-133Q355 -144 347 -152T328 -160Q225 -160 167 -84T108 125Q108 181 98 211T55 257Q40 264 32 274T23 297V320Q23 332 31 342T55 360Q87 375 97 405T108 491Q108 623
166 699T328 776Q339 776 347 768T355 749V717Q355 706 347 698T328 690Q263 690 231 638T199 465Q199 409 181 368T128 309Q163 292 181 250T199 151Q199 30 231 -22T328 -74Q339 -74 347 -82Z" />
<glyph unicode="|" glyph-name="bar" horiz-adv-x="237" d="M164 -192T156 -200T137 -208H100Q89 -208 81 -200T73 -181V869Q73 880 81 888T100 896H137Q148 896 156 888T164 869V-181Q164 -192 156 -200Z" />
<glyph unicode="}" glyph-name="braceright" horiz-adv-x="380" d="M217 327T199 368T181 465Q181 586 149 638T52 690Q41 690 33 698T25 717V749Q25 760 33 768T52 776Q155 776 213 700T272 491Q272 435 282 405T325 360Q340 353 348 343T357 320V297Q357 285
349 275T325 257Q293 242 283 212T272 125Q272 -7 214 -83T52 -160Q41 -160 33 -152T25 -133V-101Q25 -90 33 -82T52 -74Q117 -74 149 -22T181 151Q181 208 199 250T252 309Q217 327 199 368Z" />
<glyph unicode="~" glyph-name="asciitilde" horiz-adv-x="561" d="M403 325T421 332T449 348Q459 356 469 357Q482 357 486 350T491 330V306Q491 279 461 259T381 239Q348 239 325 243T274 257Q247 266 227 270T175 275Q139 275 113 252Q103 244 93 243Q80 243
76 250T71 270V294Q71 321 99 341T176 361Q209 361 232 357T283 343Q310 334 330 330T382 325Q403 325 421 332Z" />
<glyph unicode="&#xa1;" glyph-name="exclamdown" horiz-adv-x="235" d="M62 504T70 512T89 520H146Q157 520 165 512T173 493V436Q173 425 165 417T146 409H89Q78 409 70 417T62 436V493Q62 504 70 512ZM72 333T80 341T99 349H136Q147 349 155 341T163 322V-153Q163
-164 155 -172T136 -180H99Q88 -180 80 -172T72 -153V322Q72 333 80 341Z" />
<glyph unicode="&#xa2;" glyph-name="cent" horiz-adv-x="562" d="M389 76T424 154Q431 169 438 175T457 181H487Q498 181 506 173T514 154Q512 123 490 89T427 27T329 -7V-73Q329 -84 321 -92T302 -100H266Q255 -100 247 -92T239 -73V-6Q155 9 107 70T55 220Q54
232 54 266Q54 290 55 300Q62 388 109 449T239 526V583Q239 594 247 602T266 610H302Q313 610 321 602T329 583V527Q385 519 426 493T490 432T514 366Q515 355 507 347T487 339H457Q445 339 438 345T424 366Q389 444 289 444Q234 444 193 407T146 295Q145 284 145
259Q145 236 146 225Q153 150 193 113T289 76Q389 76 424 154Z" />
<glyph unicode="&#xa3;" glyph-name="sterling" horiz-adv-x="678" d="M431 380Q441 380 447 374T453 358V332Q453 322 447 316T431 310H243Q260 233 261 186Q289 179 312 165T365 126Q398 101 419 90T463 78Q525 78 534 161Q535 171 543 177T560 183H606Q615
183 621 177T628 161Q625 88 585 39T463 -11Q419 -11 386 6T309 56Q276 81 256 92T213 104Q151 104 142 22Q141 12 133 6T116 0H70Q61 0 55 6T48 22Q50 83 79 128T166 187Q165 224 158 263T148 310H68Q58 310 52 316T46 332V358Q46 368 52 374T68 380H135Q132 406
132 434Q132 558 195 634T373 710Q457 710 511 674T590 586T617 484Q617 475 611 469T595 462H549Q540 462 533 468T523 484Q509 545 475 582T373 620Q300 620 264 571T227 434Q227 404 231 380H431Z" />
<glyph unicode="&#xa4;" glyph-name="currency" horiz-adv-x="590" d="M70 461Q63 469 63 480Q63 492 70 499L96 526Q106 534 115 534Q126 534 134 526L175 484Q230 520 295 520Q361 520 414 484L456 526Q464 534 475 534Q486 534 494 526L520 499Q528 491 528
480Q528 471 520 461L479 421Q515 366 515 300Q515 235 479 180L521 139Q529 131 529 120Q529 111 521 101L494 75Q487 68 475 68Q464 68 456 75L416 116Q361 80 295 80Q227 80 174 116L134 75Q127 68 115 68Q103 68 96 75L69 101Q62 109 62 120Q62 132 69 139L110
180Q75 236 75 300Q75 366 111 421L70 461ZM330 171T359 188T406 235T424 300Q424 335 407 364T360 411T295 429Q260 429 231 412T184 365T166 300Q166 265 183 236T230 189T295 171Q330 171 359 188Z" />
<glyph unicode="&#xa5;" glyph-name="yen" horiz-adv-x="618" d="M35 664Q30 673 30 678Q30 687 36 693T52 700H95Q113 700 120 694T137 675L309 383L481 675Q491 688 498 694T523 700H566Q575 700 581 694T588 678Q588 673 583 664L372 308H504Q514 308 520 302T526
286V260Q526 250 520 244T504 238H356V188H504Q514 188 520 182T526 166V140Q526 130 520 124T504 118H356V27Q356 16 348 8T329 0H289Q278 0 270 8T262 27V118H114Q104 118 98 124T92 140V166Q92 176 98 182T114 188H262V238H114Q104 238 98 244T92 260V286Q92
296 98 302T114 308H246L35 664Z" />
<glyph unicode="&#xa6;" glyph-name="brokenbar" horiz-adv-x="243" d="M167 491T159 483T140 475H103Q92 475 84 483T76 502V802Q76 813 84 821T103 829H140Q151 829 159 821T167 802V502Q167 491 159 483ZM167 16T159 8T140 0H103Q92 0 84 8T76 27V327Q76 338
84 346T103 354H140Q151 354 159 346T167 327V27Q167 16 159 8Z" />
<glyph unicode="&#xa7;" glyph-name="section" horiz-adv-x="568" d="M473 73T473 25Q473 -17 450 -55T383 -116T276 -140Q210 -140 163 -118T93 -63T69 -3Q69 7 77 14T96 22H129Q148 22 156 11Q173 -11 186 -24T221 -45T276 -54Q322 -54 352 -33T382 25Q382 45
369 60T318 96T203 143Q108 177 75 219T42 323Q42 419 116 464Q95 496 95 545Q95 587 118 625T185 686T292 710Q358 710 405 688T475 633T499 573Q499 563 491 556T472 548H441Q422 548 414 559Q389 592 364 608T292 624Q246 624 216 603T186 545Q186 525 199 510T250
474T365 427Q460 393 493 351T526 247Q526 198 508 164T451 105Q473 73 473 25ZM348 181T378 166Q435 196 435 246Q435 271 423 290T376 328T275 369Q228 384 190 404Q133 372 133 324Q133 299 145 280T192 242T293 201Q348 181 378 166Z" />
<glyph unicode="&#xa8;" glyph-name="dieresis" horiz-adv-x="422" d="M176 616T168 608T149 600H92Q81 600 73 608T65 627V684Q65 695 73 703T92 711H149Q160 711 168 703T176 684V627Q176 616 168 608ZM357 616T349 608T330 600H273Q262 600 254 608T246 627V684Q246
695 254 703T273 711H330Q341 711 349 703T357 684V627Q357 616 349 608Z" />
<glyph unicode="&#xa9;" glyph-name="copyright" horiz-adv-x="822" d="M509 710T591 662T722 531T771 350Q771 252 723 170T592 39T411 -10Q313 -10 231 38T100 169T51 350Q51 448 99 530T230 661T411 710Q509 710 591 662ZM490 60T555 99T658 204T696 350Q696
429 658 495T555 601T411 640Q332 640 267 601T164 496T126 350Q126 271 164 205T267 99T411 60Q490 60 555 99ZM334 237T411 237Q438 237 456 246T488 276Q490 279 493 285T500 294T511 297H554Q564 297 570 291T576 275Q576 250 557 223T500 177T411 158Q335
158 292 201T246 317L245 351L246 385Q248 458 291 501T411 544Q463 544 500 526T556 480T576 427Q576 417 570 411T554 405H511Q504 405 500 409T493 418T488 426Q475 447 457 456T411 465Q334 465 330 385L329 351L330 317Q334 237 411 237Z" />
<glyph unicode="&#xaa;" glyph-name="ordfeminine" horiz-adv-x="365" d="M228 463Q220 449 196 439T144 429Q102 429 76 453T49 508Q49 546 83 570T167 602L228 611Q228 623 219 633T183 644Q170 644 162 641T145 632Q133 624 123 624H92Q70 624 70 639Q70 650
84 665T125 693T187 705Q241 705 270 678T300 603V456Q300 446 294 440T278 434H250Q240 434 234 440T228 456V463ZM183 548Q151 543 140 534T129 511Q129 489 158 489Q191 489 209 509T228 555L183 548Z" />
<glyph unicode="&#xab;" glyph-name="guillemotleft" horiz-adv-x="594" d="M45 373T59 385L256 576Q262 581 270 581Q279 581 285 575T292 559V513Q292 496 288 487T274 468L129 329L274 190Q284 180 288 171T292 145V99Q292 90 286 84T270 77Q262 77 256 82L59
273Q45 285 45 301V357Q45 373 59 385ZM292 373T306 385L503 576Q509 581 517 581Q526 581 532 575T539 559V513Q539 496 535 487T521 468L376 329L521 190Q531 180 535 171T539 145V99Q539 90 533 84T517 77Q509 77 503 82L306 273Q292 285 292 301V357Q292 373
306 385Z" />
<glyph unicode="&#xac;" glyph-name="logicalnot" horiz-adv-x="582" d="M95 264Q84 264 76 272T68 291V323Q68 334 76 342T95 350H480Q491 350 499 342T507 323V164Q507 153 499 145T480 137H443Q432 137 424 145T416 164V264H95Z" />
<glyph unicode="&#xae;" glyph-name="registered" horiz-adv-x="822" d="M509 710T591 662T722 531T771 350Q771 252 723 170T592 39T411 -10Q313 -10 231 38T100 169T51 350Q51 448 99 530T230 661T411 710Q509 710 591 662ZM490 60T555 99T658 204T696 350Q696
429 658 495T555 601T411 640Q332 640 267 601T164 496T126 350Q126 271 164 205T267 99T411 60Q490 60 555 99ZM281 168T275 174T269 190V512Q269 522 275 528T291 534H430Q568 534 568 413Q568 334 509 307L569 204Q573 198 573 190Q573 181 568 175T551 168H510Q492
168 481 187L421 292H353V190Q353 180 347 174T331 168H291Q281 168 275 174ZM430 371Q458 371 471 381T484 413Q484 435 471 445T430 455H353V371H430Z" />
<glyph unicode="&#xaf;" glyph-name="overscore" horiz-adv-x="403" d="M81 605T73 613T65 632V664Q65 675 73 683T92 691H311Q322 691 330 683T338 664V632Q338 621 330 613T311 605H92Q81 605 73 613Z" />
<glyph unicode="&#xb0;" glyph-name="degree" horiz-adv-x="392" d="M237 711T271 692T326 640T347 565Q347 524 327 491T272 438T196 419Q155 419 121 438T66 490T45 565Q45 606 65 639T120 692T196 711Q237 711 271 692ZM230 489T251 510T272 565Q272 599 251
620T196 641Q162 641 141 620T120 565Q120 531 141 510T196 489Q230 489 251 510Z" />
<glyph unicode="&#xb1;" glyph-name="plusminus" d="M318 210Q318 199 310 191T291 183H254Q243 183 235 191T227 210V359H81Q70 359 62 367T54 386V417Q54 428 62 436T81 444H227V590Q227 601 235 609T254 617H291Q302 617 310 609T318 590V444H465Q476 444 484
436T492 417V386Q492 375 484 367T465 359H318V210ZM90 0T82 8T74 27V59Q74 70 82 78T101 86H445Q456 86 464 78T472 59V27Q472 16 464 8T445 0H101Q90 0 82 8Z" />
<glyph unicode="&#xb2;" glyph-name="uni00B2" horiz-adv-x="346" d="M28 405T32 413T50 430Q125 478 158 502T208 547T225 593Q225 611 213 622T173 633Q136 633 119 602Q113 591 108 588T95 584H61Q52 584 47 589T43 603Q46 626 61 649T105 689T173 705Q229
705 265 673T301 593Q301 545 271 509T162 422H294Q304 422 310 416T316 400V372Q316 362 310 356T294 350H50Q40 350 34 356T28 372V396Q28 405 32 413Z" />
<glyph unicode="&#xb3;" glyph-name="uni00B3" horiz-adv-x="344" d="M297 645T294 638T281 620L220 557Q267 548 288 524T309 457Q309 407 273 376T169 345Q110 345 70 369T25 429V432Q25 439 30 443T42 448H91Q102 448 111 436Q125 417 168 417Q232 417 232
457Q232 475 217 484T172 494H125Q115 494 109 500T103 516V532Q103 544 115 556L187 628H68Q58 628 52 634T46 650V678Q46 688 52 694T68 700H275Q285 700 291 694T297 678V657Q297 645 294 638Z" />
<glyph unicode="&#xb4;" glyph-name="acute" horiz-adv-x="331" d="M157 728T164 731T183 735H257Q266 735 271 730T276 715Q276 708 271 703L160 612Q149 603 141 599T118 595H81Q65 595 65 611Q65 619 70 624L146 716Q157 728 164 731Z" />
<glyph unicode="&#xb5;" glyph-name="uni00B5" horiz-adv-x="603" d="M162 -184T154 -192T135 -200H98Q87 -200 79 -192T71 -173V493Q71 504 79 512T98 520H135Q146 520 154 512T162 493V229Q162 154 199 115T302 76Q367 76 404 115T442 229V493Q442 504 450 512T469
520H506Q517 520 525 512T533 493V27Q533 16 525 8T506 0H469Q458 0 450 8T442 27V58Q418 27 387 9T302 -10Q248 -10 217 8T162 58V-173Q162 -184 154 -192Z" />
<glyph unicode="&#xb6;" glyph-name="paragraph" horiz-adv-x="547" d="M445 700Q456 700 464 692T472 673V-73Q472 -84 464 -92T445 -100H408Q397 -100 389 -92T381 -73V614H302V-73Q302 -84 294 -92T275 -100H238Q227 -100 219 -92T211 -73V336Q162 336 120
360T54 427T29 518Q29 567 53 609T120 675T211 700H445Z" />
<glyph unicode="&#xb7;" glyph-name="middot" horiz-adv-x="330" d="M211 410T243 378T275 300Q275 254 243 222T165 190Q119 190 87 222T55 300Q55 346 87 378T165 410Q211 410 243 378Z" />
<glyph unicode="&#xb8;" glyph-name="cedilla" horiz-adv-x="311" d="M136 -56Q149 -48 171 -48Q204 -48 225 -72T247 -132Q247 -171 223 -195T148 -220Q119 -220 93 -206T67 -178Q67 -173 71 -169L85 -156Q93 -150 98 -150Q103 -150 117 -159T148 -169Q191 -169
191 -134Q191 -99 148 -99Q135 -99 123 -103T107 -108Q101 -108 94 -101L77 -83Q73 -79 73 -73Q73 -65 79 -53L114 27H175L136 -56Z" />
<glyph unicode="&#xb9;" glyph-name="uni00B9" horiz-adv-x="248" d="M202 362T196 356T180 350H147Q137 350 131 356T125 372V595L70 554Q65 550 57 550Q47 550 39 559L20 583Q15 590 15 597Q15 607 24 614L131 693Q141 700 154 700H180Q190 700 196 694T202
678V372Q202 362 196 356Z" />
<glyph unicode="&#xba;" glyph-name="ordmasculine" horiz-adv-x="356" d="M124 429T90 457T53 540L52 567L53 594Q56 647 91 676T178 705Q229 705 264 676T303 594Q304 589 304 567Q304 545 303 540Q300 486 266 458T178 429Q124 429 90 457ZM224 493T227 545Q228
550 228 567Q228 584 227 589Q226 614 213 627T178 641Q157 641 144 628T129 589L128 567L129 545Q132 493 178 493Q224 493 227 545Z" />
<glyph unicode="&#xbb;" glyph-name="guillemotright" horiz-adv-x="594" d="M302 285T288 273L91 82Q85 77 77 77Q68 77 62 83T55 99V145Q55 162 59 171T73 190L218 329L73 468Q63 478 59 487T55 513V559Q55 568 61 574T77 581Q85 581 91 576L288 385Q302 373
302 357V301Q302 285 288 273ZM549 285T535 273L338 82Q332 77 324 77Q315 77 309 83T302 99V145Q302 162 306 171T320 190L465 329L320 468Q310 478 306 487T302 513V559Q302 568 308 574T324 581Q332 581 338 576L535 385Q549 373 549 357V301Q549 285 535 273Z"
/>
<glyph unicode="&#xbc;" glyph-name="onequarter" horiz-adv-x="715" d="M557 691T564 695T585 700H623Q634 700 640 695T647 680Q647 674 643 669L149 19Q141 9 134 5T113 0H75Q64 0 58 5T51 20Q51 26 55 31L549 681Q557 691 564 695ZM226 362T220 356T204 350H171Q161
350 155 356T149 372V595L94 554Q89 550 81 550Q71 550 63 559L44 583Q39 590 39 597Q39 607 48 614L155 693Q165 700 178 700H204Q214 700 220 694T226 678V372Q226 362 220 356ZM593 350Q603 350 609 344T615 328V142H650Q660 142 666 136T672 120V92Q672 82
666 76T650 70H615V22Q615 12 609 6T593 0H560Q550 0 544 6T538 22V70H391Q381 70 375 76T369 92V117Q369 131 381 147L515 332Q528 350 545 350H593ZM538 142V249L462 142H538Z" />
<glyph unicode="&#xbd;" glyph-name="onehalf" horiz-adv-x="746" d="M557 691T564 695T585 700H623Q634 700 640 695T647 680Q647 674 643 669L149 19Q141 9 134 5T113 0H75Q64 0 58 5T51 20Q51 26 55 31L549 681Q557 691 564 695ZM226 362T220 356T204 350H171Q161
350 155 356T149 372V595L94 554Q89 550 81 550Q71 550 63 559L44 583Q39 590 39 597Q39 607 48 614L155 693Q165 700 178 700H204Q214 700 220 694T226 678V372Q226 362 220 356ZM416 55T420 63T438 80Q513 128 546 152T596 197T613 243Q613 261 601 272T561 283Q524
283 507 252Q501 241 496 238T483 234H449Q440 234 435 239T431 253Q434 276 449 299T493 339T561 355Q617 355 653 323T689 243Q689 195 659 159T550 72H682Q692 72 698 66T704 50V22Q704 12 698 6T682 0H438Q428 0 422 6T416 22V46Q416 55 420 63Z" />
<glyph unicode="&#xbe;" glyph-name="threequarters" horiz-adv-x="790" d="M633 691T640 695T661 700H699Q710 700 716 695T723 680Q723 674 719 669L225 19Q217 9 210 5T189 0H151Q140 0 134 5T127 20Q127 26 131 31L625 681Q633 691 640 695ZM310 645T307 638T294
620L233 557Q280 548 301 524T322 457Q322 407 286 376T182 345Q123 345 83 369T38 429V432Q38 439 43 443T55 448H104Q115 448 124 436Q138 417 181 417Q245 417 245 457Q245 475 230 484T185 494H138Q128 494 122 500T116 516V532Q116 544 128 556L200 628H81Q71
628 65 634T59 650V678Q59 688 65 694T81 700H288Q298 700 304 694T310 678V657Q310 645 307 638ZM669 350Q679 350 685 344T691 328V142H726Q736 142 742 136T748 120V92Q748 82 742 76T726 70H691V22Q691 12 685 6T669 0H636Q626 0 620 6T614 22V70H467Q457 70
451 76T445 92V117Q445 131 457 147L591 332Q604 350 621 350H669ZM614 142V249L538 142H614Z" />
<glyph unicode="&#xbf;" glyph-name="questiondown" horiz-adv-x="518" d="M205 504T213 512T232 520H289Q300 520 308 512T316 493V436Q316 425 308 417T289 409H232Q221 409 213 417T205 436V493Q205 504 213 512ZM194 -190T143 -166T62 -98T32 -1Q32 39 45
69T78 121T130 170Q173 207 194 236T215 308V322Q215 333 223 341T242 349H279Q290 349 298 341T306 322V301Q306 261 292 231T259 179T206 128Q164 92 144 65T123 -1Q123 -49 163 -77T259 -105Q313 -105 349 -78T399 5Q401 15 408 21T425 27H468Q477 27 484 21T490
5Q487 -42 461 -87T383 -161T259 -190Q194 -190 143 -166Z" />
<glyph unicode="&#xc0;" glyph-name="Agrave" horiz-adv-x="680" d="M166 158L114 25Q105 0 75 0H38Q29 0 23 6T16 22Q16 27 20 36L265 667Q278 700 310 700H370Q402 700 415 667L659 36Q663 27 663 22Q663 13 657 7T641 0H604Q574 0 565 25L513 158H166ZM478
248L340 605L201 248H478ZM387 774T387 766Q387 750 371 750H329Q315 750 307 754T287 767L176 858Q171 863 171 870Q171 879 176 884T190 890H269Q281 890 288 887T306 871L382 779Q387 774 387 766Z" />
<glyph unicode="&#xc1;" glyph-name="Aacute" horiz-adv-x="680" d="M166 158L114 25Q105 0 75 0H38Q29 0 23 6T16 22Q16 27 20 36L265 667Q278 700 310 700H370Q402 700 415 667L659 36Q663 27 663 22Q663 13 657 7T641 0H604Q574 0 565 25L513 158H166ZM478
248L340 605L201 248H478ZM383 883T390 886T409 890H488Q497 890 502 885T507 870Q507 863 502 858L391 767Q380 758 372 754T349 750H307Q291 750 291 766Q291 774 296 779L372 871Q383 883 390 886Z" />
<glyph unicode="&#xc2;" glyph-name="Acircumflex" horiz-adv-x="680" d="M166 158L114 25Q105 0 75 0H38Q29 0 23 6T16 22Q16 27 20 36L265 667Q278 700 310 700H370Q402 700 415 667L659 36Q663 27 663 22Q663 13 657 7T641 0H604Q574 0 565 25L513 158H166ZM478
248L340 605L201 248H478ZM366 890T374 886T392 871L484 779Q489 774 489 766Q489 750 473 750H447Q438 750 432 752T416 761L340 812L264 761Q254 755 248 753T233 750H207Q191 750 191 766Q191 774 196 779L288 871Q298 882 306 886T325 890H355Q366 890 374
886Z" />
<glyph unicode="&#xc3;" glyph-name="Atilde" horiz-adv-x="680" d="M166 158L114 25Q105 0 75 0H38Q29 0 23 6T16 22Q16 27 20 36L265 667Q278 700 310 700H370Q402 700 415 667L659 36Q663 27 663 22Q663 13 657 7T641 0H604Q574 0 565 25L513 158H166ZM478
248L340 605L201 248H478ZM279 777T274 773T264 762Q260 756 257 753T247 750H210Q201 750 196 755T191 769Q191 787 200 809T229 848T277 865Q300 865 315 860T349 846Q361 839 370 836T391 833Q402 833 407 837T417 848Q421 854 424 857T434 860H471Q480 860
485 855T490 841Q490 823 481 801T452 762T404 745Q381 745 365 750T331 764Q321 769 311 773T290 777Q279 777 274 773Z" />
<glyph unicode="&#xc4;" glyph-name="Adieresis" horiz-adv-x="680" d="M166 158L114 25Q105 0 75 0H38Q29 0 23 6T16 22Q16 27 20 36L265 667Q278 700 310 700H370Q402 700 415 667L659 36Q663 27 663 22Q663 13 657 7T641 0H604Q574 0 565 25L513 158H166ZM478
248L340 605L201 248H478ZM290 766T282 758T263 750H206Q195 750 187 758T179 777V834Q179 845 187 853T206 861H263Q274 861 282 853T290 834V777Q290 766 282 758ZM501 766T493 758T474 750H417Q406 750 398 758T390 777V834Q390 845 398 853T417 861H474Q485
861 493 853T501 834V777Q501 766 493 758Z" />
<glyph unicode="&#xc5;" glyph-name="Aring" horiz-adv-x="680" d="M166 158L114 25Q105 0 75 0H38Q29 0 23 6T16 22Q16 27 20 36L265 667Q278 700 310 700H370Q402 700 415 667L659 36Q663 27 663 22Q663 13 657 7T641 0H604Q574 0 565 25L513 158H166ZM478 248L340
605L201 248H478ZM376 900T400 878T425 820Q425 785 401 763T340 740Q304 740 280 762T255 820Q255 855 279 877T340 900Q376 900 400 878ZM353 790T361 798T370 820Q370 833 362 841T340 850Q327 850 319 842T310 820Q310 807 318 799T340 790Q353 790 361 798Z"
/>
<glyph unicode="&#xc6;" glyph-name="AE" horiz-adv-x="959" d="M895 90T903 82T911 63V27Q911 16 903 8T884 0H480Q469 0 461 8T453 27V158H185L107 25Q92 0 68 0H23Q14 0 8 6T1 22Q1 27 5 34L379 667Q388 683 397 691T424 700H876Q887 700 895 692T903 673V637Q903
626 895 618T876 610H548V399H854Q865 399 873 391T881 372V336Q881 325 873 317T854 309H548V90H884Q895 90 903 82ZM453 610L239 248H453V610Z" />
<glyph unicode="&#xc7;" glyph-name="Ccedilla" horiz-adv-x="667" d="M158 181T206 131T342 80Q430 80 472 118T528 216Q530 226 537 232T554 238H600Q609 238 615 232T622 216Q620 168 591 116T500 28T347 -10L326 -56Q339 -48 361 -48Q394 -48 415 -72T437
-132Q437 -171 413 -195T338 -220Q309 -220 283 -206T257 -178Q257 -173 261 -169L275 -156Q283 -150 288 -150Q293 -150 307 -159T338 -169Q381 -169 381 -134Q381 -99 338 -99Q325 -99 313 -103T297 -108Q291 -108 284 -101L267 -83Q263 -79 263 -73Q263 -65
269 -53L289 -6Q185 10 124 82T60 261Q59 291 59 350Q59 409 60 439Q63 517 97 578T195 675T342 710Q435 710 497 674T590 586T622 484Q622 475 616 469T600 462H554Q545 462 538 468T528 484Q514 544 472 582T342 620Q255 620 207 570T155 434Q154 404 154 350Q154
296 155 266Q158 181 206 131Z" />
<glyph unicode="&#xc8;" glyph-name="Egrave" horiz-adv-x="592" d="M181 309H487Q498 309 506 317T514 336V372Q514 383 506 391T487 399H181V610H509Q520 610 528 618T536 637V673Q536 684 528 692T509 700H113Q102 700 94 692T86 673V27Q86 16 94 8T113 0H517Q528
0 536 8T544 27V63Q544 74 536 82T517 90H181V309ZM363 774T363 766Q363 750 347 750H305Q291 750 283 754T263 767L152 858Q147 863 147 870Q147 879 152 884T166 890H245Q257 890 264 887T282 871L358 779Q363 774 363 766Z" />
<glyph unicode="&#xc9;" glyph-name="Eacute" horiz-adv-x="592" d="M181 309H487Q498 309 506 317T514 336V372Q514 383 506 391T487 399H181V610H509Q520 610 528 618T536 637V673Q536 684 528 692T509 700H113Q102 700 94 692T86 673V27Q86 16 94 8T113 0H517Q528
0 536 8T544 27V63Q544 74 536 82T517 90H181V309ZM342 883T349 886T368 890H447Q456 890 461 885T466 870Q466 863 461 858L350 767Q339 758 331 754T308 750H266Q250 750 250 766Q250 774 255 779L331 871Q342 883 349 886Z" />
<glyph unicode="&#xca;" glyph-name="Ecircumflex" horiz-adv-x="592" d="M181 309H487Q498 309 506 317T514 336V372Q514 383 506 391T487 399H181V610H509Q520 610 528 618T536 637V673Q536 684 528 692T509 700H113Q102 700 94 692T86 673V27Q86 16 94 8T113
0H517Q528 0 536 8T544 27V63Q544 74 536 82T517 90H181V309ZM341 890T349 886T367 871L459 779Q464 774 464 766Q464 750 448 750H422Q413 750 407 752T391 761L315 812L239 761Q229 755 223 753T208 750H182Q166 750 166 766Q166 774 171 779L263 871Q273 882
281 886T300 890H330Q341 890 349 886Z" />
<glyph unicode="&#xcb;" glyph-name="Edieresis" horiz-adv-x="592" d="M181 309H487Q498 309 506 317T514 336V372Q514 383 506 391T487 399H181V610H509Q520 610 528 618T536 637V673Q536 684 528 692T509 700H113Q102 700 94 692T86 673V27Q86 16 94 8T113
0H517Q528 0 536 8T544 27V63Q544 74 536 82T517 90H181V309ZM265 766T257 758T238 750H181Q170 750 162 758T154 777V834Q154 845 162 853T181 861H238Q249 861 257 853T265 834V777Q265 766 257 758ZM476 766T468 758T449 750H392Q381 750 373 758T365 777V834Q365
845 373 853T392 861H449Q460 861 468 853T476 834V777Q476 766 468 758Z" />
<glyph unicode="&#xcc;" glyph-name="Igrave" horiz-adv-x="267" d="M102 0T94 8T86 27V673Q86 684 94 692T113 700H154Q165 700 173 692T181 673V27Q181 16 173 8T154 0H113Q102 0 94 8ZM435 774T435 766Q435 750 419 750H377Q363 750 355 754T335 767L224 858Q219
863 219 870Q219 879 224 884T238 890H317Q329 890 336 887T354 871L430 779Q435 774 435 766Z" />
<glyph unicode="&#xcd;" glyph-name="Iacute" horiz-adv-x="267" d="M102 0T94 8T86 27V673Q86 684 94 692T113 700H154Q165 700 173 692T181 673V27Q181 16 173 8T154 0H113Q102 0 94 8ZM177 883T184 886T203 890H282Q291 890 296 885T301 870Q301 863 296 858L185
767Q174 758 166 754T143 750H101Q85 750 85 766Q85 774 90 779L166 871Q177 883 184 886Z" />
<glyph unicode="&#xce;" glyph-name="Icircumflex" horiz-adv-x="267" d="M102 0T94 8T86 27V673Q86 684 94 692T113 700H154Q165 700 173 692T181 673V27Q181 16 173 8T154 0H113Q102 0 94 8ZM415 890T423 886T441 871L533 779Q538 774 538 766Q538 750 522 750H496Q487
750 481 752T465 761L389 812L313 761Q303 755 297 753T282 750H256Q240 750 240 766Q240 774 245 779L337 871Q347 882 355 886T374 890H404Q415 890 423 886Z" />
<glyph unicode="&#xcf;" glyph-name="Idieresis" horiz-adv-x="267" d="M102 0T94 8T86 27V673Q86 684 94 692T113 700H154Q165 700 173 692T181 673V27Q181 16 173 8T154 0H113Q102 0 94 8ZM339 766T331 758T312 750H255Q244 750 236 758T228 777V834Q228 845
236 853T255 861H312Q323 861 331 853T339 834V777Q339 766 331 758ZM550 766T542 758T523 750H466Q455 750 447 758T439 777V834Q439 845 447 853T466 861H523Q534 861 542 853T550 834V777Q550 766 542 758Z" />
<glyph unicode="&#xd0;" glyph-name="Eth" horiz-adv-x="702" d="M642 188T606 127T507 33T362 0H127Q116 0 108 8T100 27V312H42Q31 312 23 320T15 339V370Q15 381 23 389T42 397H100V673Q100 684 108 692T127 700H356Q439 700 503 668T605 574T643 429Q644 399
644 350Q644 301 643 271Q642 188 606 127ZM195 610V397H330Q341 397 349 389T357 370V339Q357 328 349 320T330 312H195V90H357Q457 90 501 142T548 276Q549 306 549 350Q549 394 548 424Q546 505 499 557T352 610H195Z" />
<glyph unicode="&#xd1;" glyph-name="Ntilde" horiz-adv-x="694" d="M533 0T524 8T506 30L181 519V27Q181 16 173 8T154 0H113Q102 0 94 8T86 27V673Q86 684 94 692T113 700H148Q161 700 170 692T188 670L513 181V673Q513 684 521 692T540 700H581Q592 700 600
692T608 673V27Q608 16 600 8T581 0H546Q533 0 524 8ZM286 777T281 773T271 762Q267 756 264 753T254 750H217Q208 750 203 755T198 769Q198 787 207 809T236 848T284 865Q307 865 322 860T356 846Q368 839 377 836T398 833Q409 833 414 837T424 848Q428 854 431
857T441 860H478Q487 860 492 855T497 841Q497 823 488 801T459 762T411 745Q388 745 372 750T338 764Q328 769 318 773T297 777Q286 777 281 773Z" />
<glyph unicode="&#xd2;" glyph-name="Ograve" horiz-adv-x="672" d="M421 710T483 674T577 577T612 439Q614 379 614 350Q614 321 612 261Q609 185 577 124T483 26T336 -10Q251 -10 190 26T96 123T60 261Q59 291 59 350Q59 409 60 439Q62 515 94 576T189 674T336
710Q421 710 483 674ZM256 620T207 573T155 434Q154 404 154 350Q154 296 155 266Q158 174 207 127T336 80Q416 80 465 127T517 266Q519 326 519 350Q519 374 517 434Q514 526 465 573T336 620Q256 620 207 573ZM384 774T384 766Q384 750 368 750H326Q312 750 304
754T284 767L173 858Q168 863 168 870Q168 879 173 884T187 890H266Q278 890 285 887T303 871L379 779Q384 774 384 766Z" />
<glyph unicode="&#xd3;" glyph-name="Oacute" horiz-adv-x="672" d="M421 710T483 674T577 577T612 439Q614 379 614 350Q614 321 612 261Q609 185 577 124T483 26T336 -10Q251 -10 190 26T96 123T60 261Q59 291 59 350Q59 409 60 439Q62 515 94 576T189 674T336
710Q421 710 483 674ZM256 620T207 573T155 434Q154 404 154 350Q154 296 155 266Q158 174 207 127T336 80Q416 80 465 127T517 266Q519 326 519 350Q519 374 517 434Q514 526 465 573T336 620Q256 620 207 573ZM383 883T390 886T409 890H488Q497 890 502 885T507
870Q507 863 502 858L391 767Q380 758 372 754T349 750H307Q291 750 291 766Q291 774 296 779L372 871Q383 883 390 886Z" />
<glyph unicode="&#xd4;" glyph-name="Ocircumflex" horiz-adv-x="672" d="M421 710T483 674T577 577T612 439Q614 379 614 350Q614 321 612 261Q609 185 577 124T483 26T336 -10Q251 -10 190 26T96 123T60 261Q59 291 59 350Q59 409 60 439Q62 515 94 576T189
674T336 710Q421 710 483 674ZM256 620T207 573T155 434Q154 404 154 350Q154 296 155 266Q158 174 207 127T336 80Q416 80 465 127T517 266Q519 326 519 350Q519 374 517 434Q514 526 465 573T336 620Q256 620 207 573ZM362 890T370 886T388 871L480 779Q485 774
485 766Q485 750 469 750H443Q434 750 428 752T412 761L336 812L260 761Q250 755 244 753T229 750H203Q187 750 187 766Q187 774 192 779L284 871Q294 882 302 886T321 890H351Q362 890 370 886Z" />
<glyph unicode="&#xd5;" glyph-name="Otilde" horiz-adv-x="672" d="M421 710T483 674T577 577T612 439Q614 379 614 350Q614 321 612 261Q609 185 577 124T483 26T336 -10Q251 -10 190 26T96 123T60 261Q59 291 59 350Q59 409 60 439Q62 515 94 576T189 674T336
710Q421 710 483 674ZM256 620T207 573T155 434Q154 404 154 350Q154 296 155 266Q158 174 207 127T336 80Q416 80 465 127T517 266Q519 326 519 350Q519 374 517 434Q514 526 465 573T336 620Q256 620 207 573ZM275 777T270 773T260 762Q256 756 253 753T243 750H206Q197
750 192 755T187 769Q187 787 196 809T225 848T273 865Q296 865 311 860T345 846Q357 839 366 836T387 833Q398 833 403 837T413 848Q417 854 420 857T430 860H467Q476 860 481 855T486 841Q486 823 477 801T448 762T400 745Q377 745 361 750T327 764Q317 769 307
773T286 777Q275 777 270 773Z" />
<glyph unicode="&#xd6;" glyph-name="Odieresis" horiz-adv-x="672" d="M421 710T483 674T577 577T612 439Q614 379 614 350Q614 321 612 261Q609 185 577 124T483 26T336 -10Q251 -10 190 26T96 123T60 261Q59 291 59 350Q59 409 60 439Q62 515 94 576T189 674T336
710Q421 710 483 674ZM256 620T207 573T155 434Q154 404 154 350Q154 296 155 266Q158 174 207 127T336 80Q416 80 465 127T517 266Q519 326 519 350Q519 374 517 434Q514 526 465 573T336 620Q256 620 207 573ZM286 766T278 758T259 750H202Q191 750 183 758T175
777V834Q175 845 183 853T202 861H259Q270 861 278 853T286 834V777Q286 766 278 758ZM497 766T489 758T470 750H413Q402 750 394 758T386 777V834Q386 845 394 853T413 861H470Q481 861 489 853T497 834V777Q497 766 489 758Z" />
<glyph unicode="&#xd7;" glyph-name="multiply" horiz-adv-x="555" d="M67 479Q59 487 59 498Q59 509 67 517L93 543Q101 551 112 551Q124 551 131 543L277 396L424 543Q431 551 443 551Q455 551 462 543L488 517Q496 510 496 498Q496 486 488 479L341 332L488
186Q496 179 496 167Q496 156 488 148L462 122Q454 114 443 114Q432 114 424 122L277 268L131 122Q123 114 112 114Q103 114 93 122L67 148Q59 158 59 167Q59 178 67 186L213 332L67 479Z" />
<glyph unicode="&#xd8;" glyph-name="Oslash" horiz-adv-x="689" d="M455 710T525 652T614 497L648 510Q655 513 659 513Q668 513 674 507T680 492V464Q680 451 675 444T658 431L621 417Q623 365 623 342Q623 320 621 266Q618 187 586 125T492 26T345 -10Q235
-10 166 48T76 203L40 189Q33 186 29 186Q20 186 14 192T8 207V235Q8 249 13 256T30 268L68 283L67 345Q67 370 69 434Q71 513 103 575T197 674T345 710Q455 710 525 652ZM524 461Q514 539 466 579T345 620Q265 620 216 573T164 434Q162 393 162 320L524 461ZM166
238Q175 160 223 120T345 80Q425 80 474 127T526 266Q527 295 527 347V380L166 238Z" />
<glyph unicode="&#xd9;" glyph-name="Ugrave" horiz-adv-x="698" d="M602 700T610 692T618 673V273Q618 143 552 67T349 -10Q211 -10 146 66T80 273V673Q80 684 88 692T107 700H148Q159 700 167 692T175 673V268Q175 172 220 124T349 75Q432 75 478 123T524 268V673Q524
684 532 692T551 700H591Q602 700 610 692ZM401 774T401 766Q401 750 385 750H343Q329 750 321 754T301 767L190 858Q185 863 185 870Q185 879 190 884T204 890H283Q295 890 302 887T320 871L396 779Q401 774 401 766Z" />
<glyph unicode="&#xda;" glyph-name="Uacute" horiz-adv-x="698" d="M602 700T610 692T618 673V273Q618 143 552 67T349 -10Q211 -10 146 66T80 273V673Q80 684 88 692T107 700H148Q159 700 167 692T175 673V268Q175 172 220 124T349 75Q432 75 478 123T524 268V673Q524
684 532 692T551 700H591Q602 700 610 692ZM394 883T401 886T420 890H499Q508 890 513 885T518 870Q518 863 513 858L402 767Q391 758 383 754T360 750H318Q302 750 302 766Q302 774 307 779L383 871Q394 883 401 886Z" />
<glyph unicode="&#xdb;" glyph-name="Ucircumflex" horiz-adv-x="698" d="M602 700T610 692T618 673V273Q618 143 552 67T349 -10Q211 -10 146 66T80 273V673Q80 684 88 692T107 700H148Q159 700 167 692T175 673V268Q175 172 220 124T349 75Q432 75 478 123T524
268V673Q524 684 532 692T551 700H591Q602 700 610 692ZM375 890T383 886T401 871L493 779Q498 774 498 766Q498 750 482 750H456Q447 750 441 752T425 761L349 812L273 761Q263 755 257 753T242 750H216Q200 750 200 766Q200 774 205 779L297 871Q307 882 315
886T334 890H364Q375 890 383 886Z" />
<glyph unicode="&#xdc;" glyph-name="Udieresis" horiz-adv-x="698" d="M602 700T610 692T618 673V273Q618 143 552 67T349 -10Q211 -10 146 66T80 273V673Q80 684 88 692T107 700H148Q159 700 167 692T175 673V268Q175 172 220 124T349 75Q432 75 478 123T524
268V673Q524 684 532 692T551 700H591Q602 700 610 692ZM299 766T291 758T272 750H215Q204 750 196 758T188 777V834Q188 845 196 853T215 861H272Q283 861 291 853T299 834V777Q299 766 291 758ZM510 766T502 758T483 750H426Q415 750 407 758T399 777V834Q399
845 407 853T426 861H483Q494 861 502 853T510 834V777Q510 766 502 758Z" />
<glyph unicode="&#xdd;" glyph-name="Yacute" horiz-adv-x="643" d="M369 16T361 8T342 0H301Q290 0 282 8T274 27V261L35 664Q30 673 30 678Q30 687 36 693T52 700H95Q113 700 121 694T137 675L321 357L506 675Q513 687 521 693T548 700H591Q600 700 606 694T613
678Q613 673 608 664L369 261V27Q369 16 361 8ZM363 883T370 886T389 890H468Q477 890 482 885T487 870Q487 863 482 858L371 767Q360 758 352 754T329 750H287Q271 750 271 766Q271 774 276 779L352 871Q363 883 370 886Z" />
<glyph unicode="&#xde;" glyph-name="Thorn" horiz-adv-x="644" d="M365 562Q469 562 537 508T606 350Q606 280 574 231T487 158T365 134H181V27Q181 16 173 8T154 0H113Q102 0 94 8T86 27V673Q86 684 94 692T113 700H154Q165 700 173 692T181 673V562H365ZM360
224Q433 224 472 255T511 350Q511 472 360 472H181V224H360Z" />
<glyph unicode="&#xdf;" glyph-name="germandbls" horiz-adv-x="586" d="M446 86T446 209Q446 265 413 298T303 332H248Q238 332 232 338T226 354V396Q226 406 232 412T248 418H298Q361 418 390 446T420 520Q420 566 386 595T293 624Q232 624 199 585T166 471V27Q166
16 158 8T139 0H102Q91 0 83 8T75 27V481Q75 547 102 599T179 681T293 710Q356 710 405 684T483 616T511 525Q511 435 447 381Q493 350 515 309T537 214Q537 115 483 58T307 0H253Q242 0 234 8T226 27V59Q226 70 234 78T253 86H303Q446 86 446 209Z" />
<glyph unicode="&#xe0;" glyph-name="agrave" d="M384 329V342Q384 391 352 417T267 444Q227 444 205 431T162 390Q156 382 149 379T130 376H100Q89 376 81 384T73 403Q76 433 102 462T173 511T267 530Q360 530 417 478T475 332V27Q475 16 467 8T448 0H411Q400
0 392 8T384 27V68Q368 32 316 11T212 -10Q161 -10 121 8T60 59T38 131Q38 206 94 248T243 306L384 329ZM384 249L266 230Q201 220 165 198T129 141Q129 116 152 96T222 76Q294 76 339 117T384 224V249ZM317 619T317 611Q317 595 301 595H264Q250 595 242 599T222
612L111 703Q106 708 106 715Q106 724 111 729T125 735H199Q211 735 218 732T236 716L312 624Q317 619 317 611Z" />
<glyph unicode="&#xe1;" glyph-name="aacute" d="M384 329V342Q384 391 352 417T267 444Q227 444 205 431T162 390Q156 382 149 379T130 376H100Q89 376 81 384T73 403Q76 433 102 462T173 511T267 530Q360 530 417 478T475 332V27Q475 16 467 8T448 0H411Q400
0 392 8T384 27V68Q368 32 316 11T212 -10Q161 -10 121 8T60 59T38 131Q38 206 94 248T243 306L384 329ZM384 249L266 230Q201 220 165 198T129 141Q129 116 152 96T222 76Q294 76 339 117T384 224V249ZM309 728T316 731T335 735H409Q418 735 423 730T428 715Q428
708 423 703L312 612Q301 603 293 599T270 595H233Q217 595 217 611Q217 619 222 624L298 716Q309 728 316 731Z" />
<glyph unicode="&#xe2;" glyph-name="acircumflex" d="M384 329V342Q384 391 352 417T267 444Q227 444 205 431T162 390Q156 382 149 379T130 376H100Q89 376 81 384T73 403Q76 433 102 462T173 511T267 530Q360 530 417 478T475 332V27Q475 16 467 8T448 0H411Q400
0 392 8T384 27V68Q368 32 316 11T212 -10Q161 -10 121 8T60 59T38 131Q38 206 94 248T243 306L384 329ZM384 249L266 230Q201 220 165 198T129 141Q129 116 152 96T222 76Q294 76 339 117T384 224V249ZM287 735T295 731T313 716L405 624Q410 619 410 611Q410 595
394 595H373Q364 595 358 597T342 606L266 657L190 606Q180 600 174 598T159 595H138Q122 595 122 611Q122 619 127 624L219 716Q229 727 237 731T256 735H276Q287 735 295 731Z" />
<glyph unicode="&#xe3;" glyph-name="atilde" d="M384 329V342Q384 391 352 417T267 444Q227 444 205 431T162 390Q156 382 149 379T130 376H100Q89 376 81 384T73 403Q76 433 102 462T173 511T267 530Q360 530 417 478T475 332V27Q475 16 467 8T448 0H411Q400
0 392 8T384 27V68Q368 32 316 11T212 -10Q161 -10 121 8T60 59T38 131Q38 206 94 248T243 306L384 329ZM384 249L266 230Q201 220 165 198T129 141Q129 116 152 96T222 76Q294 76 339 117T384 224V249ZM208 622T203 618T193 607Q189 601 186 598T176 595H139Q130
595 125 600T120 614Q120 632 129 654T158 693T206 710Q228 710 243 705T275 691Q284 686 294 682T314 678Q325 678 330 682T340 693Q344 699 347 702T357 705H394Q403 705 408 700T413 686Q413 668 404 646T375 607T327 590Q305 590 291 595T256 610Q247 615 238
618T219 622Q208 622 203 618Z" />
<glyph unicode="&#xe4;" glyph-name="adieresis" d="M384 329V342Q384 391 352 417T267 444Q227 444 205 431T162 390Q156 382 149 379T130 376H100Q89 376 81 384T73 403Q76 433 102 462T173 511T267 530Q360 530 417 478T475 332V27Q475 16 467 8T448 0H411Q400
0 392 8T384 27V68Q368 32 316 11T212 -10Q161 -10 121 8T60 59T38 131Q38 206 94 248T243 306L384 329ZM384 249L266 230Q201 220 165 198T129 141Q129 116 152 96T222 76Q294 76 339 117T384 224V249ZM231 616T223 608T204 600H147Q136 600 128 608T120 627V684Q120
695 128 703T147 711H204Q215 711 223 703T231 684V627Q231 616 223 608ZM412 616T404 608T385 600H328Q317 600 309 608T301 627V684Q301 695 309 703T328 711H385Q396 711 404 703T412 684V627Q412 616 404 608Z" />
<glyph unicode="&#xe5;" glyph-name="aring" d="M384 329V342Q384 391 352 417T267 444Q227 444 205 431T162 390Q156 382 149 379T130 376H100Q89 376 81 384T73 403Q76 433 102 462T173 511T267 530Q360 530 417 478T475 332V27Q475 16 467 8T448 0H411Q400
0 392 8T384 27V68Q368 32 316 11T212 -10Q161 -10 121 8T60 59T38 131Q38 206 94 248T243 306L384 329ZM384 249L266 230Q201 220 165 198T129 141Q129 116 152 96T222 76Q294 76 339 117T384 224V249ZM302 750T326 728T351 670Q351 635 327 613T266 590Q230 590
206 612T181 670Q181 705 205 727T266 750Q302 750 326 728ZM279 640T287 648T296 670Q296 683 288 691T266 700Q253 700 245 692T236 670Q236 657 244 649T266 640Q279 640 287 648Z" />
<glyph unicode="&#xe6;" glyph-name="ae" horiz-adv-x="893" d="M384 329V342Q384 391 352 417T267 444Q227 444 205 431T162 390Q156 382 149 379T130 376H100Q89 376 81 384T73 403Q76 433 102 462T173 511T267 530Q324 530 369 510T442 450Q472 488 516 509T616
530Q723 530 785 462T847 277V250Q847 239 839 231T820 223H476V217Q478 151 516 114T616 76Q666 76 693 89T743 126Q751 134 757 137T775 140H805Q817 140 825 132T832 113Q828 86 803 58T730 10T616 -10Q555 -10 507 16T428 91Q390 41 340 16T212 -10Q161 -10
121 8T60 59T38 131Q38 206 94 248T243 306L384 329ZM757 307V310Q757 371 719 407T616 444Q558 444 518 407T476 310V307H757ZM384 249L266 230Q201 220 165 198T129 141Q129 116 152 96T222 76Q294 76 339 117T384 224V249Z" />
<glyph unicode="&#xe7;" glyph-name="ccedilla" horiz-adv-x="555" d="M385 76T420 154Q427 169 434 175T453 181H483Q494 181 502 174T510 156Q510 122 484 84T409 19T292 -10L271 -56Q284 -48 306 -48Q339 -48 360 -72T382 -132Q382 -171 358 -195T283 -220Q254
-220 228 -206T202 -178Q202 -173 206 -169L220 -156Q228 -150 233 -150Q238 -150 252 -159T283 -169Q326 -169 326 -134Q326 -99 283 -99Q270 -99 258 -103T242 -108Q236 -108 229 -101L212 -83Q208 -79 208 -73Q208 -65 214 -53L234 -6Q150 9 103 70T51 220Q50
232 50 266Q50 290 51 300Q60 402 120 466T285 530Q354 530 404 504T481 439T510 366Q511 355 503 347T483 339H453Q441 339 434 345T420 366Q385 444 285 444Q230 444 189 407T142 295Q141 284 141 259Q141 236 142 225Q149 150 189 113T285 76Q385 76 420 154Z"
/>
<glyph unicode="&#xe8;" glyph-name="egrave" horiz-adv-x="557" d="M387 530T449 462T511 277V250Q511 239 503 231T484 223H140V217Q142 151 180 114T280 76Q330 76 357 89T407 126Q415 134 421 137T439 140H469Q481 140 489 132T496 113Q492 86 467 58T394
10T280 -10Q216 -10 166 19T87 101T51 218Q49 248 49 264Q49 280 51 310Q57 372 86 422T165 501T280 530Q387 530 449 462ZM421 307V310Q421 371 383 407T280 444Q222 444 182 407T140 310V307H421ZM333 619T333 611Q333 595 317 595H280Q266 595 258 599T238 612L127
703Q122 708 122 715Q122 724 127 729T141 735H215Q227 735 234 732T252 716L328 624Q333 619 333 611Z" />
<glyph unicode="&#xe9;" glyph-name="eacute" horiz-adv-x="557" d="M387 530T449 462T511 277V250Q511 239 503 231T484 223H140V217Q142 151 180 114T280 76Q330 76 357 89T407 126Q415 134 421 137T439 140H469Q481 140 489 132T496 113Q492 86 467 58T394
10T280 -10Q216 -10 166 19T87 101T51 218Q49 248 49 264Q49 280 51 310Q57 372 86 422T165 501T280 530Q387 530 449 462ZM421 307V310Q421 371 383 407T280 444Q222 444 182 407T140 310V307H421ZM322 728T329 731T348 735H422Q431 735 436 730T441 715Q441 708
436 703L325 612Q314 603 306 599T283 595H246Q230 595 230 611Q230 619 235 624L311 716Q322 728 329 731Z" />
<glyph unicode="&#xea;" glyph-name="ecircumflex" horiz-adv-x="557" d="M387 530T449 462T511 277V250Q511 239 503 231T484 223H140V217Q142 151 180 114T280 76Q330 76 357 89T407 126Q415 134 421 137T439 140H469Q481 140 489 132T496 113Q492 86 467 58T394
10T280 -10Q216 -10 166 19T87 101T51 218Q49 248 49 264Q49 280 51 310Q57 372 86 422T165 501T280 530Q387 530 449 462ZM421 307V310Q421 371 383 407T280 444Q222 444 182 407T140 310V307H421ZM300 735T308 731T326 716L418 624Q423 619 423 611Q423 595 407
595H386Q377 595 371 597T355 606L279 657L203 606Q193 600 187 598T172 595H151Q135 595 135 611Q135 619 140 624L232 716Q242 727 250 731T269 735H289Q300 735 308 731Z" />
<glyph unicode="&#xeb;" glyph-name="edieresis" horiz-adv-x="557" d="M387 530T449 462T511 277V250Q511 239 503 231T484 223H140V217Q142 151 180 114T280 76Q330 76 357 89T407 126Q415 134 421 137T439 140H469Q481 140 489 132T496 113Q492 86 467 58T394
10T280 -10Q216 -10 166 19T87 101T51 218Q49 248 49 264Q49 280 51 310Q57 372 86 422T165 501T280 530Q387 530 449 462ZM421 307V310Q421 371 383 407T280 444Q222 444 182 407T140 310V307H421ZM244 616T236 608T217 600H160Q149 600 141 608T133 627V684Q133
695 141 703T160 711H217Q228 711 236 703T244 684V627Q244 616 236 608ZM425 616T417 608T398 600H341Q330 600 322 608T314 627V684Q314 695 322 703T341 711H398Q409 711 417 703T425 684V627Q425 616 417 608Z" />
<glyph unicode="&#xec;" glyph-name="igrave" horiz-adv-x="241" d="M166 16T158 8T139 0H102Q91 0 83 8T75 27V493Q75 504 83 512T102 520H139Q150 520 158 512T166 493V27Q166 16 158 8ZM425 619T425 611Q425 595 409 595H372Q358 595 350 599T330 612L219 703Q214
708 214 715Q214 724 219 729T233 735H307Q319 735 326 732T344 716L420 624Q425 619 425 611Z" />
<glyph unicode="&#xed;" glyph-name="iacute" horiz-adv-x="241" d="M166 16T158 8T139 0H102Q91 0 83 8T75 27V493Q75 504 83 512T102 520H139Q150 520 158 512T166 493V27Q166 16 158 8ZM161 728T168 731T187 735H261Q270 735 275 730T280 715Q280 708 275 703L164
612Q153 603 145 599T122 595H85Q69 595 69 611Q69 619 74 624L150 716Q161 728 168 731Z" />
<glyph unicode="&#xee;" glyph-name="icircumflex" horiz-adv-x="241" d="M166 16T158 8T139 0H102Q91 0 83 8T75 27V493Q75 504 83 512T102 520H139Q150 520 158 512T166 493V27Q166 16 158 8ZM397 735T405 731T423 716L515 624Q520 619 520 611Q520 595 504
595H483Q474 595 468 597T452 606L376 657L300 606Q290 600 284 598T269 595H248Q232 595 232 611Q232 619 237 624L329 716Q339 727 347 731T366 735H386Q397 735 405 731Z" />
<glyph unicode="&#xef;" glyph-name="idieresis" horiz-adv-x="241" d="M166 16T158 8T139 0H102Q91 0 83 8T75 27V493Q75 504 83 512T102 520H139Q150 520 158 512T166 493V27Q166 16 158 8ZM341 616T333 608T314 600H257Q246 600 238 608T230 627V684Q230 695
238 703T257 711H314Q325 711 333 703T341 684V627Q341 616 333 608ZM522 616T514 608T495 600H438Q427 600 419 608T411 627V684Q411 695 419 703T438 711H495Q506 711 514 703T522 684V627Q522 616 514 608Z" />
<glyph unicode="&#xf0;" glyph-name="eth" horiz-adv-x="559" d="M366 497T330 542L239 506Q232 503 228 503Q219 503 213 509T207 524V552Q207 566 212 573T229 585L274 602Q232 640 210 658Q193 671 193 680Q193 689 198 694T213 700H265Q285 700 301 687Q341
651 357 635L458 675Q466 678 469 678Q478 678 484 672T490 657V629Q490 616 485 609T468 596L412 574Q459 513 482 433T505 230Q505 160 476 106T394 21T276 -10Q210 -10 158 20T77 105T47 230Q47 304 76 358T157 441T276 470Q334 470 385 446Q366 497 330 542ZM138
159T173 118T276 76Q344 76 379 117T414 230Q414 301 379 342T276 384Q208 384 173 343T138 230Q138 159 173 118Z" />
<glyph unicode="&#xf1;" glyph-name="ntilde" horiz-adv-x="607" d="M537 16T529 8T510 0H473Q462 0 454 8T446 27V291Q446 366 409 405T306 444Q241 444 204 405T166 291V27Q166 16 158 8T139 0H102Q91 0 83 8T75 27V493Q75 504 83 512T102 520H139Q150 520 158
512T166 493V462Q188 491 226 510T321 530Q384 530 433 503T509 426T537 306V27Q537 16 529 8ZM248 622T243 618T233 607Q229 601 226 598T216 595H179Q170 595 165 600T160 614Q160 632 169 654T198 693T246 710Q268 710 283 705T315 691Q324 686 334 682T354
678Q365 678 370 682T380 693Q384 699 387 702T397 705H434Q443 705 448 700T453 686Q453 668 444 646T415 607T367 590Q345 590 331 595T296 610Q287 615 278 618T259 622Q248 622 243 618Z" />
<glyph unicode="&#xf2;" glyph-name="ograve" horiz-adv-x="577" d="M527 285T527 259Q527 235 525 213Q516 111 455 51T288 -10Q183 -10 122 50T51 213Q50 224 50 259Q50 296 51 307Q59 409 121 469T288 530Q393 530 455 470T525 307Q527 285 527 259ZM428 366T392
405T288 444Q221 444 185 405T142 302Q141 290 141 259Q141 229 142 218Q148 154 184 115T288 76Q355 76 391 115T434 218Q436 240 436 259Q436 278 434 302Q428 366 392 405ZM339 619T339 611Q339 595 323 595H286Q272 595 264 599T244 612L133 703Q128 708 128
715Q128 724 133 729T147 735H221Q233 735 240 732T258 716L334 624Q339 619 339 611Z" />
<glyph unicode="&#xf3;" glyph-name="oacute" horiz-adv-x="577" d="M527 285T527 259Q527 235 525 213Q516 111 455 51T288 -10Q183 -10 122 50T51 213Q50 224 50 259Q50 296 51 307Q59 409 121 469T288 530Q393 530 455 470T525 307Q527 285 527 259ZM428 366T392
405T288 444Q221 444 185 405T142 302Q141 290 141 259Q141 229 142 218Q148 154 184 115T288 76Q355 76 391 115T434 218Q436 240 436 259Q436 278 434 302Q428 366 392 405ZM329 728T336 731T355 735H429Q438 735 443 730T448 715Q448 708 443 703L332 612Q321
603 313 599T290 595H253Q237 595 237 611Q237 619 242 624L318 716Q329 728 336 731Z" />
<glyph unicode="&#xf4;" glyph-name="ocircumflex" horiz-adv-x="577" d="M527 285T527 259Q527 235 525 213Q516 111 455 51T288 -10Q183 -10 122 50T51 213Q50 224 50 259Q50 296 51 307Q59 409 121 469T288 530Q393 530 455 470T525 307Q527 285 527 259ZM428
366T392 405T288 444Q221 444 185 405T142 302Q141 290 141 259Q141 229 142 218Q148 154 184 115T288 76Q355 76 391 115T434 218Q436 240 436 259Q436 278 434 302Q428 366 392 405ZM309 735T317 731T335 716L427 624Q432 619 432 611Q432 595 416 595H395Q386
595 380 597T364 606L288 657L212 606Q202 600 196 598T181 595H160Q144 595 144 611Q144 619 149 624L241 716Q251 727 259 731T278 735H298Q309 735 317 731Z" />
<glyph unicode="&#xf5;" glyph-name="otilde" horiz-adv-x="577" d="M527 285T527 259Q527 235 525 213Q516 111 455 51T288 -10Q183 -10 122 50T51 213Q50 224 50 259Q50 296 51 307Q59 409 121 469T288 530Q393 530 455 470T525 307Q527 285 527 259ZM428 366T392
405T288 444Q221 444 185 405T142 302Q141 290 141 259Q141 229 142 218Q148 154 184 115T288 76Q355 76 391 115T434 218Q436 240 436 259Q436 278 434 302Q428 366 392 405ZM230 622T225 618T215 607Q211 601 208 598T198 595H161Q152 595 147 600T142 614Q142
632 151 654T180 693T228 710Q250 710 265 705T297 691Q306 686 316 682T336 678Q347 678 352 682T362 693Q366 699 369 702T379 705H416Q425 705 430 700T435 686Q435 668 426 646T397 607T349 590Q327 590 313 595T278 610Q269 615 260 618T241 622Q230 622 225
618Z" />
<glyph unicode="&#xf6;" glyph-name="odieresis" horiz-adv-x="577" d="M527 285T527 259Q527 235 525 213Q516 111 455 51T288 -10Q183 -10 122 50T51 213Q50 224 50 259Q50 296 51 307Q59 409 121 469T288 530Q393 530 455 470T525 307Q527 285 527 259ZM428
366T392 405T288 444Q221 444 185 405T142 302Q141 290 141 259Q141 229 142 218Q148 154 184 115T288 76Q355 76 391 115T434 218Q436 240 436 259Q436 278 434 302Q428 366 392 405ZM253 616T245 608T226 600H169Q158 600 150 608T142 627V684Q142 695 150 703T169
711H226Q237 711 245 703T253 684V627Q253 616 245 608ZM434 616T426 608T407 600H350Q339 600 331 608T323 627V684Q323 695 331 703T350 711H407Q418 711 426 703T434 684V627Q434 616 426 608Z" />
<glyph unicode="&#xf7;" glyph-name="divide" horiz-adv-x="535" d="M312 536T320 528T328 509V442Q328 431 320 423T301 415H234Q223 415 215 423T207 442V509Q207 520 215 528T234 536H301Q312 536 320 528ZM69 257T61 265T53 284V316Q53 327 61 335T80 343H455Q466
343 474 335T482 316V284Q482 273 474 265T455 257H80Q69 257 61 265ZM312 186T320 178T328 159V92Q328 81 320 73T301 65H234Q223 65 215 73T207 92V159Q207 170 215 178T234 186H301Q312 186 320 178Z" />
<glyph unicode="&#xf8;" glyph-name="oslash" horiz-adv-x="607" d="M563 403Q571 406 574 406Q583 406 589 400T595 385V357Q595 344 590 337T573 324L540 311L541 307Q543 285 543 259Q543 235 541 213Q532 111 471 51T304 -10Q222 -10 166 27T84 133L44 117Q36
114 33 114Q24 114 18 120T12 135V163Q12 177 17 184T34 196L67 209V213Q66 224 66 259Q66 296 67 307Q75 409 137 469T304 530Q385 530 441 492T523 387L563 403ZM439 354Q423 396 389 420T304 444Q237 444 201 405T158 302Q156 286 156 244L439 354ZM169 166Q184
124 218 100T304 76Q371 76 407 115T450 218Q452 251 451 276L169 166Z" />
<glyph unicode="&#xf9;" glyph-name="ugrave" horiz-adv-x="597" d="M70 504T78 512T97 520H134Q145 520 153 512T161 493V229Q161 153 195 115T296 76Q360 76 395 115T431 229V493Q431 504 439 512T458 520H495Q506 520 514 512T522 493V27Q522 16 514 8T495
0H458Q447 0 439 8T431 27V58Q379 -10 281 -10Q185 -10 128 50T70 214V493Q70 504 78 512ZM345 619T345 611Q345 595 329 595H292Q278 595 270 599T250 612L139 703Q134 708 134 715Q134 724 139 729T153 735H227Q239 735 246 732T264 716L340 624Q345 619 345
611Z" />
<glyph unicode="&#xfa;" glyph-name="uacute" horiz-adv-x="597" d="M70 504T78 512T97 520H134Q145 520 153 512T161 493V229Q161 153 195 115T296 76Q360 76 395 115T431 229V493Q431 504 439 512T458 520H495Q506 520 514 512T522 493V27Q522 16 514 8T495
0H458Q447 0 439 8T431 27V58Q379 -10 281 -10Q185 -10 128 50T70 214V493Q70 504 78 512ZM333 728T340 731T359 735H433Q442 735 447 730T452 715Q452 708 447 703L336 612Q325 603 317 599T294 595H257Q241 595 241 611Q241 619 246 624L322 716Q333 728 340
731Z" />
<glyph unicode="&#xfb;" glyph-name="ucircumflex" horiz-adv-x="597" d="M70 504T78 512T97 520H134Q145 520 153 512T161 493V229Q161 153 195 115T296 76Q360 76 395 115T431 229V493Q431 504 439 512T458 520H495Q506 520 514 512T522 493V27Q522 16 514 8T495
0H458Q447 0 439 8T431 27V58Q379 -10 281 -10Q185 -10 128 50T70 214V493Q70 504 78 512ZM317 735T325 731T343 716L435 624Q440 619 440 611Q440 595 424 595H403Q394 595 388 597T372 606L296 657L220 606Q210 600 204 598T189 595H168Q152 595 152 611Q152
619 157 624L249 716Q259 727 267 731T286 735H306Q317 735 325 731Z" />
<glyph unicode="&#xfc;" glyph-name="udieresis" horiz-adv-x="597" d="M70 504T78 512T97 520H134Q145 520 153 512T161 493V229Q161 153 195 115T296 76Q360 76 395 115T431 229V493Q431 504 439 512T458 520H495Q506 520 514 512T522 493V27Q522 16 514 8T495
0H458Q447 0 439 8T431 27V58Q379 -10 281 -10Q185 -10 128 50T70 214V493Q70 504 78 512ZM261 616T253 608T234 600H177Q166 600 158 608T150 627V684Q150 695 158 703T177 711H234Q245 711 253 703T261 684V627Q261 616 253 608ZM442 616T434 608T415 600H358Q347
600 339 608T331 627V684Q331 695 339 703T358 711H415Q426 711 434 703T442 684V627Q442 616 434 608Z" />
<glyph unicode="&#xfd;" glyph-name="yacute" horiz-adv-x="557" d="M219 -190T199 -190H158Q148 -190 141 -183T134 -166Q134 -162 135 -159L231 50L33 489Q32 492 32 496Q32 506 39 513T56 520H97Q117 520 126 496L280 156L436 496Q445 520 465 520H506Q516
520 523 513T530 496Q530 492 529 489L228 -166Q219 -190 199 -190ZM319 728T326 731T345 735H419Q428 735 433 730T438 715Q438 708 433 703L322 612Q311 603 303 599T280 595H243Q227 595 227 611Q227 619 232 624L308 716Q319 728 326 731Z" />
<glyph unicode="&#xfe;" glyph-name="thorn" horiz-adv-x="599" d="M167 -163Q167 -174 159 -182T140 -190H103Q92 -190 84 -182T76 -163V683Q76 694 84 702T103 710H140Q151 710 159 702T167 683V462Q218 530 322 530Q384 530 434 501T515 418T549 292Q550 282
550 260Q550 237 549 227Q546 155 516 102T435 19T322 -10Q266 -10 228 9T167 58V-163ZM170 154T209 115T312 76Q377 76 415 118T458 232Q459 242 459 260Q459 278 458 288Q454 360 416 402T312 444Q250 444 210 406T167 303L166 264L167 224Q170 154 209 115Z"
/>
<glyph unicode="&#xff;" glyph-name="ydieresis" horiz-adv-x="557" d="M219 -190T199 -190H158Q148 -190 141 -183T134 -166Q134 -162 135 -159L231 50L33 489Q32 492 32 496Q32 506 39 513T56 520H97Q117 520 126 496L280 156L436 496Q445 520 465 520H506Q516
520 523 513T530 496Q530 492 529 489L228 -166Q219 -190 199 -190ZM245 616T237 608T218 600H161Q150 600 142 608T134 627V684Q134 695 142 703T161 711H218Q229 711 237 703T245 684V627Q245 616 237 608ZM426 616T418 608T399 600H342Q331 600 323 608T315
627V684Q315 695 323 703T342 711H399Q410 711 418 703T426 684V627Q426 616 418 608Z" />
<glyph unicode="&#x2013;" glyph-name="endash" horiz-adv-x="575" d="M84 257T76 265T68 284V316Q68 327 76 335T95 343H480Q491 343 499 335T507 316V284Q507 273 499 265T480 257H95Q84 257 76 265Z" />
<glyph unicode="&#x2014;" glyph-name="emdash" horiz-adv-x="771" d="M87 257T79 265T71 284V316Q71 327 79 335T98 343H673Q684 343 692 335T700 316V284Q700 273 692 265T673 257H98Q87 257 79 265Z" />
<glyph unicode="&#x2018;" glyph-name="quoteleft" horiz-adv-x="241" d="M169 537T159 526T129 514H71Q62 514 56 520T49 536Q49 540 50 543L102 678Q114 710 145 710H170Q179 710 185 704T192 688V686L172 553Q169 537 159 526Z" />
<glyph unicode="&#x2019;" glyph-name="quoteright" horiz-adv-x="236" d="M79 687T89 698T119 710H177Q186 710 192 704T199 688Q199 684 198 681L146 546Q134 514 103 514H78Q69 514 63 520T56 536V538L76 671Q79 687 89 698Z" />
<glyph unicode="&#x201a;" glyph-name="quotesinglbase" horiz-adv-x="251" d="M70 98T80 109T110 121H168Q177 121 183 115T190 99Q190 95 189 92L137 -43Q125 -75 94 -75H69Q60 -75 54 -69T47 -53V-51L67 82Q70 98 80 109Z" />
<glyph unicode="&#x201c;" glyph-name="quotedblleft" horiz-adv-x="411" d="M169 537T159 526T129 514H71Q62 514 56 520T49 536Q49 540 50 543L102 678Q114 710 145 710H170Q179 710 185 704T192 688V686L172 553Q169 537 159 526ZM339 537T329 526T299 514H241Q232
514 226 520T219 536Q219 540 220 543L272 678Q284 710 315 710H340Q349 710 355 704T362 688V686L342 553Q339 537 329 526Z" />
<glyph unicode="&#x201d;" glyph-name="quotedblright" horiz-adv-x="406" d="M79 687T89 698T119 710H177Q186 710 192 704T199 688Q199 684 198 681L146 546Q134 514 103 514H78Q69 514 63 520T56 536V538L76 671Q79 687 89 698ZM249 687T259 698T289 710H347Q356
710 362 704T369 688Q369 684 368 681L316 546Q304 514 273 514H248Q239 514 233 520T226 536V538L246 671Q249 687 259 698Z" />
<glyph unicode="&#x201e;" glyph-name="quotedblbase" horiz-adv-x="421" d="M70 98T80 109T110 121H168Q177 121 183 115T190 99Q190 95 189 92L137 -43Q125 -75 94 -75H69Q60 -75 54 -69T47 -53V-51L67 82Q70 98 80 109ZM240 98T250 109T280 121H338Q347 121
353 115T360 99Q360 95 359 92L307 -43Q295 -75 264 -75H239Q230 -75 224 -69T217 -53V-51L237 82Q240 98 250 109Z" />
<glyph unicode="&#x2022;" glyph-name="bullet" horiz-adv-x="380" d="M236 410T268 378T300 300Q300 254 268 222T190 190Q144 190 112 222T80 300Q80 346 112 378T190 410Q236 410 268 378Z" />
<glyph unicode="&#x2039;" glyph-name="guilsinglleft" horiz-adv-x="347" d="M45 373T59 385L256 576Q262 581 270 581Q279 581 285 575T292 559V513Q292 496 288 487T274 468L129 329L274 190Q284 180 288 171T292 145V99Q292 90 286 84T270 77Q262 77 256 82L59
273Q45 285 45 301V357Q45 373 59 385Z" />
<glyph unicode="&#x203a;" glyph-name="guilsinglright" horiz-adv-x="347" d="M302 285T288 273L91 82Q85 77 77 77Q68 77 62 83T55 99V145Q55 162 59 171T73 190L218 329L73 468Q63 478 59 487T55 513V559Q55 568 61 574T77 581Q85 581 91 576L288 385Q302 373
302 357V301Q302 285 288 273Z" />
</font>
</defs>
</svg>
